<svg width="97" height="71" viewBox="0 0 97 71" fill="none" xmlns="http://www.w3.org/2000/svg">
<g clip-path="url(#clip0_877_3753)">
<path d="M94.25 43.69L47.1552 60.8146L19.785 70.6748C18.2679 71.2219 15.6993 71.2401 14.9679 69.4499L9.43466 55.8906C8.74564 54.2006 9.7429 52.6201 11.1602 51.9271C13.2968 50.8845 14.1278 48.5897 13.5264 46.462C12.9462 44.4103 10.7643 43.073 8.45855 43.5714C6.17997 44.0638 4.23078 43.1915 3.30303 40.9818L0.274989 33.7751C-0.456333 32.0365 0.296143 29.5958 2.23324 28.8602L77.357 0.310043C81.4699 -1.25227 83.1744 3.48633 84.084 6.3374C85.3744 10.383 81.1708 11.8784 82.307 14.0821C83.3647 16.1277 86.9851 13.7751 88.9645 18.9879C90.6508 23.4255 86.417 25.1034 87.3115 27.231C88.0942 29.0942 92.1618 26.6414 93.9115 30.8845C94.9783 33.4711 96.0571 36.1246 96.8187 38.7872C97.4472 40.9818 96.4228 42.8997 94.25 43.69ZM89.3634 37.8997C88.9252 36.5745 88.4296 35.386 87.8282 34.1246C84.3076 34.0973 81.8598 31.9058 80.8595 28.6869C79.5087 24.3435 82.1136 23.6748 82.2164 21.0547C79.1339 20.6079 77.2573 18.6201 76.26 16.3587C74.888 13.2462 75.9578 11.0578 77.3751 7.48026L7.62448 33.8328C8.03849 35.1824 8.60058 36.5046 9.23218 37.6809C14.1157 37.5623 18.6638 40.4316 19.6339 45.2948C20.3924 49.0882 19.3377 52.611 16.7116 55.5958L19.9814 63.4833L89.3574 37.9027L89.3634 37.8997Z" fill="black"/>
<path d="M34.4689 47.0335L31.7672 50.8328C31.3955 51.3556 30.3892 51.7021 29.7969 51.4833C27.9807 50.8085 29.1049 47.5866 28.1862 45.5745L23.9796 44.3131C23.5353 44.1793 22.9188 43.5076 22.801 43.1034C22.665 42.6414 23.0669 41.5167 23.5444 41.2645L27.5425 39.1642C27.9897 37.1034 26.8384 33.8936 28.576 33.0608C29.0807 32.8207 30.3378 33.0547 30.7337 33.4955L33.6892 36.7721L37.8445 35.2645C38.2615 35.1125 39.2104 35.2736 39.5549 35.5137C39.9508 35.7873 40.2318 37.0122 39.9901 37.462L37.7478 41.6505L40.4585 45.0274C40.7546 45.3952 40.8423 46.5654 40.6579 46.9635C40.4464 47.4195 39.4763 47.9058 38.9686 47.8177L34.4659 47.0395L34.4689 47.0335Z" fill="black"/>
<path d="M55.5532 39.155L52.9996 42.6565C52.5524 43.2736 51.5551 43.7143 50.9265 43.5076C49.1345 42.9149 50.0683 39.8419 49.3098 37.6596L45.3872 36.4498C44.7647 36.2584 44.0424 35.7234 43.9367 35.2492C43.8037 34.6505 44.1633 33.6079 44.6257 33.3678L48.6751 31.2523L48.8111 26.8693C48.8323 26.2371 49.2493 25.3587 49.7147 25.1398C50.1801 24.921 51.3557 25.0699 51.7243 25.4833L54.7917 28.9301L59.0164 27.3799C59.5271 27.1915 60.5697 27.3526 60.8659 27.7386C61.162 28.1246 61.3192 29.2857 61.0593 29.7568L58.826 33.8146L61.7332 37.3009C62.0414 37.6687 61.9387 38.9666 61.6788 39.3374C61.3826 39.7629 60.4247 40.0365 59.8112 39.9271L55.5472 39.155H55.5532Z" fill="black"/>
<path d="M77.4175 35.0942C78.0128 36.5562 76.8493 38.003 75.7221 38.2766C74.4831 38.5775 73.3408 37.8571 72.8089 36.5258L65.6891 18.7811C65.1875 17.5289 65.6951 16.1216 66.7528 15.6352C67.6836 15.2067 69.4303 15.4894 69.9259 16.7112L77.4175 35.0912V35.0942Z" fill="black"/>
</g>
<defs>
<clipPath id="clip0_877_3753">
<rect width="97" height="71" fill="white"/>
</clipPath>
</defs>
</svg>
