<svg width="97" height="99" viewBox="0 0 97 99" fill="none" xmlns="http://www.w3.org/2000/svg">
<g clip-path="url(#clip0_877_3739)">
<path d="M61.2645 92.0035C47.0506 91.3883 33.3154 93.9741 20.1242 98.7058C18.8577 99.1605 17.3623 99.0832 16.2474 98.5423C15.4149 98.1381 15.0047 96.973 15.1058 96.0902C15.186 95.371 15.8163 94.5625 16.4704 93.8463C26.088 89.0046 38.2981 86.6625 49.102 85.7382C49.3963 72.8033 47.6452 60.1656 43.5663 47.7747L40.3525 52.1259L38.0157 53.3891L31.6 64.4396C30.6456 66.0832 28.957 67.388 27.1137 67.7001C25.2704 68.0122 23.8345 66.8263 22.8385 65.4501C18.4831 59.4404 20.365 48.0154 23.5966 41.5093C23.7453 41.117 22.8356 40.16 22.4669 40.2283C20.4245 41.7025 18.1739 42.82 15.9679 44.0862L7.32245 49.0527C5.61297 50.0335 3.09782 49.9414 1.60835 48.6782C0.365632 47.626 -0.175454 45.6406 0.0534673 43.896C0.796717 38.2548 3.27322 32.893 7.22731 28.7944C11.8087 24.0449 17.9301 22.0535 24.0366 20.505L23.0347 18.2432L18.4206 17.6398C17.6655 17.5417 16.8212 16.9503 16.1195 16.7333C12.219 15.5296 8.12516 15.7584 4.85783 13.3956C3.14836 12.1591 2.65187 10.0905 3.57052 8.25669C4.51594 6.3753 6.15109 5.26074 7.92002 4.18779C18.5039 -2.24102 33.4164 -1.34639 42.2403 7.4334C43.9171 9.10078 45.2103 10.997 46.572 12.923C54.6823 -0.98379 73.1981 -1.41178 85.9939 5.86706C88.0007 7.00837 89.5526 8.43204 90.3642 10.5304C91.0064 12.1889 90.5486 13.8741 89.1245 14.9827C84.2072 18.8079 75.309 18.0946 75.7757 19.1111C75.8322 19.2329 76.1117 19.4974 76.293 19.5361C84.9772 21.4353 91.821 27.4242 95.7097 35.4283C96.8424 37.7614 97.2883 40.2699 96.8127 42.7933C96.5035 44.428 95.1864 45.6347 93.4294 45.7298C91.6724 45.8249 89.7994 45.3404 88.1523 44.5825L79.1768 40.4423L78.6744 39.0959C75.2049 37.589 74.6252 39.6666 73.0703 39.0692C68.2719 37.2205 62.757 35.3153 57.5661 36.0435L60.8067 43.0548C66.3513 55.0565 70.8643 73.2937 72.5411 86.6031C77.4733 87.9406 83.128 89.495 87.0404 92.8833C87.5874 93.8998 87.9739 94.9133 87.641 95.9149C87.3496 96.7917 86.2169 97.4693 85.1763 97.5407C83.1101 97.6833 81.6266 96.7174 79.8547 95.9327C74.0276 93.344 67.8765 92.2948 61.2675 92.0095L61.2645 92.0035ZM30.8299 13.3123C31.5345 14.5309 30.9489 15.8001 30.5267 16.9265C35.3875 21.2659 37.3319 19.3042 43.2898 22.2497C41.5981 13.8949 35.0903 7.89111 26.8669 6.49419C21.5542 5.59362 14.8858 6.10483 10.56 9.54066C12.7749 10.2629 14.8085 10.7474 17.0263 11.1932C17.9539 9.38908 19.9666 8.39638 21.7296 9.52877C22.6691 10.1321 22.7345 11.3923 22.5561 12.6169C23.4391 12.9646 24.8037 13.3985 25.6569 13.559C26.5815 12.7149 27.3456 12.177 28.2167 12.0789C29.0878 11.9808 30.3186 12.4326 30.8299 13.3123ZM70.6949 12.1265L72.9573 13.6928C76.4863 13.1994 79.8933 12.6674 83.3955 11.3894C79.165 8.75304 74.5509 7.39773 69.6335 7.12132C66.274 6.9311 62.9086 7.88814 59.8791 9.22561C53.6388 11.9808 50.0325 17.94 50.2734 24.6571C53.8915 21.3105 58.2113 19.1319 63.0156 18.4869L68.8457 17.7052C67.2075 16.8284 66.3632 15.2235 66.83 13.9008C67.4097 12.2632 68.8724 11.7014 70.6949 12.1235V12.1265ZM81.2252 34.0343C82.5125 33.3448 83.7255 32.9762 84.7839 33.7133C85.7085 34.3583 85.6699 35.6631 86.1188 36.7806C86.868 37.8357 88.955 38.3826 90.4148 38.9414C88.3545 34.4296 85.0396 30.2924 80.5474 27.766C72.5262 23.2513 59.4242 22.3983 53.0263 30.7798C58.6394 29.5939 64.1067 29.9743 69.6186 31.5555C69.9605 30.0902 70.8078 29.1481 71.9168 28.9876C73.1654 28.8063 74.3665 29.2105 74.973 30.3042L76.0076 32.1618L81.2252 34.0373V34.0343ZM22.0715 34.4058C22.3837 33.0892 22.7107 31.9687 23.4391 31.4485C24.325 30.8125 25.6094 30.6133 26.534 31.1989C27.6251 31.8884 27.8569 33.1932 28.0145 34.5812L38.2654 31.2761C40.1116 30.6817 41.9044 30.3102 43.7684 30.0011C36.5559 22.9838 23.112 25.5696 15.2841 29.9773C10.6968 32.5601 7.38191 37.8744 6.00838 43.2124C8.74949 41.8363 11.1011 40.368 13.6222 38.7571L13.7055 36.5161C13.7649 34.9141 14.6301 33.8173 16.289 33.8292C17.4187 33.8381 18.2571 34.7536 18.8785 36.0524C19.8328 35.6155 21.2807 34.923 22.0715 34.4058ZM29.2097 51.7752C29.9143 50.3783 31.7664 50.6517 32.8367 50.9281C33.2173 51.0262 33.9516 50.1613 33.9962 49.772C34.0883 48.9992 31.9686 46.033 34.2816 44.6182C35.4916 43.8752 36.7759 44.0684 38.093 44.9362C40.0403 41.9343 41.6873 39.1613 43.1946 36.0316C39.6806 37.2205 35.5867 37.2829 32.6821 39.3575C28.6745 42.4129 27.4199 47.843 26.5013 52.4737C26.204 55.2199 25.9126 57.4609 27.1405 60.0408L29.7478 55.9035C28.7637 54.6582 28.4991 53.2018 29.2156 51.7782L29.2097 51.7752ZM49.1317 43.9227L52.6755 42.2434L50.3298 37.7614L47.8147 40.6979L49.1287 43.9257L49.1317 43.9227ZM56.481 51.1391L54.9618 47.4388L50.9185 49.4807L52.0215 52.6995L56.481 51.1391ZM60.4232 63.0843L58.4313 56.6109L53.3534 58.4834L54.4861 64.5585L60.4232 63.0843ZM55.7764 75.0116L62.9145 73.4185L61.8889 68.7522L55.2739 70.3037L55.7764 75.0116ZM65.0819 85.6252L64.187 79.3123L55.9399 80.9114L55.8626 85.2418L65.0789 85.6223L65.0819 85.6252Z" fill="black"/>
</g>
<defs>
<clipPath id="clip0_877_3739">
<rect width="97" height="99" fill="white"/>
</clipPath>
</defs>
</svg>
