<svg width="97" height="80" viewBox="0 0 97 80" fill="none" xmlns="http://www.w3.org/2000/svg">
<g clip-path="url(#clip0_877_3722)">
<mask id="mask0_877_3722" style="mask-type:luminance" maskUnits="userSpaceOnUse" x="0" y="0" width="97" height="80">
<path d="M96.9007 0H0V79.853H96.9007V0Z" fill="white"/>
</mask>
<g mask="url(#mask0_877_3722)">
<path d="M89.2684 73.1958C89.2798 75.9011 88.0034 77.5407 85.448 78.0467C80.4505 79.0361 75.4984 79.8389 70.2712 79.8417L35.4391 79.853C27.7075 79.853 20.3615 79.2226 12.766 78.14C10.6275 77.8347 9.05622 76.3053 9.03921 74.0495L8.92008 59.0474L8.81798 45.3824L8.60526 39.4799L4.33953 42.6347C3.12561 43.5336 1.13171 42.8099 0.428318 41.6933C-0.147443 40.7774 -0.294927 38.7477 0.913318 37.7498L17.4884 24.0848L46.1375 0.6926C47.8307 -0.689732 50.1309 0.248783 51.4781 1.32299L67.8603 14.4198C67.9908 12.3873 67.9993 10.6092 67.9851 8.55974C67.9738 6.77882 69.5309 5.15056 71.4369 5.1449L83.6526 5.11098C85.6777 5.10533 87.3454 6.48483 87.3681 8.64172L87.4759 18.5668L87.5355 30.3633L95.9847 37.2354C97.2752 38.2841 97.0313 40.5145 96.2995 41.4332C95.1707 42.8523 93.3044 42.988 91.8664 41.9393L89.1323 39.9435L89.2684 73.193V73.1958ZM27.3501 44.3732H42.317C44.2797 44.3788 45.4256 46.1569 45.4568 47.8983L45.8311 69.4841L45.9446 73.7499L63.3422 73.6877C69.789 73.665 76.0259 73.4361 82.4018 72.1046L82.3621 50.2361L82.2941 34.2559L48.2675 6.90321L15.4009 33.7074L15.4747 39.5562L15.5399 57.2241L15.7299 72.0481L24.216 73.0544C24.2671 71.0841 24.2245 69.3315 24.1791 67.3753L24.0118 60.0764L23.8842 53.5463L23.7424 48.4552C23.6828 46.3576 24.8343 44.3675 27.3472 44.3675L27.3501 44.3732ZM81.1057 25.0742L81.134 11.4036L74.293 11.3979L74.3469 19.6862L81.1085 25.0742H81.1057ZM39.7417 73.6085L39.5885 64.2827L39.3872 55.5619L39.2198 50.3802L30.2005 50.3944L30.2459 59.0559L30.3594 65.4332L30.4728 73.2043C31.352 73.2806 32.305 73.4191 33.1758 73.4417L39.7417 73.6113V73.6085Z" fill="black" stroke="black" stroke-width="0.5"/>
<path d="M72.9315 65.046L68.0333 65.2693L55.8317 65.2806C53.9882 65.2806 52.5275 63.8304 52.5105 61.9788L52.38 46.7534C52.3658 45.1053 53.5202 43.2368 55.4176 43.2227L72.5118 43.0983C74.7552 43.0813 75.9011 44.7096 75.9238 46.7788L75.989 52.7209L76.0117 62.0354C76.0145 63.7258 74.6361 64.9697 72.9344 65.046H72.9315ZM68.8096 60.2121C69.591 60.2121 70.2249 59.5822 70.2277 58.8034L70.2578 49.7154C70.2606 48.9295 69.6194 48.2923 68.8312 48.2971L60.1349 48.3503C59.3561 48.3551 58.7267 48.9855 58.7256 49.7617L58.7125 58.7966C58.7114 59.578 59.3467 60.2121 60.1307 60.2121H64.4667H68.8096Z" fill="black" stroke="black" stroke-width="0.5"/>
</g>
</g>
<defs>
<clipPath id="clip0_877_3722">
<rect width="97" height="80" fill="white"/>
</clipPath>
</defs>
</svg>
