<svg width="97" height="73" viewBox="0 0 97 73" fill="none" xmlns="http://www.w3.org/2000/svg">
<g clip-path="url(#clip0_877_3719)">
<path d="M48.2082 60.5297L44.8475 63.1999C43.5476 64.2294 41.8491 64.6034 40.034 63.8795C23.9632 57.4735 6.43151 45.7713 0.937752 28.4432C-1.24365 21.5586 0.28977 12.1043 6.4959 7.53204C15.5073 0.892754 25.0781 3.04017 34.0613 8.89127C39.3538 3.08842 46.4615 -0.510705 54.2292 0.0603299C63.2486 0.723857 69.8371 7.23848 70.5817 16.2061C70.9077 20.139 69.7606 24.4017 67.9575 27.9043C68.0139 28.415 68.5371 29.2274 68.9074 29.5853C71.8293 27.2086 74.6547 25.1698 78.2447 24.3454C83.3843 23.1671 88.7372 24.0438 92.6251 27.8078C95.2734 30.3694 96.6941 34.057 96.9517 37.9698C97.4427 45.4214 93.6353 52.6116 88.1134 57.7228C81.9636 63.413 75.4637 68.1904 68.2755 72.4611C66.9272 73.2654 64.7056 73.1206 63.2929 72.2963C57.7468 69.051 53.0218 65.2227 48.2001 60.5257L48.2082 60.5297ZM41.0563 56.062L42.6983 54.3288C37.8485 46.9817 35.2808 39.1119 38.416 30.5866C41.7807 21.4259 53.0741 18.1967 61.5944 23.2194C63.7114 19.0734 63.4217 13.536 59.6143 10.1781C56.6279 7.54813 52.7119 7.12588 49.0292 8.12318C37.3937 11.284 37.2569 21.7717 32.717 17.3563C26.8007 11.6017 16.8515 7.9382 10.5569 14.3965C6.21417 18.8522 7.70735 26.2877 10.6011 31.4793C17.097 43.1292 29.1833 50.7658 41.0563 56.062ZM89.1759 38.3639C88.9143 34.6039 86.1533 31.2823 82.1648 31.5195C77.6652 31.7849 74.0389 35.1106 71.6563 38.7862C70.4408 40.6601 69.0442 41.7982 66.9031 41.3719C64.9108 40.9738 64.0737 39.6266 63.5062 37.5395C62.2384 32.8707 58.5075 28.8815 53.5973 28.4311C49.0695 28.0169 45.7773 31.4351 44.7992 35.7058C43.0203 43.463 51.2267 53.6049 56.8372 58.322C59.7712 60.7831 62.5604 62.9023 65.7963 64.9854C70.7829 61.8447 75.2343 58.6839 79.754 54.9802C84.5837 51.0232 89.6307 44.8745 89.1759 38.3639Z" fill="black"/>
</g>
<defs>
<clipPath id="clip0_877_3719">
<rect width="97" height="73" fill="white"/>
</clipPath>
</defs>
</svg>
