<svg width="97" height="76" viewBox="0 0 97 76" fill="none" xmlns="http://www.w3.org/2000/svg">
<g clip-path="url(#clip0_877_3747)">
<path d="M46.5777 73.3763C45.2604 73.3563 44.7524 72.2719 44.9118 71.1774C46.0473 63.3837 46.7893 55.7175 46.376 47.5815L40.9425 59.4357L34.9463 72.1294C34.406 73.034 33.5643 73.6237 32.4139 73.5687L6.85284 72.3868C5.45339 74.1559 3.53351 76.1849 1.28743 74.5657C0.176837 73.7636 -0.515416 71.9145 0.478141 70.5377L27.1074 33.6484C32.4064 26.307 37.9793 19.4354 43.9083 12.3989L37.9693 4.96506C36.8637 3.58075 36.9384 1.83161 38.2283 0.712163C39.6352 -0.507235 41.3708 -0.0749486 42.586 1.32186L47.8949 7.42635L53.291 1.2469C54.4738 -0.107433 56.192 -0.357309 57.5018 0.699669C59.0034 1.91157 58.829 3.64821 57.6786 5.12499L52.0161 12.4039C57.9326 19.4204 63.4806 26.2221 68.782 33.5035L96.5892 71.6971C97.5329 72.9915 96.6838 74.5807 95.7052 75.3653C93.3346 77.2644 91.0661 74.4433 89.6168 72.5842C77.9008 73.3363 66.3567 73.6612 54.6158 73.4888L46.5777 73.3713V73.3763ZM49.0006 32.7663L54.7751 43.8234L66.1599 67.4267L85.2367 66.4972L61.6254 34.1682L47.9522 17.1765L38.5271 28.8733C29.0672 41.1397 20.1177 53.4312 11.0885 66.3923L30.3222 67.4392L39.9315 46.5595C42.1204 41.7794 44.3415 37.3291 46.7918 32.7039C47.1155 32.429 47.6509 32.0767 47.9647 32.1017C48.2261 32.1242 48.6345 32.4665 49.0006 32.7688V32.7663Z" fill="black" stroke="black" stroke-width="0.8"/>
</g>
<defs>
<clipPath id="clip0_877_3747">
<rect width="97" height="76" fill="white"/>
</clipPath>
</defs>
</svg>
