<svg width="97" height="93" viewBox="0 0 97 93" fill="none" xmlns="http://www.w3.org/2000/svg">
<g clip-path="url(#clip0_877_3729)">
<path d="M66.817 68.2452C48.5 77.3071 29.9327 84.9136 10.9995 92.28C7.618 93.5961 4.57929 93.1742 2.07206 90.4955C-0.0115157 88.2697 -0.720163 85.2232 0.86274 82.5174L14.3848 59.3768C19.5841 50.4813 24.3521 41.6903 28.6502 32.3613C29.3858 30.7665 29.8749 29.3458 31.3038 28.7691C32.8251 28.1574 34.5543 28.111 36.0871 28.8542C42.3417 31.8891 47.7028 35.942 52.8983 40.6026C58.0937 45.2632 62.6653 50.76 66.2894 56.8955C68.0418 59.8684 71.2692 66.0465 66.8209 68.2452H66.817ZM54.6737 50.7678C49.5129 45.0078 43.8245 40.0181 36.8382 35.8452C38.1707 40.2736 40.4507 43.8658 43.0119 47.5471C47.6027 54.1471 53.9266 59.7716 61.1556 63.1045C61.4906 63.2594 62.5382 63.2284 62.4997 62.9536C62.0414 59.7871 57.05 53.4155 54.6776 50.7678H54.6737ZM40.9052 73.5639C39.3569 65.3691 38.4403 58.0452 37.8395 50.3729L31.712 39.8323L27.7875 47.462C28.5616 57.5458 29.7555 67.3781 32.0663 77.551C35.209 76.3703 38.0975 75.1549 40.9013 73.5639H40.9052ZM19.3762 82.6994C22.2955 81.662 24.9799 80.5936 27.4794 79.2C25.8387 70.8736 24.7603 63.4452 23.6435 55.0994L16.3028 67.502C16.9691 72.7549 17.8587 77.702 19.3762 82.6994ZM55.7483 66.9213C50.9225 63.8632 47.3485 61.08 43.3777 57.4645C43.7436 62.4232 44.4715 67.0413 45.6963 71.8336L55.7444 66.9213H55.7483ZM7.69503 87.2555C9.95962 86.4736 12.5323 85.3936 14.5466 84.3639L12.386 74.7213L6.08902 85.022C5.70773 85.6491 7.00949 87.4374 7.69503 87.2516V87.2555Z" fill="black"/>
<path d="M79.176 33.4916L72.5556 35.1213C71.766 35.3149 70.3988 34.982 69.8943 34.4787C69.2357 33.8207 69.124 32.1445 69.5554 31.3123L72.6788 25.2968L68.7004 19.1613C68.2998 18.542 68.2729 17.1058 68.5694 16.5058C68.866 15.9058 70.3218 15.1665 71.0073 15.2749L77.9012 16.382C80.5009 14.6865 82.6153 9.49938 85.2303 9.77809C86.2856 9.89034 87.3062 10.9239 87.4911 12.0078L88.7081 19.2349C91.743 21.0891 96.665 21.3213 96.9808 23.9536C97.1117 25.0491 96.3299 25.9897 95.3055 26.5278L89.2743 29.702L88.6272 36.8207C88.5618 37.5252 87.6836 38.7329 87.0636 38.9729C84.3676 40.0181 82.1416 35.3342 79.1683 33.48L79.176 33.4916ZM84.256 31.7613C84.6912 26.0478 84.437 27.4607 88.8044 24.5458C83.9787 22.1574 84.9684 23.2645 83.6705 17.7639C80.0657 21.2826 80.6241 21.4916 75.602 20.6942C78.2363 25.5136 78.0437 24.4529 76.0603 29.4891C80.8706 28.3974 80.705 28.1071 84.2598 31.7613H84.256Z" fill="black"/>
<path d="M52.8598 15.1742L48.9699 16.2078C48.3537 16.3704 46.9826 15.7936 46.6321 15.3097C45.3959 13.591 47.9493 11.3342 47.8184 9.89809C46.9826 8.65551 43.8746 5.96519 45.9774 4.43229C48.0803 2.89938 50.16 4.60261 51.4848 3.80132C52.8097 3.00003 53.1987 -0.131585 55.7059 0.00389887C58.683 0.16648 57.8203 4.60261 58.8332 5.27229C60.6549 6.47229 64.0479 6.18196 63.8746 8.77164C63.8169 9.62713 62.6769 10.7342 61.8064 11.0323C57.0077 12.6891 60.7858 15.8129 58.4327 17.5897C57.6817 18.1549 55.9909 18.0929 55.3131 17.462L52.8521 15.1742H52.8598Z" fill="black"/>
<path d="M80.3584 43.8194C81.3251 47.0865 77.2657 46.5058 71.1113 49.9471C70.3256 50.3884 68.6965 50.0594 68.165 49.4594C67.4987 48.7084 67.4564 46.9316 68.3229 46.2271C71.0073 44.04 79.1259 39.6619 80.3584 43.8194Z" fill="black"/>
<path d="M38.8755 13.0374C41.9951 15.5884 46.5359 23.7058 41.8372 24.24C40.4815 24.3948 39.4263 23.791 38.9487 22.529C36.9499 17.28 33.5183 15.5961 35.4941 13.4168C36.0718 12.7781 38.0128 12.329 38.8755 13.0336V13.0374Z" fill="black"/>
<path d="M77.3775 56.5471C80.4817 57.24 88.8699 61.231 85.835 64.3665C85.0763 65.1523 83.5627 65.3536 82.5922 64.653C80.2583 62.9768 78.1015 61.9084 75.394 60.8788C74.5313 60.5497 74.1693 58.9084 74.5082 58.1033C74.8471 57.2981 76.2875 56.3033 77.3775 56.5471Z" fill="black"/>
<path d="M60.2043 29.0903C59.1529 33.0271 58.5136 37.5832 54.9857 36.902C54.1269 36.7355 52.9022 35.4349 53.3335 34.3239C54.1538 32.2026 54.9357 30.2903 55.2784 28.0994C55.5211 26.5394 56.6688 25.7187 58.0476 25.8078C59.6459 25.9084 60.6703 27.3562 60.2082 29.0865L60.2043 29.0903Z" fill="black"/>
</g>
<defs>
<clipPath id="clip0_877_3729">
<rect width="97" height="93" fill="white"/>
</clipPath>
</defs>
</svg>
