<svg width="97" height="75" viewBox="0 0 97 75" fill="none" xmlns="http://www.w3.org/2000/svg">
<g clip-path="url(#clip0_877_3760)">
<path d="M50.7743 49.2114L18.5021 67.2379C17.6378 67.7192 16.1921 67.5546 15.4739 67.1821C14.5847 66.7194 14.1649 65.5303 13.9691 64.4374L12.884 58.3488C12.6695 57.1504 12.8436 55.6787 12.8249 54.3778L1.20943 46.4543C0.354436 45.8706 -0.0683984 44.1722 0.00932845 43.3588C0.127473 42.1479 1.18767 41.2723 2.19812 40.6079L8.95103 36.168C9.90862 35.5377 11.5316 35.6619 12.6384 35.811L20.5603 37.6024L35.5367 27.0585L14.6033 11.0718C13.3131 10.0844 12.7254 7.17833 13.9287 6.21894C16.3133 4.31569 18.6327 2.85643 21.1262 1.14257C22.3232 0.316684 24.1171 -0.338433 25.7152 0.198701L58.3977 11.2084L72.5565 2.67324C78.4264 -0.866252 85.7793 0.00930678 91.6368 3.17933C98.8654 7.70926 98.169 17.654 93.2318 23.5873C92.1529 24.8634 91.1083 26.3102 89.6532 27.192L74.397 36.4319L71.9937 66.3034C71.832 68.3308 71.4092 69.995 69.5438 71.0631L63.3225 74.7485C61.4104 75.2763 59.3802 75.0931 58.4475 73.2582L50.7743 49.2176V49.2114ZM41.4222 23.2706L52.1081 15.8501L24.9876 6.57289C23.8932 7.05104 22.8735 7.73099 21.8195 8.58792L41.4222 23.2706ZM51.8936 41.0767C54.0108 40.6886 55.1612 41.6325 55.6991 43.3215L61.1555 60.4011L63.3381 67.1231L65.6294 65.7445L68.1354 33.1284C68.2722 31.3556 69.9262 31.2531 71.1667 30.6818C75.4261 28.7196 79.3778 26.4096 83.3263 23.9009C86.5566 21.8486 89.246 19.1971 90.2533 15.3906C90.8223 13.2389 90.5362 10.2024 88.562 8.85494C84.4051 6.01713 78.9705 6.15374 74.5991 8.48236C70.862 10.4725 67.6503 12.6645 64.1526 15.1049L23.6321 43.3774C22.8268 43.9394 21.8568 44.3585 20.98 44.1505L12.2902 42.0982C11.0745 42.4025 9.54797 43.4364 8.4629 44.2964L17.6782 50.7607C18.7446 51.5089 19.2203 52.8316 19.3602 54.1201L19.8981 59.1375L51.8936 41.0767Z" fill="black" stroke="black" stroke-width="0.5"/>
</g>
<defs>
<clipPath id="clip0_877_3760">
<rect width="97" height="75" fill="white"/>
</clipPath>
</defs>
</svg>
