<svg width="97" height="85" viewBox="0 0 97 85" fill="none" xmlns="http://www.w3.org/2000/svg">
<g clip-path="url(#clip0_877_3709)">
<path d="M52.0224 82.1177C49.9683 81.0516 49.5483 78.6735 48.961 76.514C48.1424 79.7699 47.6616 81.896 43.5047 83.1412C35.5986 85.5133 23.8095 85.6105 15.8608 83.4571C14.0928 82.9772 12.6747 81.8595 11.5883 80.5444C8.86769 80.9666 6.04061 80.9483 3.70653 79.1199C1.835 77.6499 0.459499 75.3173 0.216048 72.4745C-0.593427 62.9953 0.894667 52.3528 4.869 43.6693C3.66392 40.1917 3.25006 36.7809 5.17332 33.3519C6.6675 30.6852 9.42458 28.4528 13.2498 27.9577C9.26025 20.5347 10.4045 11.5749 16.1499 5.37288C19.9721 1.24528 25.3858 -0.625659 31.0735 0.185283C36.1099 0.905107 40.7415 4.10635 43.3951 8.90822C47.269 15.9182 46.5204 24.4771 41.4049 30.7793L52.9962 29.8074C48.0633 21.6494 49.3201 11.5051 56.1428 5.19975C62.4269 -0.607435 71.9489 -0.771446 78.3608 4.88085C85.2078 10.9158 86.7264 20.5985 82.2925 28.7626C86.7964 28.7687 90.3233 30.9585 92.4079 34.2539C94.675 37.8409 94.4225 42.1507 92.5418 45.7468C95.8558 54.242 97.3408 63.0773 96.933 72.1799C96.7687 75.8731 95.2045 79.0136 91.7901 80.6234C89.5808 81.6651 87.1128 81.5831 84.6448 81.7046C77.2409 86.0053 59.4477 85.978 52.0194 82.1177H52.0224ZM33.8427 28.2979C36.9954 26.2812 38.8335 22.8643 39.0282 19.1194C39.223 15.3745 37.4945 11.3744 34.6796 8.8171C31.1556 5.61282 26.244 5.53385 22.5922 8.55286C19.4761 11.1315 17.5771 15.2044 17.7141 19.3381C17.8389 23.1711 19.8747 26.5849 23.0365 28.4467C26.4509 30.4574 30.3675 30.5212 33.8458 28.2979H33.8427ZM72.944 29.0511C78.7259 25.1513 79.6937 17.5613 75.8471 11.9606C73.8417 9.04185 70.7225 6.82771 67.0373 7.13143C62.7951 7.48072 59.6668 10.5605 58.0022 14.2993C55.592 19.7147 57.0679 26.1506 62.1591 29.2486C65.5705 31.323 69.5144 31.3594 72.9409 29.0511H72.944ZM14.2023 40.6078C16.2412 39.2259 16.3995 36.7748 15.7239 34.5728C13.0185 34.1142 10.4532 35.8971 10.4288 38.8037C10.4227 39.6754 10.9644 40.7779 11.6126 41.033C12.3186 41.3094 13.4659 41.1059 14.2023 40.6078ZM18.9618 58.1084L17.6958 77.0303C25.7754 78.959 33.9249 78.7646 41.9892 76.6355L41.2315 56.532L40.5559 42.0141L37.8079 37.2486C32.7715 37.1484 27.9573 36.6898 23.1735 35.8788C22.9483 38.9707 22.1966 42.175 20.0117 44.456C17.5376 47.0437 14.0988 48.043 10.5597 47.6846C7.48002 54.5183 6.30232 64.6232 6.85009 71.8397C6.93529 72.9483 7.69304 73.9111 8.54207 74.1753C9.19026 74.3788 11.0101 74.1267 11.077 73.4008L12.4008 58.2268C12.5712 56.2556 13.825 54.9557 15.6904 54.9436C17.3489 54.9314 18.6818 56.0704 18.9618 58.1084ZM84.6783 58.406L86.2029 74.8496C87.2711 75.4661 89.6539 75.0926 89.9247 73.6711C91.0993 67.4752 89.1517 54.5852 86.2395 48.7537C82.2682 48.9936 78.7503 47.4629 76.6901 44.2404C75.0437 41.6648 74.7333 38.7156 75.0407 35.7118C70.0408 37.8105 64.9679 37.7407 60.2571 35.7786L45.7505 37.1697C48.0298 40.9024 51.8398 42.008 55.942 42.7248C57.7192 43.0376 58.0052 44.8751 57.9109 46.4059L56.0576 76.4138C62.4391 78.9377 72.7705 78.8253 79.4959 76.7387L78.1386 57.9656C78.0017 56.0734 80.2901 55.0165 81.5987 55.1926C83.172 55.4052 84.5018 56.4682 84.6814 58.409L84.6783 58.406ZM87.1372 41.2183C87.898 39.6997 87.0215 37.8409 86.063 36.8994C85.1044 35.9578 83.455 35.5721 82.0156 35.727C81.4982 37.6951 81.5956 39.6511 82.8433 41.1424C83.8871 42.3876 86.2821 42.9252 87.1372 41.2183ZM49.5788 68.3712L50.8295 48.6899L47.6281 47.6755L48.7297 69.4585C48.8302 71.4388 48.3707 73.2672 49.1193 75.1229L49.5788 68.3712Z" fill="black"/>
</g>
<defs>
<clipPath id="clip0_877_3709">
<rect width="97" height="85" fill="white"/>
</clipPath>
</defs>
</svg>
