<svg width="125" height="71" viewBox="0 0 125 71" fill="none" xmlns="http://www.w3.org/2000/svg">
<g clip-path="url(#clip0_877_3712)">
<path d="M76.5846 70.9408C70.7518 70.6651 67.9554 66.0804 67.3757 60.7772L58.2546 60.6774C48.8817 60.5777 39.7167 60.302 30.3907 59.5247C29.4361 62.0355 28.2122 64.3352 26.063 65.8604C22.1539 68.6411 14.9186 69.0782 11.1559 65.3002C8.8603 62.9947 7.46652 60.0849 6.56173 57.0168L3.85323 55.9667C2.07001 55.2774 0.83142 53.6905 0.562034 51.7927C0.0730393 48.3403 0.00276461 45.0404 -0.000163504 41.5294C-0.00601973 37.3055 1.29992 33.2665 4.53255 30.4858C10.0579 25.7369 16.6169 26.2414 23.3837 24.4639L31.8108 9.51618C34.0889 5.4742 37.263 2.65537 42.0211 1.66394C47.2947 0.566916 52.6941 0.238395 58.1697 0.0976007C71.1676 -0.233853 87.4713 0.255995 100.288 2.06579C106.027 2.87829 108.68 8.777 110.981 13.6726L114.164 20.4483C123.335 24.3201 124.336 30.8818 124.939 39.7606C125.068 41.632 124.963 43.4477 124.884 45.3191C124.787 47.6129 124.266 49.5459 121.964 50.5461C122.228 54.5822 121.197 58.4012 119.051 61.6073C117.256 64.2853 114.404 65.5348 111.262 65.5935C106.747 65.6786 103.186 62.8861 102.112 58.5039L101.441 55.7702L88.3556 58.2839C86.9911 64.7135 84.426 71.3074 76.5846 70.9378V70.9408ZM69.5688 25.8014C71.3872 25.8689 72.4501 24.4257 72.7956 22.9621C73.8702 18.4214 74.5027 13.9688 75.059 9.29032C75.1791 8.29009 74.2801 7.31626 73.3402 7.21066C68.7402 6.69735 64.2367 6.60935 59.5664 6.80001C54.4685 7.00534 42.6712 6.85868 39.6904 11.1382C36.7915 15.3034 34.4549 19.4305 31.9075 23.8919C33.2925 24.414 34.3641 24.4727 35.7931 24.5255L69.5688 25.8014ZM92.1299 22.9533L90.1329 9.58657C90.051 9.04099 89.4741 8.35755 89.0495 8.30475L83.9663 7.68291L79.9958 23.1029C79.8875 23.5282 80.192 24.4991 80.4702 24.7983C80.7074 25.0535 81.5389 25.1414 81.9547 25.1092L91.3481 24.3671C91.881 24.326 92.2382 23.6543 92.1328 22.9503L92.1299 22.9533ZM107.005 21.7682L101.807 11.766C100.463 9.17592 97.1136 8.14049 95.547 8.65674C95.2864 8.74181 95.1986 9.56017 95.2513 9.83296L97.9393 23.3756L107.005 21.7712V21.7682ZM88.9851 51.2149L101.637 48.8448C104.203 48.3638 102.943 44.5388 107.948 40.8782C110.943 38.69 114.474 38.7311 117.833 40.6553C118.093 37.5108 117.171 27.9016 113.552 27.3707L73.6272 32.8148C71.475 35.2552 69.6069 37.4903 67.648 40.0774C67.0975 40.8019 67.1209 42.6029 67.118 43.5621L67.077 52.9689C67.077 53.3209 67.4576 54.1246 67.7417 54.0337C68.8983 53.6729 69.2116 49.9418 71.8879 46.375C74.7252 42.5941 80.1656 41.2742 84.0717 44.1282C87.6177 46.7182 87.2048 51.5434 88.991 51.209L88.9851 51.2149ZM60.4975 53.5204C60.5327 53.2857 60.5737 52.6991 60.5707 52.4028L60.4507 40.6259C60.436 39.1036 61.0099 37.5724 61.8298 36.3728L64.5969 32.3308C61.6512 31.9612 59.3351 31.6649 56.5065 31.6239C46.6154 31.4743 36.9145 30.1162 27.0673 30.518C22.2096 30.7175 17.5129 32.7414 12.8279 33.9411C9.15604 34.8827 6.71107 39.1564 6.50903 42.6088C6.37726 44.8762 6.8604 46.7036 7.24105 48.7597C7.44602 49.8656 8.34788 50.4317 9.51034 50.5666C20.4263 51.8543 31.1608 52.6609 42.1734 53.2828C44.0211 53.3884 60.3248 54.6761 60.4917 53.5174L60.4975 53.5204ZM113.444 45.8588C109.546 45.6711 108.167 58.6447 112.018 59.0759C115.868 59.5071 117.4 46.0524 113.444 45.8588ZM79.7821 49.4021C77.097 49.1733 76.1658 53.9193 75.8262 56.1632C75.4836 58.4364 75.1996 64.2706 78.0867 64.5229C82.0074 64.8661 83.7789 49.7424 79.7821 49.4021ZM23.0119 59.3457C22.9152 59.249 22.4467 58.9204 22.2476 58.8999L15.0035 58.1549C14.6053 59.2167 15.1675 60.1846 15.9902 60.8065C19.5128 63.4669 23.6297 59.9559 23.0119 59.3457Z" fill="black"/>
<path d="M44.229 46.0758C44.1119 47.827 42.8176 48.6717 41.2892 48.5984L22.2769 47.6862C21.053 47.6275 19.8056 46.9617 19.6914 45.6828C19.5245 43.8085 19.4718 45.0492 19.7851 43.1543C19.9754 42.0075 21.7323 41.4795 22.8596 41.5411L42.2379 42.5912C44.9025 42.7349 44.3959 43.5621 44.229 46.0758Z" fill="black"/>
<path d="M52.1555 41.0777C54.3223 40.2094 56.4803 41.3857 57.1801 43.3891C57.8799 45.3924 56.9517 47.5366 54.9137 48.3345C53.0193 49.0766 50.9052 48.223 50.0589 46.3281C49.2069 44.4215 49.9213 41.9723 52.1525 41.0747L52.1555 41.0777Z" fill="black"/>
<path d="M16.7896 43.1338C16.6402 45.8793 14.4529 47.34 12.0021 46.768C9.81189 46.2577 8.56451 43.7615 9.60692 41.4061C10.3448 39.7342 12.1602 38.9158 13.8644 39.2443C15.5686 39.5728 16.9038 41.057 16.7896 43.1338Z" fill="black"/>
</g>
<defs>
<clipPath id="clip0_877_3712">
<rect width="125" height="71" fill="white"/>
</clipPath>
</defs>
</svg>
