<svg width="97" height="71" viewBox="0 0 97 71" fill="none" xmlns="http://www.w3.org/2000/svg">
<g clip-path="url(#clip0_877_3701)">
<path d="M72.7126 70.8332L65.7657 71L39.2723 70.9821C32.2416 70.9762 25.486 70.7707 18.4703 70.2435C13.4574 69.8682 7.63741 67.8041 5.10555 63.2948C3.21936 59.9351 2.83972 51.9231 8.20536 49.8471C8.54912 49.7131 8.64179 48.7511 8.49233 48.4413C7.86758 47.1278 3.31202 48.5813 0.962498 44.5008C-0.292972 42.3176 -0.391616 39.2886 1.08805 37.153C1.95492 35.9021 3.41664 35.1128 4.67211 34.1657C3.10278 32.5186 2.12829 30.5886 2.30466 28.2743C2.83375 21.3316 6.04416 15.2079 11.3231 10.7134C15.4243 7.21973 19.8573 4.22342 25.0914 2.6657C31.7305 0.688016 38.4203 0.178703 45.3703 0.0208461C56.813 -0.241256 71.9354 1.89726 81.3036 8.81617C87.8022 13.6174 96.3573 26.4634 90.8601 34.1508C92.1485 34.9758 93.4398 35.7383 94.5787 36.6646C97.5978 39.1218 97.8429 43.5209 95.0331 46.2522C92.558 48.6558 88.9201 47.935 89.3655 49.2544C89.9245 50.9194 95.5592 49.4331 94.3366 60.9686C93.9241 64.8734 91.2308 68.2092 87.3089 69.2457C82.5979 70.4937 77.7913 70.7051 72.7156 70.8272L72.7126 70.8332ZM73.6781 30.2014C76.8975 30.1656 79.8718 29.9393 82.9477 29.6861C87.6856 29.2929 84.3676 17.8706 74.3268 12.2384C62.0949 5.37608 43.8936 5.16759 30.4302 8.04476C23.6267 9.49824 17.6782 13.1021 13.5262 18.5169C11.3112 21.406 7.19501 29.9631 12.5009 30.0733L20.4283 30.2401L58.469 30.3622L73.6811 30.2014H73.6781ZM18.3209 41.6922L38.8358 41.4628C35.5208 39.4703 32.0145 37.6326 28.2421 37.3794C23.0289 37.0309 17.9024 37.1381 12.7041 37.1471C10.6774 37.1501 5.74823 38.9699 6.23846 41.1412C6.54934 42.5202 11.3769 42.0019 12.7878 41.9394L18.3179 41.6892L18.3209 41.6922ZM55.2048 42.9967C57.6231 40.34 60.2416 38.4993 63.3534 36.8582L41.9805 36.876C44.07 38.0317 45.9143 39.0711 47.8364 40.3519L52.4906 43.4554C53.2917 43.9885 54.5232 43.7473 55.2048 42.9967ZM89.4851 41.2663C89.7272 40.3429 89.0696 39.5834 88.5883 39.1009C82.4485 34.949 71.9294 36.9982 66.0257 41.7458C73.3224 41.6654 80.09 41.7011 87.1356 42.1896C87.8171 42.2372 89.3267 41.8798 89.4881 41.2663H89.4851ZM83.3423 48.626C82.5382 48.3907 81.7819 48.1464 81.0884 48.0988C73.8216 47.6133 66.7491 47.3452 59.4345 47.2887C55.7877 50.7109 52.1797 50.0943 48.4223 47.2142L30.0296 47.2261L20.9245 47.4823L15.224 47.8307C15.0477 47.8426 14.4797 48.2179 14.5933 48.3222C15.9743 49.5672 21.5582 49.585 23.7971 49.6327L35.5955 49.8739L68.5217 49.8531C70.946 49.8531 81.8267 49.6893 83.3423 48.629V48.626ZM72.4615 64.6053C76.4461 64.5934 80.09 64.1287 83.677 63.1995C86.0296 62.5889 87.8799 60.7959 87.9008 58.4906C87.9128 57.189 86.9921 56.2597 85.6589 56.2567L45.0624 56.2269L12.8028 56.1733C12.193 56.1733 11.1886 56.4742 10.9226 56.8465C10.1394 57.9455 10.6774 61.3618 13.3887 62.4698C17.466 64.1347 24.3531 64.5159 28.9266 64.5666L41.6158 64.7036L72.4585 64.6112L72.4615 64.6053Z" fill="black"/>
<path d="M66.7073 16.2653C66.8059 17.4894 66.2081 18.651 65.3562 19.202C64.4265 19.8066 63.1262 19.7292 62.2713 19.0471C61.4164 18.3651 60.9889 17.0516 61.234 15.9228C61.5628 14.4127 62.6659 13.4179 64.0439 13.4387C65.41 13.4566 66.5668 14.508 66.7073 16.2683V16.2653Z" fill="black"/>
<path d="M45.4689 20.6912C45.5885 22.6332 44.1746 24.0479 42.5186 23.9645C40.8625 23.8811 39.7416 22.3026 39.9658 20.5721C40.1631 19.065 41.1824 17.8855 42.5395 17.814C44.064 17.7336 45.3583 18.8952 45.4659 20.6912H45.4689Z" fill="black"/>
<path d="M50.8914 15.9763C48.9304 16.0032 47.8842 14.3591 48.0456 12.712C48.1981 11.1751 49.4805 9.72461 51.2411 9.94501C52.7805 10.1386 53.6534 11.5653 53.6384 12.9532C53.6235 14.3412 52.658 15.9495 50.8914 15.9763Z" fill="black"/>
<path d="M31.7693 17.683C29.7725 17.5609 28.8967 15.8036 29.1657 14.1744C29.3929 12.7924 30.6783 11.4134 32.3911 11.7202C33.9036 11.9912 34.7048 13.403 34.642 14.7492C34.5732 16.1342 33.6137 17.7962 31.7723 17.683H31.7693Z" fill="black"/>
</g>
<defs>
<clipPath id="clip0_877_3701">
<rect width="97" height="71" fill="white"/>
</clipPath>
</defs>
</svg>
