<svg width="69" height="62" viewBox="0 0 69 62" fill="none" xmlns="http://www.w3.org/2000/svg">
<g clip-path="url(#clip0_862_4180)">
<path d="M49.7311 32.461C49.7277 32.7589 49.7089 33.0518 49.6849 33.3497C49.6593 33.6677 49.779 32.9012 49.6781 33.4183C49.6456 33.5806 49.6199 33.7446 49.584 33.907C49.4506 34.5178 49.2607 35.1187 49.0195 35.6977C49.1513 35.3797 48.8143 36.1128 48.763 36.2115C48.6227 36.481 48.4722 36.7437 48.3131 37.0014C48.1541 37.2592 47.9779 37.5236 47.7949 37.7763C47.5537 38.1127 47.6033 38.0541 47.2612 38.4474C45.3301 40.6616 42.867 42.1845 40.0311 43.0766C36.6324 44.1443 32.8797 44.3317 29.3818 43.6272C26.3817 43.023 23.6928 41.7829 21.6865 39.7411C19.8939 37.9169 18.8642 35.532 18.8437 33.1221C18.8232 30.7121 14.9764 30.6937 14.9952 33.1221C15.0499 39.9503 20.5029 45.1284 26.9239 46.9158C34.5542 49.0395 43.854 47.4647 49.4472 41.6908C51.864 39.1955 53.542 35.9471 53.5762 32.4627C53.5984 30.0393 49.7499 30.0376 49.7277 32.4627L49.7311 32.461Z" fill="black"/>
<path d="M32.3301 23.2588C33.2799 23.2038 34.2657 23.4985 34.7344 24.5264C35.1246 25.382 35.0262 26.352 34.2891 27.0752L34.2881 27.0742C33.3814 27.9644 32.0482 28.4263 30.6982 28.1924V28.2197L30.2881 28.1035C29.3645 27.8439 28.8729 26.9856 28.8008 26.3057V26.3047C28.7208 25.5268 29.0123 24.6738 29.7393 24.166C30.3952 23.7095 31.3855 23.3135 32.3301 23.2588Z" fill="black" stroke="black" stroke-width="0.645455"/>
<path d="M43.4131 23.4429C44.6271 23.5773 45.2061 24.5853 45.2832 25.479V25.48C45.371 26.5087 44.7678 27.3556 43.7412 27.7856L43.7363 27.7915L43.6758 27.8159C42.8499 28.1423 41.8983 28.227 41.1045 27.772C40.7906 27.5918 40.4232 27.2951 40.1689 26.9126C39.9114 26.525 39.7564 26.0241 39.9336 25.4761C40.1581 24.7822 40.7047 24.2389 41.3369 23.8901C41.97 23.541 42.7246 23.3669 43.4131 23.4429Z" fill="black" stroke="black" stroke-width="0.645455"/>
<path d="M17.6516 18.9802C17.6533 18.699 17.6704 18.4195 17.6943 18.1384C17.7097 17.9543 17.7576 17.7233 17.6995 18.053C17.7354 17.8522 17.7679 17.6497 17.8107 17.4489C17.9526 16.7777 18.1493 16.12 18.3854 15.4757C18.4452 15.3117 18.5102 15.1494 18.5735 14.987C18.606 14.905 18.6402 14.823 18.6744 14.741C18.6607 14.7745 18.5684 14.9803 18.659 14.7795C18.8369 14.3879 19.0251 14.0013 19.2286 13.6214C19.6066 12.9118 20.0291 12.2239 20.4875 11.5595C21.3821 10.2642 22.4802 9.03574 23.8075 7.8726C25.075 6.76134 26.5288 5.81242 28.1948 5.05093C31.4276 3.57316 35.2915 3.34388 38.7877 4.44844C41.8939 5.42916 44.8632 7.71361 46.7173 10.1888C47.2613 10.9135 47.759 11.67 48.2037 12.4566C48.4329 12.8616 48.6467 13.2749 48.8468 13.695C48.8965 13.8004 49.0863 14.2239 49.047 14.1301C49.0076 14.0364 49.177 14.4582 49.2163 14.5636C49.4951 15.295 49.726 16.0447 49.8936 16.8095C49.9381 17.0137 49.9689 17.2212 50.0134 17.4254C50.0835 17.7501 49.998 17.156 50.039 17.5995C50.0715 17.9576 50.0972 18.3124 50.1006 18.6722C50.1194 21.0939 53.968 21.1006 53.9491 18.6722C53.9235 15.3067 52.5449 11.9461 50.6702 9.16795C48.4466 5.87099 45.3473 3.06271 41.6133 1.49456C37.4005 -0.274415 32.5941 -0.520432 28.253 0.990816C24.3018 2.3665 20.8741 4.92039 18.3033 8.14707C15.8659 11.2047 13.839 15.0104 13.8048 18.9768C13.7842 21.4002 17.6328 21.4035 17.6533 18.9768L17.6516 18.9802Z" fill="black"/>
<path d="M17.4698 27.7686C17.467 27.6013 17.4698 27.4372 17.4726 27.2699C17.4726 27.2699 17.5165 26.7377 17.484 27.0306C17.4514 27.3234 17.525 26.7979 17.525 26.7979C17.5576 26.6389 17.5902 26.4799 17.6299 26.3243C17.6568 26.2189 17.6879 26.1168 17.7177 26.013C17.8664 25.5093 17.5718 26.3343 17.7758 25.8524C17.9047 25.5478 18.0449 25.2515 18.205 24.9687C18.3905 24.6407 18.6299 24.3009 19.0393 23.8323C19.5294 23.27 19.7731 23.0491 20.2943 22.6374C22.7067 20.7295 25.5355 19.7321 28.3827 19.1212C31.6138 18.4267 34.9568 18.3748 38.2176 18.7948C41.0039 19.153 43.997 19.9429 46.4519 21.327C47.7196 22.0416 48.6843 22.7261 49.5526 23.7938C49.6376 23.8976 49.7198 24.003 49.7991 24.1118C49.8614 24.1972 49.9223 24.2842 49.9818 24.3712C49.8912 24.2323 49.877 24.2156 49.9436 24.3227C50.098 24.5905 50.2311 24.8649 50.3643 25.1478C50.4082 25.2398 50.5088 25.5678 50.3912 25.198C50.445 25.367 50.4932 25.5377 50.5329 25.7118C50.5612 25.8356 50.5782 25.9628 50.6065 26.0867C50.6377 26.3025 50.6363 26.2892 50.6065 26.0448C50.615 26.1486 50.6207 26.2523 50.6235 26.3561C50.666 27.372 51.3247 28.2389 52.2171 28.2389C53.0472 28.2389 53.8546 27.377 53.8107 26.3561C53.6705 23.0324 51.71 20.5722 49.4039 18.9271C46.6388 16.9556 43.3808 15.9129 40.2121 15.3406C36.3775 14.6477 32.526 14.6092 28.6858 15.2703C25.3811 15.8376 21.9998 16.9639 19.1356 19.0459C16.5193 20.9487 14.2118 23.9311 14.2798 27.772C14.3223 30.192 17.5095 30.2003 17.467 27.772L17.4698 27.7686Z" fill="black"/>
<path d="M14.6274 36.4779C11.2505 40.0864 8.60274 44.5735 6.5008 48.9744C2.05704 58.2836 0.352263 68.8934 2.79081 78.9353C4.68265 86.7258 8.72745 93.7585 13.9753 99.8402C15.564 101.681 18.6108 99.3623 17.0116 97.5077C12.5223 92.3057 8.92483 86.4147 6.98224 79.8353C5.52072 74.8862 5.16693 69.5278 5.82119 64.3968C5.97566 63.1867 6.18256 61.9812 6.43939 60.7876C6.56391 60.2064 6.69928 59.6289 6.84718 59.0548C6.91249 58.7993 6.97972 58.5452 7.05034 58.2907C7.13904 57.9661 6.92809 58.711 7.08481 58.1762C7.13305 58.0108 7.18107 57.8438 7.23102 57.6782C7.86015 55.5809 8.63662 53.5259 9.53591 51.5235C10.3294 49.7584 11.2312 48.0529 12.1913 46.3698C12.42 45.9704 11.977 46.7233 12.2122 46.3332C12.2574 46.2595 12.3006 46.1843 12.3458 46.1106C12.4557 45.9284 12.5657 45.7479 12.6772 45.5655C12.9022 45.2021 13.1293 44.8418 13.3617 44.4824C13.761 43.8656 14.1735 43.257 14.5976 42.6571C15.5515 41.3093 16.5515 39.9569 17.6845 38.7452C18.3881 37.9923 18.0972 36.6807 17.3251 36.1069C16.4357 35.446 15.3354 35.7193 14.6286 36.4743L14.6274 36.4779Z" fill="black"/>
<path d="M50.9176 35.5114C51.816 36.5218 52.614 37.6277 53.381 38.7321C54.2211 39.9415 55.0123 41.1854 55.7526 42.4549C55.8489 42.6198 55.9432 42.786 56.0392 42.9524C56.0934 43.046 56.1456 43.1409 56.1997 43.2344C56.4172 43.6139 56.0514 42.9629 56.1875 43.2138C56.4159 43.6323 56.6424 44.0522 56.8616 44.4743C57.3077 45.335 57.7298 46.2054 58.1294 47.0857C59.0113 49.031 59.7793 51.0273 60.4124 53.0644C60.5809 53.6072 60.7401 54.1535 60.8903 54.7017C60.9207 54.8135 60.9514 54.9236 60.9801 55.035C60.9737 55.0103 61.1166 55.5607 61.0511 55.3026C60.9855 55.0444 61.1242 55.5993 61.1179 55.5745C61.1594 55.7457 61.1993 55.9166 61.2391 56.0875C61.507 57.2567 61.73 58.4356 61.9016 59.6214C62.0732 60.8073 62.2082 62.0906 62.2771 63.3326C62.314 63.971 62.3351 64.6102 62.3408 65.2486C62.3436 65.5729 62.3431 65.8967 62.3392 66.2199C62.3393 66.2623 62.3309 66.5915 62.3379 66.3027C62.3319 66.5001 62.3245 66.6956 62.3168 66.8927C62.1948 69.6755 61.7775 72.4409 61.0737 75.1361C60.2678 78.2251 58.8973 81.5159 57.2569 84.4831C55.298 88.026 52.8333 91.2681 50.1036 94.2741C48.4585 96.0842 51.4432 98.484 53.0799 96.6827C57.8661 91.4128 61.843 85.3098 64.0464 78.5496C65.8468 73.0245 66.528 67.2314 65.9897 61.4355C65.1985 52.925 61.9068 44.682 57.162 37.5242C56.2028 36.0768 55.1922 34.6261 54.0312 33.3222C53.3467 32.5534 52.239 32.2568 51.345 32.8867C50.5624 33.438 50.2314 34.7423 50.9188 35.515L50.9176 35.5114Z" fill="black"/>
<path d="M43.0392 15.3297L42.1105 13.3086C41.321 11.5901 39.6029 10.4888 37.7117 10.4888H34.683C32.591 10.4888 30.7357 11.8325 30.0834 13.8202L29.3232 16.1365" stroke="black" stroke-width="3.22727" stroke-linecap="round"/>
<path d="M33.3574 15.8122C34.4332 14.3067 36.1813 10.4888 34.5676 10.4888" stroke="black" stroke-width="2.42045"/>
<path d="M36.585 15.733C37.6607 14.2275 40.2156 10.8921 38.602 10.8921" stroke="black" stroke-width="2.42045"/>
</g>
<defs>
<clipPath id="clip0_862_4180">
<rect width="69" height="62" fill="white"/>
</clipPath>
</defs>
</svg>
