<svg width="65" height="62" viewBox="0 0 65 62" fill="none" xmlns="http://www.w3.org/2000/svg">
<path d="M32.8702 2.77905C31.3908 2.29696 29.8671 1.92788 28.3434 1.61888C25.4332 1.02663 22.4101 0.627511 19.4541 1.08386C18.0804 1.29558 16.7609 1.78196 15.677 2.6689C15.1858 3.07088 14.7674 3.57301 14.4561 4.12806C13.8649 5.17951 13.3365 6.25385 12.6839 7.2724C12.1341 8.1293 11.5744 8.90322 10.8818 9.64568C10.1892 10.3881 9.74367 10.7873 8.99682 11.2121C8.90971 11.2622 8.49845 11.4725 8.60412 11.4238C8.70122 11.3795 8.31138 11.5311 8.20285 11.5626C8.02435 11.617 7.84299 11.657 7.66021 11.6928C7.45315 11.7328 7.71019 11.6856 7.73732 11.6842C7.60452 11.6942 7.47457 11.7028 7.34176 11.7028C7.23323 11.7028 6.74914 11.6656 7.09186 11.7128C6.90051 11.6871 6.71058 11.6399 6.52494 11.5869C6.4564 11.5669 5.95231 11.3995 6.20935 11.4954C5.95517 11.3995 5.71241 11.2765 5.45965 11.1764C4.85989 10.9403 4.21728 10.8202 3.60324 11.0905C2.57079 11.544 2.1681 12.7914 2.75072 13.7714C3.31336 14.7184 4.38579 15.4151 5.24831 16.0474C6.1965 16.7426 7.19039 17.4193 8.25569 17.9214C8.85402 18.2032 9.39238 18.4164 10.0535 18.4693C10.1549 18.4779 10.2592 18.4822 10.362 18.4836C10.7476 18.4893 10.0078 18.4264 10.282 18.4736C10.4263 18.4979 10.5805 18.6295 10.3377 18.4679C10.095 18.3062 10.1706 18.3906 10.2378 18.4307C10.4505 18.5566 9.93074 18.1632 10.0293 18.2633C9.88647 18.1188 9.78794 17.9572 9.71225 17.6939C9.77794 17.9228 9.68226 17.146 9.67655 17.4307C9.67655 17.4894 9.7808 16.8857 9.69797 17.1932C9.64228 17.3978 9.95644 16.7641 9.75224 17.0559C9.70654 17.1203 9.65513 17.199 9.62086 17.2705C9.47235 17.5795 9.86076 17.0144 9.68084 17.2033C9.51947 17.3706 9.37381 17.5523 9.20817 17.7168C9.03252 17.8899 8.84831 18.0559 8.66124 18.2161C8.55985 18.3019 8.45561 18.3835 8.35565 18.4693C8.12717 18.6653 8.39991 18.4364 8.43561 18.4106C8.37135 18.4593 8.30852 18.5079 8.24426 18.5551C7.73589 18.9271 7.21467 19.2775 6.67488 19.6008C6.1351 19.9242 5.6153 20.2045 5.06409 20.4649C4.937 20.525 4.80848 20.5808 4.67996 20.6394C4.39007 20.7739 5.03125 20.5178 4.61855 20.6609C4.36294 20.7496 4.11304 20.8497 3.85314 20.9255C3.63751 20.9885 3.41332 21.02 3.19912 21.0829C2.93636 21.1601 3.65179 21.0815 3.28908 21.07C3.19198 21.0672 3.07774 21.0657 2.98206 21.0772C2.65505 21.1187 3.39475 21.1573 3.14628 21.1044C3.03061 21.08 2.84497 20.9656 3.12629 21.1172C3.40761 21.2689 3.29336 21.1888 3.23482 21.1544C3.04775 21.0457 3.44188 21.3161 3.42189 21.3032C3.22625 21.1802 3.06488 21.0028 2.86925 20.8783C1.85251 20.2303 0.417361 20.5593 0.0646434 21.8354C-0.172406 22.6966 0.283128 23.3346 0.771506 23.9626C1.13565 24.4289 1.51407 24.8839 1.88964 25.3402C2.10241 25.5991 2.31375 25.8581 2.52367 26.1184C2.64219 26.2658 2.76072 26.4131 2.87782 26.5605C2.92351 26.6177 3.29337 27.0941 3.10487 26.848C3.83601 27.8036 4.37579 28.9738 5.2226 29.8235C6.39928 31.0037 7.8944 31.9221 9.5823 32.0509C10.599 32.1281 11.6601 31.7862 12.4669 31.1711C13.2251 30.5932 13.6236 29.6461 13.1009 28.7506C12.6639 28.0024 11.4487 27.5332 10.6847 28.1155C10.5305 28.2328 10.3734 28.3386 10.2063 28.4373C10.0121 28.536 9.99214 28.5461 10.1464 28.4645C10.0678 28.4903 9.98786 28.5117 9.90503 28.5275C9.77508 28.5546 9.79793 28.5518 9.97501 28.5189C9.89646 28.5246 9.8165 28.5246 9.73796 28.5203C9.60658 28.5132 9.63228 28.5203 9.81792 28.5475C9.74081 28.536 9.66513 28.5203 9.58944 28.5003C9.4138 28.4502 9.24101 28.4044 9.07108 28.3372C9.35811 28.4502 9.03966 28.31 8.93827 28.2528C8.68123 28.1112 8.4399 27.9481 8.20285 27.775C8.537 28.0182 8.00578 27.5962 7.8944 27.4903C7.77016 27.373 7.65164 27.25 7.53312 27.127C7.24751 26.8323 7.64878 27.2128 7.62736 27.2371C7.66449 27.1956 7.21895 26.5504 7.19039 26.5075C6.43355 25.3445 5.54961 24.2601 4.67425 23.1872C4.32867 22.7638 3.97881 22.3446 3.63609 21.9198C3.56897 21.8368 3.50328 21.7538 3.43617 21.6723C3.1677 21.339 3.49471 21.7581 3.499 21.7553C3.49043 21.7595 3.37476 21.5721 3.37048 21.575C3.35763 21.555 3.34477 21.5349 3.33192 21.5149C3.1063 21.1044 3.15342 21.5221 3.47329 22.7695L2.2395 24.0055C2.66361 23.8338 0.484477 23.6321 1.03712 23.8982C1.12708 23.9411 1.40126 24.1643 0.924303 23.8052C1.12422 23.9554 1.30701 24.13 1.52835 24.2501C1.98246 24.4976 2.50511 24.6092 3.02062 24.6163C3.86457 24.6264 4.72423 24.3932 5.5082 24.0928C7.48599 23.3331 9.30527 22.2359 10.9446 20.8969C12.237 19.8412 13.9334 18.0373 12.9067 16.2491C12.3541 15.2849 11.2502 14.9773 10.2135 14.9373C9.76366 14.9201 10.6933 15.1247 10.2192 14.9301C10.1506 14.9015 10.0693 14.8715 9.99785 14.8529C9.6994 14.7742 10.3049 15.036 10.1307 14.9087C9.80222 14.6698 9.36239 14.5181 9.00967 14.3093C8.17143 13.8114 7.36889 13.2535 6.59349 12.6627C7.01189 12.9817 6.44355 12.5368 6.34501 12.4538C6.21507 12.3437 6.08512 12.2321 5.96088 12.1148C5.87234 12.0304 5.77952 11.8945 5.67814 11.8287C5.46251 11.6914 5.93946 12.2207 5.82522 12.0218C5.73811 11.8745 5.78095 11.9832 5.95374 12.348C5.41681 13.0547 4.87988 13.7599 4.34295 14.4666C3.41189 14.5811 4.27441 14.3264 4.26013 14.4895C4.26013 14.4938 4.51003 14.5839 4.52431 14.5896C4.06734 14.428 4.40435 14.541 4.51288 14.5882C5.31257 14.9344 6.07512 15.1619 6.94763 15.2277C8.39135 15.3378 9.87219 14.8586 11.0817 14.0875C14.1077 12.1606 15.8056 8.94614 17.5092 5.91338C17.562 5.81896 17.632 5.72884 17.6791 5.63299C17.839 5.31541 17.4021 5.88477 17.6662 5.65016C17.7905 5.54001 18.0004 5.37406 18.0932 5.23816C18.2032 5.07651 17.7391 5.43987 18.0418 5.28537C18.1389 5.2353 18.2303 5.16377 18.326 5.10798C18.4217 5.05219 18.5259 5.00069 18.6273 4.94919C18.8472 4.83618 18.8729 4.86193 18.633 4.94061C19.0885 4.7904 19.5341 4.64735 20.0067 4.55865C20.1138 4.53863 20.2224 4.52289 20.3295 4.50286C20.7722 4.42132 19.9353 4.52289 20.3909 4.49714C20.6665 4.4814 20.9407 4.44707 21.2163 4.4342C22.4815 4.37411 23.7396 4.47425 24.9962 4.61588C25.4889 4.67167 24.6206 4.55722 25.109 4.63018C25.3004 4.65879 25.4931 4.68597 25.6845 4.71601C25.9658 4.76036 26.2471 4.809 26.5284 4.85907C27.1025 4.9635 27.6737 5.07937 28.2421 5.20669C29.483 5.48279 30.7254 5.79608 31.9349 6.18948C32.8417 6.48417 33.8627 5.84471 34.1069 4.95348C34.3696 3.99502 33.7841 3.07375 32.8731 2.77762L32.8702 2.77905Z" fill="black"/>
<path d="M32.4246 38.0092C28.4976 38.8175 24.2736 39.0993 20.4965 37.8161C19.6996 37.5457 19.167 37.314 18.3088 36.7789C18.1388 36.6731 17.9746 36.5629 17.8104 36.4499C17.8218 36.4585 17.4734 36.2039 17.6419 36.3312C17.8104 36.4585 17.4734 36.1938 17.4834 36.2024C17.1492 35.9206 16.8308 35.6231 16.5352 35.2998C16.4024 35.1538 16.2739 35.0036 16.1511 34.8506C15.9911 34.6531 16.3453 35.1309 16.1025 34.7833C16.0511 34.7104 15.9997 34.6388 15.9497 34.5659C15.6955 34.1925 15.4699 33.8005 15.2714 33.3957C15.0729 32.9909 15.0743 33.0009 14.8916 32.4415C14.7359 31.9666 14.6131 31.4816 14.5203 30.9909C14.4274 30.5003 14.3818 30.0969 14.3503 29.4531C14.3189 28.8094 14.3289 28.1442 14.3718 27.4904C14.4674 26.0284 14.753 24.595 15.1172 23.1773C15.5941 21.3219 12.7296 20.5294 12.2526 22.3862C11.0231 27.1742 10.7032 32.7005 13.9262 36.799C16.5566 40.1436 20.8892 41.4025 24.9761 41.6185C27.735 41.7644 30.5139 41.4339 33.2143 40.8775C34.0011 40.7158 34.4538 39.7845 34.2525 39.0464C34.0283 38.2281 33.2143 37.8447 32.4246 38.0064V38.0092Z" fill="black" stroke="black" stroke-width="0.403409"/>
<path d="M32.2607 7.03627C32.5363 6.91038 32.8162 6.79308 33.0947 6.67148C33.3731 6.54989 32.6506 6.85459 32.9447 6.73586C33.0204 6.70582 33.0947 6.67291 33.1703 6.64144C33.3074 6.58422 33.4459 6.52843 33.5845 6.47264C34.0086 6.30097 34.4341 6.1336 34.8611 5.97195C36.9503 5.17942 39.0851 4.47988 41.2686 3.99922C41.7798 3.88621 42.2939 3.78607 42.8108 3.70453C42.9479 3.68307 43.0864 3.66161 43.2249 3.64302C42.7551 3.70882 43.2178 3.64588 43.3006 3.63729C43.6105 3.60725 43.9189 3.57721 44.2288 3.56004C44.7258 3.53429 45.2256 3.53286 45.7211 3.57292C45.8382 3.58293 45.9539 3.59724 46.0695 3.60725C45.5469 3.55718 45.9324 3.58722 46.0467 3.61297C46.258 3.66018 46.4665 3.70167 46.6736 3.76461C46.7721 3.79465 46.8678 3.83614 46.9663 3.86332C47.3105 3.9606 46.6136 3.65446 46.912 3.84329C47.0706 3.94343 47.2448 4.045 47.4076 4.13655C46.912 3.85903 47.4047 4.20236 47.5389 4.29534C47.796 4.4713 47.349 3.95058 47.4947 4.2324C47.5532 4.34541 47.6289 4.45127 47.6903 4.56429C48.5814 6.21371 49.3097 7.95468 50.1608 9.62699C51.5174 12.2921 53.4038 15.827 56.7539 16.1145C57.375 16.1675 58.0348 16.0788 58.6231 15.8756C58.8687 15.7912 59.1058 15.6825 59.3428 15.5766C59.7384 15.4007 58.9858 15.6768 59.3428 15.5766C59.6213 15.498 60.0711 15.4779 59.3928 15.4937C58.9316 15.5037 57.4579 13.9658 57.9691 13.0131C57.8406 13.252 58.0262 12.7427 58.1333 12.81C58.1333 12.81 57.8648 13.0903 57.8434 13.1118C57.7335 13.2162 57.6207 13.3164 57.505 13.4151C57.3893 13.5138 56.7667 14.0045 57.1794 13.6897C56.3412 14.3292 55.4687 14.9315 54.5547 15.4579C54.3905 15.5523 54.2234 15.6453 54.0549 15.7326C53.9021 15.8112 53.2695 16.0373 53.8536 15.847C53.7194 15.8899 53.5437 15.93 53.4195 15.9915C53.1781 16.1131 53.9093 15.9772 53.6651 15.96C53.5351 15.9514 53.3966 15.9729 53.2667 15.9843C52.1171 16.0945 50.9633 16.6009 50.6391 17.8226C50.3478 18.9184 50.9147 19.9198 51.5916 20.7295C52.9754 22.386 55.0403 23.6649 56.9795 24.5705C58.0591 25.0755 59.1629 25.5146 60.3596 25.6219C60.8237 25.6634 61.2949 25.6262 61.7419 25.4903C62.1889 25.3544 62.4188 25.1742 62.7672 24.8966C63.0585 24.6649 62.4245 25.1084 62.6844 24.961C63.267 24.6306 61.8019 25.1427 61.532 25.034L60.2982 23.798C60.3853 24.0126 60.6637 21.9082 60.2939 22.7537C60.2425 22.8724 60.5995 22.3732 60.3653 22.6621C60.2996 22.7422 60.2368 22.8238 60.1711 22.9039C59.8169 23.3431 59.4542 23.7765 59.0972 24.2143C58.2219 25.2886 57.3379 26.3715 56.5811 27.5346C56.4625 27.7163 56.2226 27.9966 56.1727 28.2112C56.1512 28.3013 56.5311 27.8536 56.2369 28.154C56.117 28.277 55.9999 28.4001 55.8756 28.5174C55.7728 28.6146 55.2259 29.0524 55.5672 28.802C55.3301 28.9751 55.0888 29.1396 54.8318 29.2798C54.7289 29.3356 54.4119 29.4773 54.699 29.3642C54.5547 29.4215 54.4062 29.4701 54.2563 29.5087C54.1063 29.5474 53.8093 29.5445 54.1106 29.5445C53.9892 29.5445 53.6365 29.5187 53.9464 29.5702C53.8379 29.5502 53.7308 29.5245 53.6251 29.4916C53.7522 29.5588 53.7593 29.5631 53.6451 29.5044C53.4423 29.41 53.2638 29.277 53.0867 29.1425C52.327 28.5631 51.1104 29.0238 50.6706 29.7777C50.1393 30.6861 50.542 31.6174 51.3046 32.1982C53.0296 33.5128 55.3373 33.2196 57.0595 32.0651C58.199 31.3012 58.8659 30.5101 59.5913 29.3828C59.7941 29.0667 60.0111 28.7591 60.2325 28.4558C60.3424 28.3042 60.4553 28.1554 60.5681 28.0052C60.7737 27.7306 60.6352 27.918 60.5895 27.9752C60.6737 27.8679 60.758 27.7606 60.8422 27.6533C61.3278 27.0382 61.8261 26.4359 62.3231 25.8308C62.6958 25.3773 63.1385 24.9167 63.4369 24.4117C64.0453 23.3831 63.7411 21.9697 62.4602 21.6193C61.9375 21.4762 61.432 21.5992 60.9736 21.8582C60.9051 21.8968 60.8437 21.9526 60.7794 21.9998C60.6309 22.1085 60.4952 22.2244 60.3496 22.3331C60.3724 22.3159 60.7223 22.0813 60.5109 22.1986C60.4296 22.243 61.0022 22.037 60.6852 22.1185C60.341 22.2072 61.025 22.14 60.8237 22.1042C60.7466 22.0899 60.638 22.1014 60.5595 22.1042C60.114 22.1114 60.7494 22.1657 60.5695 22.1128C60.0754 21.9669 59.587 21.8381 59.0972 21.6693C58.8245 21.5749 59.4214 21.8253 58.9801 21.6193C58.8516 21.5592 58.7231 21.502 58.5946 21.4404C58.2933 21.296 57.9962 21.1415 57.7035 20.9798C57.1466 20.6722 56.6025 20.3375 56.0784 19.977C55.8257 19.8039 55.5786 19.6222 55.3344 19.4391C55.6057 19.6422 55.423 19.5078 55.2802 19.389C55.1516 19.2832 55.0245 19.1759 54.9017 19.0643C54.7247 18.9055 54.5519 18.7424 54.3891 18.5708C54.3048 18.4821 54.2277 18.3877 54.1435 18.299C53.8693 18.0086 54.2663 18.5364 54.1692 18.3319C54.0492 18.0815 53.9178 17.7253 54.0806 18.2503C53.9907 17.9599 54.0921 18.3748 54.0935 18.4849C54.0906 18.2746 54.0092 18.8369 53.9864 18.8941C53.955 18.9742 53.7051 19.329 53.7579 19.276C53.7022 19.3304 53.3638 19.648 53.2795 19.5636C53.2881 19.5722 53.5137 19.4992 53.5266 19.4963C53.6779 19.4734 53.2652 19.5221 53.2667 19.5264C53.2667 19.5292 53.4823 19.5092 53.5066 19.5078C54.2177 19.4591 54.7332 19.3075 55.3801 19.0128C56.4954 18.505 57.5336 17.8011 58.5189 17.0773C59.3714 16.4521 60.5067 15.734 61.0322 14.7698C61.6062 13.7184 61.1236 12.345 59.9269 12.0246C59.1443 11.8143 58.4289 12.1576 57.7278 12.4509C57.3979 12.5882 57.832 12.4538 57.5336 12.5167C57.4022 12.5453 56.871 12.5968 57.2922 12.5925C57.2023 12.5925 56.7467 12.5882 56.9852 12.6097C57.1951 12.6283 56.6782 12.521 56.5697 12.4881C56.8924 12.5868 56.5854 12.4881 56.4326 12.3994C56.3312 12.3393 55.997 12.0961 56.2526 12.3007C55.9171 12.0332 55.6186 11.7185 55.3416 11.3909C55.2673 11.3022 55.1916 11.212 55.1217 11.1205C55.1716 11.1863 55.2759 11.3351 55.0731 11.0432C54.946 10.8616 54.8218 10.6799 54.7004 10.4939C54.4048 10.039 54.1306 9.5712 53.8693 9.09769C53.3266 8.11633 52.8326 7.1078 52.3456 6.09783C51.813 4.99345 51.316 3.86332 50.7362 2.78326C50.4564 2.26254 50.0765 1.79332 49.6195 1.41851C48.47 0.475785 47.0548 0.128162 45.5969 0.0294542C42.7123 -0.1651 39.7135 0.636006 36.986 1.49433C34.8768 2.15811 32.8076 2.95492 30.7856 3.84615C30.6813 3.89193 30.5771 3.93771 30.4743 3.98492C29.6075 4.38261 29.3933 5.64006 29.8402 6.4054C30.3615 7.29806 31.3853 7.43969 32.2564 7.04056L32.2607 7.03627Z" fill="black"/>
<path d="M22.6393 29.7565C21.6469 30.3044 20.5102 30.4432 19.4777 30.1285C18.7694 29.9125 18.1354 28.9383 18.5809 28.2602C19.3963 27.017 21.1114 26.7195 22.4323 27.2416C22.9135 27.4319 23.2505 27.9254 23.3019 28.3503C23.3591 28.8267 23.1491 29.4761 22.6393 29.7565Z" fill="black" stroke="black" stroke-width="0.403409"/>
<path d="M31.5401 29.5579C30.8475 29.8941 29.9636 30.0758 29.2024 29.8898C28.2214 29.6509 27.7816 28.1831 28.4827 27.4435C29.1382 26.7512 30.2663 26.5709 31.1417 26.7283C31.8243 26.8513 32.2712 27.4135 32.3655 27.9113C32.4969 28.6051 32.247 29.2146 31.5387 29.5579H31.5401Z" fill="black" stroke="black" stroke-width="0.403409"/>
<path d="M18.095 10.4544C16.9026 11.6403 15.9572 13.1881 15.4232 14.7775C14.9919 16.0621 14.8976 17.5027 15.2646 18.8145C15.7587 20.5812 16.984 21.8887 18.4191 22.9573C19.116 23.4766 20.2127 23.0718 20.6168 22.3794C21.0952 21.5597 20.7382 20.6971 20.0399 20.1778C19.0546 19.4439 18.4677 18.6156 18.2692 17.5627C18.2477 17.4469 18.2492 17.3453 18.2635 17.5198C18.2535 17.3896 18.2477 17.2609 18.2463 17.1307C18.2449 17.0005 18.252 16.8747 18.2577 16.7459C18.2706 16.4398 18.2335 16.8246 18.2635 16.6443C18.3049 16.3969 18.3606 16.1537 18.4305 15.9133C18.4648 15.7946 18.5019 15.6773 18.5433 15.5614C18.5562 15.5256 18.6947 15.1594 18.619 15.3454C18.5833 15.4327 18.7747 15.0107 18.8347 14.8933C18.9375 14.6931 19.0474 14.4971 19.1631 14.304C19.3673 13.9649 19.5944 13.6445 19.8271 13.3255C19.5986 13.6388 19.82 13.3398 19.9242 13.2139C19.9999 13.1238 20.0756 13.0365 20.1541 12.9492C20.2227 12.8734 20.2912 12.799 20.3626 12.7275C21.832 11.2655 19.5601 8.98948 18.0907 10.4515L18.095 10.4544Z" fill="black"/>
<path d="M39.1737 13.7884C39.2451 13.8599 39.3136 13.9357 39.3822 14.0101C39.4607 14.0974 39.5364 14.1846 39.6121 14.2748C39.6935 14.372 39.9848 14.7626 39.7092 14.3863C39.9291 14.6882 40.1447 14.99 40.3404 15.309C40.4575 15.4993 40.5674 15.6939 40.6702 15.8913C40.7245 15.9943 40.7759 16.0987 40.8259 16.2031C40.843 16.2375 40.993 16.5894 40.9173 16.4034C40.8844 16.3204 41.0444 16.7696 41.0844 16.8998C41.1572 17.1387 41.2143 17.3819 41.26 17.628C41.3471 18.0915 41.2543 17.4563 41.2714 17.7267C41.28 17.854 41.2886 17.9813 41.29 18.1101C41.2914 18.2388 41.2843 18.369 41.2786 18.4977C41.2657 18.771 41.36 18.1387 41.2671 18.6193C41.0658 19.6693 40.4803 20.5019 39.4964 21.2344C38.801 21.7522 38.4483 22.6277 38.9195 23.436C39.3208 24.1226 40.4175 24.5346 41.1172 24.0139C42.5324 22.9596 43.7347 21.6807 44.2488 19.9497C44.6444 18.6193 44.553 17.1401 44.1132 15.8326C43.5777 14.2433 42.6352 12.6954 41.4414 11.5095C39.9719 10.0489 37.6986 12.3235 39.1694 13.7855L39.1737 13.7884Z" fill="black"/>
<path d="M27.5889 12.9277C27.7417 13.2024 27.866 13.4913 28.0002 13.776C28.0688 13.9334 28.0602 13.9119 27.9759 13.7131C28.0088 13.7918 28.0402 13.8719 28.0716 13.952C28.1387 14.1279 28.2058 14.3025 28.2687 14.4798C28.4015 14.8575 28.5214 15.2409 28.6228 15.63C29.0726 17.3424 29.1926 19.1577 28.243 20.7557C27.1834 22.5395 29.9594 24.1604 31.0176 22.3808C33.0097 19.0276 32.1728 14.57 30.3636 11.304C29.3597 9.49296 26.5836 11.1138 27.5889 12.9291V12.9277Z" fill="black"/>
<path d="M40.8523 41.4523C40.988 41.5338 41.1179 41.6225 41.2493 41.7112C41.4007 41.8142 41.5492 41.9201 41.6977 42.0288C41.7948 42.0989 41.8905 42.1718 41.9862 42.2434C42.276 42.4579 41.7205 42.0273 42.059 42.3006C43.2642 43.2705 44.3852 44.3362 45.4048 45.5007C45.7218 45.8641 46.0288 46.236 46.3259 46.6151C46.3701 46.6723 46.2202 46.4706 46.3873 46.6967C46.4601 46.7954 46.5343 46.8941 46.6072 46.9942C46.7685 47.2145 46.9256 47.4377 47.0798 47.6637C47.7282 48.6122 48.3108 49.6064 48.822 50.6364C48.9605 50.9153 49.0933 51.1986 49.2219 51.4833C49.4018 51.8838 49.3532 51.7722 49.5017 52.1485C49.7359 52.7436 49.9473 53.3473 50.1329 53.9595C50.5128 55.2098 50.8426 56.7291 50.9697 57.8506C51.401 61.6602 50.9369 65.4425 49.8745 69.1133C49.3404 70.9601 52.2121 71.7498 52.7462 69.9058C54.624 63.4197 54.6383 56.5617 51.9408 50.3131C50.3071 46.5293 47.6967 43.1045 44.5223 40.4824C43.834 39.9144 43.1228 39.3408 42.356 38.8787C40.7095 37.8859 39.2115 40.4652 40.8537 41.4551L40.8523 41.4523Z" fill="black" stroke="black" stroke-width="0.645455"/>
<path d="M19.3222 39.7373C18.3783 42.647 17.6114 45.6297 16.9688 48.6195C16.4205 51.1674 15.9764 53.7481 15.7565 56.3459C15.5694 58.5576 15.5137 60.9194 16.1349 63.0738C16.7975 65.3712 18.3983 67.0951 20.8716 67.2352C21.7384 67.2839 22.4781 66.4613 22.4781 65.6259C22.4781 64.7132 21.7412 64.0652 20.8716 64.0165C20.7845 64.0122 20.6988 64.0036 20.6117 63.9965C20.8587 64.0194 20.9058 64.0594 20.6716 63.9908C20.596 63.9693 20.5174 63.9479 20.4403 63.9278C20.1804 63.8635 20.3261 63.8334 20.4974 63.9665C20.3846 63.8792 20.1976 63.7934 20.0676 63.7261C19.832 63.606 20.179 63.842 20.1519 63.7962C20.1062 63.719 19.9919 63.6546 19.9291 63.5888C19.8748 63.5344 19.8277 63.4715 19.7734 63.4171C19.5778 63.2269 19.8477 63.5545 19.8306 63.4929C19.7877 63.337 19.6092 63.1525 19.5307 63.0023C19.4907 62.9264 19.4564 62.8478 19.4164 62.7719C19.2565 62.4715 19.4993 63.0523 19.4236 62.7891C19.3679 62.596 19.2893 62.41 19.2336 62.2155C19.1066 61.7763 19.028 61.3285 18.9538 60.8779C19.0294 61.3385 18.938 60.7034 18.9238 60.5432C18.8995 60.2756 18.8838 60.0081 18.8724 59.7392C18.8267 58.6291 18.8724 57.5161 18.9638 56.4089C19.0123 55.8266 19.0737 55.2458 19.1465 54.665C19.1537 54.6035 19.2051 54.2158 19.1794 54.4032C19.1537 54.5906 19.2194 54.1257 19.2265 54.0714C19.2693 53.7752 19.315 53.4777 19.3636 53.1816C19.5564 51.9828 19.7849 50.7897 20.039 49.6023C20.4717 47.5753 20.9758 45.5639 21.5342 43.5683C21.8141 42.5712 22.1011 41.5741 22.421 40.5885C22.6894 39.7616 22.1082 38.8317 21.2985 38.6086C20.4275 38.3683 19.5921 38.9033 19.3222 39.733V39.7373Z" fill="black" stroke="black" stroke-width="0.645455"/>
</svg>
