<svg width="72" height="62" viewBox="0 0 72 62" fill="none" xmlns="http://www.w3.org/2000/svg">
<g clip-path="url(#clip0_862_4210)">
<path d="M-92.2332 45.9931C-92.0508 45.9415 -91.7574 45.9455 -91.46 45.6121C-79.2631 45.9415 -67.5777 40.1181 -59.2785 31.1507C-56.8558 28.5307 -53.7511 27.7725 -50.2181 28.6657C-52.054 26.4546 -52.7439 24.3309 -52.7915 21.6514C-52.9223 14.8117 -51.7843 7.97602 -49.5718 1.53331C-48.8977 -0.435626 -47.1887 -1.04298 -45.3766 -0.443566C-41.7048 0.76717 -37.6881 1.0252 -34.3296 3.23628C-31.6134 5.02261 -35.5231 18.2891 -37.1369 21.9372C-38.9133 25.9545 -41.9546 28.5228 -46.2608 30.0075C-42.942 31.4008 -41.1735 33.3578 -41.2726 36.5653C-41.3717 39.7727 -43.0094 42.2935 -45.4202 44.4728C-43.4019 46.3703 -41.225 48.8314 -42.9777 51.1576C-44.2703 52.8725 -53.9136 50.7924 -56.2412 49.1569C-61.5149 56.9215 -73.4025 62.4989 -81.9396 65.8294L-81.3567 81.6086L-73.1845 81.1918C-70.1154 76.7617 -64.5641 75.9718 -60.476 79.2983C-59.9487 79.727 -59.1873 80.5289 -58.4895 80.4336L-53.4378 79.7509H-42.8904C-42.7913 76.9086 -42.9261 74.241 -42.6049 71.4861C-42.0934 67.1433 -38.1758 67.4609 -38.0608 62.1892L-37.8467 52.4795C-37.7833 49.6214 -35.6777 47.8152 -32.8109 47.9859C-30.5944 48.1169 -28.9488 49.5341 -28.7506 51.8325L-27.8822 61.9868C-27.3548 68.1635 -22.8147 67.6435 -22.2992 73.9433L-21.8749 79.0959C-18.6433 79.2824 -15.713 79.2348 -12.636 79.0562C-11.1372 78.9688 -11.9778 75.0945 -8.68273 75.9083C-4.84047 76.861 -4.72945 72.5936 0.457017 72.4785C2.45547 72.4348 4.13671 73.7329 5.08835 75.4359C6.71012 78.3297 8.68875 72.9946 14.807 79.3539C15.838 80.4257 18.3638 79.4134 19.6406 79.7032C20.2692 62.94 20.4574 62.2885 21.2267 48.7759C17.3051 46.922 13.4787 45.1436 11.6706 41.1224C9.44212 36.1683 11.4366 30.6545 15.5683 27.0977C12.3922 25.7322 6.24617 23.7156 7.24937 19.7737C8.12171 16.344 20.5922 17.1856 23.8833 17.2451C27.9358 9.9648 36.3776 3.85157 44.8671 6.42389C52.2622 8.66276 53.3526 18.8409 51.7665 25.4424C56.0489 28.1497 57.6509 27.1374 62.2108 31.3968C64.1419 33.199 64.5543 36.2398 62.7343 38.2047C61.3345 39.7172 59.3083 40.0387 57.2147 40.1181C58.6144 43.6511 60.1529 45.6676 59.2013 49.7087C63.0475 53.0313 65.5377 57.0327 68.0199 61.8359C72.5481 61.8677 76.886 62.7331 80.8194 64.6385C94.4993 71.2678 88.8648 86.5389 88.6864 94.4544C88.5436 100.71 89.4239 107.177 85.6332 112.746C84.9274 113.782 83.3413 114.08 82.0923 114.811L82.0328 155.071C82.0328 157.722 80.6767 159.902 78.4562 160.751C76.3547 161.553 73.3332 161.303 71.9731 159.35C70.6131 157.397 70.5893 155.051 70.4822 152.725L68.9398 119.697L57.0759 123.73L56.7706 133.357C60.1807 132.678 63.0633 131.169 66.0808 129.629C66.6558 129.335 67.7621 129.077 68.1507 129.752C70.3553 133.607 58.8246 136.675 56.4891 137.898C56.3146 145.409 56.2868 152.478 55.7396 159.699C55.6603 160.763 54.0267 160.815 53.4002 160.592C52.6746 160.334 52.2106 159.35 52.2543 158.25L53.4795 124.989L40.4301 128.617L40.1604 146.699C42.5673 146.663 45.0019 147.108 46.5761 148.973C49.0107 151.859 48.3485 156.162 45.5491 158.564C44.0027 159.886 42.2104 160.525 40.0613 160.711C39.3912 166.884 41.9804 177.729 32.9517 177.324C29.7677 177.181 27.567 175.355 27.4996 172.076L27.2974 162.502C22.6065 164.201 11.3454 164.947 8.99803 158.969C4.64425 160.537 -9.34097 159.798 -10.2292 154.467C-11.161 148.862 -2.45344 144.984 2.2572 143.975C3.09386 140.351 3.23661 136.878 3.58158 133.257C3.68071 132.233 3.91862 131.289 4.72752 131.05C5.33419 130.872 6.96389 130.816 7.05508 131.828C7.41195 135.742 6.55942 139.533 5.96861 143.527C10.0924 143.634 13.5263 144.73 16.8769 146.623C17.6858 147.08 19.4265 145.655 19.4582 144.761C19.597 140.895 19.2322 136.913 19.7595 133.15C19.9102 132.075 20.7746 131.265 21.647 131.336C22.5193 131.408 23.237 132.388 23.1973 133.46L22.7731 144.273C24.1411 144.285 25.2632 143.983 26.6471 143.761L26.2823 129.224L8.38739 129.236L-16.2047 128.875L-67.8275 128.53L-65.6823 143.694C-61.3959 144.817 -56.1103 146.532 -53.9295 150.795C-52.9739 152.661 -53.2792 154.67 -54.8653 156.031C-57.2563 158.084 -60.5315 158.941 -63.5966 158.393C-64.2905 159.453 -65.0598 160.374 -66.2811 160.799C-74.1678 163.55 -87.0111 162.617 -89.406 153.499L-95.2507 131.233C-95.56 130.05 -95.0088 129.252 -93.9779 129.054C-92.9469 128.855 -92.2055 129.395 -91.8843 130.558L-87.4115 146.699C-83.5058 145.607 -79.6279 145.091 -75.6627 145.718C-73.7951 146.016 -72.3478 147.096 -70.7102 147.874C-67.4706 149.418 -65.0558 152.058 -63.3706 155.039C-61.5109 155.341 -58.7274 154.741 -57.6211 153.34C-56.8281 152.336 -58.2912 150.986 -59.0486 150.422C-64.2985 146.524 -68.7078 148.687 -69.1479 145.54L-71.5389 128.434L-90.2427 128.109L-108.038 127.644C-107.424 134.373 -106.179 140.978 -104.91 147.973C-99.6402 148.568 -95.1952 151.299 -92.1182 155.253C-90.3378 158.23 -91.2974 161.081 -93.9739 162.855C-96.9121 164.8 -100.366 164.098 -103.415 164.963C-106.912 167.924 -110.39 168.54 -115.14 168.111C-115.493 170.163 -115.517 171.938 -116.798 173.398C-118.53 175.371 -121.79 175.919 -124.137 174.752C-127.44 173.117 -126.679 167.718 -127.396 164.975C-130.826 165.713 -133.745 164.57 -135.303 161.779C-136.627 159.413 -135.85 157.099 -135.989 154.638C-136.128 152.177 -138.13 139.228 -138.896 138.47C-139.106 138.263 -139.768 138.736 -139.78 139.299C-139.907 146.067 -139.597 152.641 -139.431 159.441L-139.225 167.928C-139.201 168.889 -140.569 169.02 -141.116 168.956C-141.663 168.893 -142.742 168.611 -142.801 167.642C-143.396 158.012 -143.523 148.548 -143.555 138.807C-147.111 138.823 -150.169 138.676 -153.908 138.307C-154.261 145.091 -153.932 151.744 -153.4 158.532C-153.305 159.731 -154.066 160.624 -154.982 160.656C-156.029 160.692 -156.862 160.247 -157.001 158.989C-157.373 155.583 -157.54 152.359 -157.583 148.886L-168.04 148.013C-168.793 153.681 -169.003 158.909 -169.348 164.284C-169.435 165.65 -170.042 166.634 -171.259 166.614C-172.477 166.594 -173.179 165.626 -173.119 164.177C-172.719 154.713 -171.553 145.496 -169.828 136.191C-170.899 135.536 -171.815 135.342 -172.762 134.901C-177.552 132.67 -176.89 127.716 -175.375 123.377C-178.551 120.039 -180.586 116.216 -182.152 111.913C-186.212 100.762 -187.961 84.955 -181.969 74.3323C-179.043 69.14 -173.924 65.7976 -167.861 65.4324C-167.282 65.3967 -165.74 66.3931 -165.375 65.623L-159.99 54.25C-160.006 52.3247 -162.187 50.7765 -163.392 49.5539C-165.022 47.8986 -166.184 45.3659 -164.923 43.4526C-164.043 42.1188 -164.102 41.3963 -164.495 39.9395C-165.55 36.0135 -164.217 32.1153 -162.06 28.6062C-164.427 27.4312 -165.427 25.4503 -165.086 22.9812C-164.4 18.0112 -157.381 12.3982 -151.671 15.6017C-149.744 16.6814 -148.491 18.428 -147.365 20.3652C-140.946 19.8214 -135.073 22.2309 -130.481 26.3991C-127.531 29.0786 -124.51 32.1947 -125.759 36.5931C-121.956 42.9127 -119.652 48.1804 -122.777 55.5123C-123.285 56.7032 -124.228 57.4177 -125.065 58.5094C-118.729 63.6421 -113.788 70.0848 -110.921 77.9407C-108.514 76.8372 -106.647 75.9241 -104.042 75.3406C-102.555 66.6154 -106.088 69.6005 -105.79 65.4324C-105.659 63.6183 -106.25 57.5567 -103.53 57.9814C-100.683 58.4221 -103.272 62.7132 -102.356 64.7258C-101.401 63.5707 -101.674 58.6245 -99.9098 58.4816C-97.6615 58.299 -98.3515 63.0308 -98.0819 64.7338C-96.2063 62.2885 -98.6449 59.9107 -96.8923 58.5808C-94.3506 56.6556 -92.8676 63.7215 -95.4212 67.7467C-96.5235 69.4814 -98.0739 70.2674 -100.14 70.3071C-99.9931 71.9585 -100.52 73.7607 -99.9693 75.2255C-99.1763 75.6224 -97.7171 75.4875 -97.1223 76.1187C-94.7075 78.6672 -97.6457 82.2398 -97.2254 85.5068C-96.4442 85.8561 -95.6115 85.4671 -94.8463 85.1496C-91.6701 83.8277 -88.609 82.6924 -85.1276 82.0969C-85.0522 79.084 -85.421 76.3449 -85.4408 73.3796L-85.4924 65.8333C-85.5043 64.2693 -84.5804 63.0903 -83.2521 62.4909L-73.9934 58.299C-69.9846 56.4849 -61.1818 50.9949 -59.3539 46.9895C-61.7211 45.4136 -63.1763 43.2501 -64.8615 41.0073C-72.8752 46.3703 -82.2053 49.6174 -91.7931 49.1292C-93.0064 49.0656 -92.6813 46.7593 -92.2054 45.9812L-92.2332 45.9931ZM-37.7198 10.9532C-37.2202 8.95254 -36.9664 7.44012 -37.2361 5.7689L-46.4987 3.28788C-47.272 6.41198 -48.0452 9.1669 -48.41 12.4895L-37.7198 10.9532ZM45.7712 29.8328L53.1782 30.0551C51.9648 29.2135 50.5413 29.158 49.1257 28.6062C46.5245 27.5979 49.6808 23.3107 48.4873 16.2686C47.726 11.7988 44.1851 9.07957 39.7124 9.65517C35.8185 10.1553 32.46 11.8901 29.9858 14.9705L25.1245 21.0282C20.4138 21.0758 16.179 20.7106 11.4009 21.2703C16.5834 23.787 21.8571 25.1844 27.3846 26.6611C33.4156 28.2727 39.2802 29.6502 45.7751 29.8248L45.7712 29.8328ZM-46.927 26.1728C-42.3234 25.5059 -39.0561 18.3487 -38.5723 14.5894L-48.977 16.3678C-49.1713 17.8763 -49.9088 26.6015 -46.927 26.1688V26.1728ZM-150.918 21.0043C-152.123 19.9047 -153.4 18.7536 -155.038 18.5233C-158.416 18.0509 -161.553 21.1195 -161.497 24.4023C-161.485 25.0811 -160.89 25.6329 -160.518 25.756C-160.097 25.8949 -153.769 21.3735 -150.918 21.0043ZM-150.22 34.1875L-142.662 31.2658C-140.014 29.801 -137.381 28.8086 -134.494 27.5066C-141.294 23.1003 -149.986 22.8065 -156.279 27.5264C-159.84 30.198 -161.751 34.5249 -160.986 38.8637C-157.361 36.7796 -153.92 35.6165 -150.22 34.1875ZM51.8062 38.7009C51.4295 38.2087 51.5286 37.3394 51.7665 36.9464C52.3375 36.0016 56.6992 37.9626 60.2282 35.7634C59.5145 33.7945 57.5954 33.4809 55.815 33.5563C48.2573 33.8818 40.9059 33.4372 33.4791 32.0201C28.8041 31.1269 24.5653 29.2572 19.6842 28.7213C16.9165 29.6581 14.4224 33.7984 14.4264 36.8273C14.4303 39.8561 16.5358 42.3054 19.137 43.6669C27.1031 47.8311 36.4252 46.1837 43.3683 40.5548C44.4032 39.7172 46.4492 39.09 47.0004 40.5389C47.5515 41.9878 45.9456 42.9643 45.1328 44.0004C47.0955 46.4497 52.6032 50.5582 55.3114 48.8155C57.6905 47.2872 53.2218 40.5468 51.8062 38.693V38.7009ZM-131.699 30.3647C-132.389 29.9003 -134.343 30.6743 -133.963 31.5119C-133.221 33.1435 -132.202 34.5011 -131.215 35.9023C-130.858 36.4105 -129.803 35.7277 -129.446 35.422C-128.146 34.3224 -130.311 31.2976 -131.699 30.3647ZM-53.3704 37.8673C-54.7344 38.3635 -55.2777 39.5862 -56.4395 39.0225C-57.4704 38.5223 -57.4427 37.0218 -57.1492 36.1326C-56.4474 33.993 -53.989 36.5415 -53.0254 32.2066C-56.0152 31.2261 -58.9891 37.0535 -61.9471 39.1614L-56.3602 44.969C-53.1484 40.6183 -55.7931 42.5396 -53.3664 37.8713L-53.3704 37.8673ZM-134.276 37.0615C-135.596 35.7594 -136.037 34.2589 -136.877 32.7346C-138.067 33.3221 -138.911 33.6992 -140.137 33.8302L-137.809 38.8478C-136.413 38.5263 -135.283 38.2563 -134.272 37.0654L-134.276 37.0615ZM-49.0166 43.0239C-46.9428 41.6543 -43.2433 36.7161 -45.5669 34.3899C-46.1776 33.7786 -47.9183 33.2467 -48.9215 33.6278L-50.9992 42.0037C-50.7692 42.4165 -49.4964 43.3414 -49.0206 43.0278L-49.0166 43.0239ZM-140.743 39.8998L-142.865 35.0806C-143.574 35.4379 -144.808 35.8468 -144.812 36.5176C-144.823 38.1928 -144.03 39.5504 -143.666 41.2852C-142.639 40.9914 -141.659 40.9239 -140.739 39.8958L-140.743 39.8998ZM-148.816 43.659C-147.754 43.397 -147.484 42.8929 -147.008 42.3451C-147.298 40.6143 -147.631 39.0106 -148.321 37.3949C-149.106 37.7006 -150.359 38.165 -150.284 38.8359C-150.093 40.523 -149.332 41.9441 -148.82 43.659H-148.816ZM-151.092 57.9814C-144.74 61.7288 -137.147 62.1813 -130.87 58.565C-126.655 56.1355 -124.323 51.626 -125.128 46.8307C-125.632 43.8337 -126.806 41.1145 -128.586 38.7525L-142.892 44.8856L-151.39 49.0775C-153.075 49.9112 -154.994 49.9985 -156.671 51.0782C-156.041 54.2619 -153.84 56.3578 -151.092 57.9814ZM-152.694 45.0881C-152.659 43 -152.988 41.4916 -153.404 39.6973C-154.364 39.8005 -156.108 40.0069 -156.43 40.8842C-156.168 42.6388 -155.498 44.6117 -154.923 46.1678C-154.384 46.4695 -152.702 45.7867 -152.694 45.0881ZM-158.559 47.3508C-158.265 45.9177 -158.987 43.9488 -159.669 42.9365C-160.91 42.7738 -161.406 44.6077 -161.426 45.6359C-161.446 46.6124 -161.148 47.2118 -160.538 47.6048C-160.097 47.8867 -158.765 48.3789 -158.555 47.3508H-158.559ZM-46.5067 48.0534C-49.0087 46.1162 -51.9548 45.362 -55.0516 46.2274C-52.3831 47.2634 -49.7779 48.367 -46.5067 48.0534ZM54.9228 80.3026C55.2916 82.4661 53.7531 83.5895 52.1353 83.8872C48.0948 84.6335 44.2366 84.8637 40.1009 85.3202C40.3944 87.1066 41.7148 88.0633 43.063 89.0398C46.0646 91.2151 48.3644 94.0058 50.3153 97.3085C55.8388 96.4749 61.0649 95.415 66.184 93.6684C69.1618 92.6521 71.1999 90.5324 71.4418 87.2257C72.1159 78.0399 66.1245 64.9561 60.9182 57.2113C55.9379 49.804 55.6048 54.6112 51.1321 52.7614C47.6546 51.3244 44.6768 49.1847 42.3492 45.9455C39.1136 48.7759 29.1596 50.1652 25.5487 49.7802L24.0102 65.6984L23.0031 80.2947C33.9668 81.3506 41.0923 89.8893 52.1353 87.7775C46.7204 66.7318 52.5303 68.1598 55.9062 87.9203L54.9228 80.3026ZM-34.1432 54.5477C-32.454 54.3373 -31.9227 53.9919 -32.1329 53.067C-32.2875 52.3922 -32.6404 51.7372 -33.6396 52.0111C-34.393 52.6542 -34.8252 53.8609 -34.1432 54.5477ZM-146.481 93.1206C-146.069 95.0816 -145.046 96.1534 -142.92 96.201C-137.377 96.328 -131.909 95.816 -126.342 94.8275C-117.297 93.2217 -115.247 89.6051 -115.239 89.532C-114.448 82.4544 -116.492 70.6423 -127.63 60.9904C-137.27 66.9647 -149.3 65.5317 -157.611 57.5765C-160.423 62.61 -162.147 67.4768 -163.948 72.6651C-167.056 82.994 -167.901 98.2454 -163.527 108.225C-160.518 115.092 -152.516 114.755 -146.14 113.437L-133.824 110.893L-133.967 99.7022C-139.248 99.8412 -148.475 101.985 -149.835 94.9585C-151.037 88.7421 -151.196 82.4383 -150.077 76.2377C-149.887 75.1858 -148.634 74.634 -147.912 74.7333C-145.03 75.1302 -148.503 83.4664 -146.481 93.1166V93.1206ZM-32.9695 91.6796C-33.2273 88.091 -33.148 84.562 -32.8506 80.9497C-32.569 77.5557 -28.013 79.6278 -25.63 79.0363C-25.7727 76.333 -25.4198 73.1017 -27.2834 71.0891C-31.9386 66.0596 -30.8481 64.7258 -32.006 58.1878C-37.2043 57.2907 -31.3398 64.3527 -37.6445 69.7792C-38.6358 70.6326 -39.175 72.026 -39.179 73.3955C-39.2107 81.3863 -39.0957 89.1112 -38.6754 97.0465C-38.608 98.3168 -37.5493 99.3569 -36.2329 99.4085C-32.7475 99.5474 -29.044 99.6149 -25.7767 98.3605C-24.9083 97.1418 -25.0629 94.7402 -25.4753 93.5533C-28.0567 93.4818 -32.7118 95.28 -32.9695 91.6836V91.6796ZM84.5864 93.72C86.1764 85.9911 88.9362 74.7729 81.2755 69.3981C77.8733 67.0123 73.9676 65.9683 69.7566 65.5753C72.7067 70.9343 77.0089 84.959 74.5069 90.711L84.5824 93.72H84.5864ZM-163.496 122.015C-165.062 118.558 -166.113 115.7 -165.335 112.179C-172.354 101.651 -170.926 81.2474 -166.902 69.2472C-172.144 68.9932 -176.858 72.149 -179.198 76.8491C-184.253 87.0034 -182.326 102.255 -178.052 112.484C-174.983 119.832 -172.31 123.067 -163.492 122.019L-163.496 122.015ZM1.90828 79.3777C2.80838 78.6394 1.55536 76.2893 0.353911 76.2258C-1.24406 76.1425 -3.11958 77.5517 -2.62393 79.2388C-1.2599 79.207 0.66319 80.0922 1.90429 79.3777H1.90828ZM-104.002 82.4978C-104.43 81.565 -103.966 80.2312 -103.022 80.2907C-101.912 80.3582 -100.941 80.9616 -99.8821 80.7155C-99.5014 80.6242 -99.5529 79.8541 -99.7195 79.6318C-101.421 77.3611 -108.324 81.0013 -110.766 81.958C-109.557 84.7764 -109.081 87.6782 -108.804 90.7189C-106.266 90.2466 -103.887 89.5558 -101.67 88.222C-101.278 87.1344 -101.099 86.0784 -100.873 84.828C-102.047 84.2524 -103.336 83.9388 -103.994 82.5018L-104.002 82.4978ZM11.8966 86.2809C11.1749 89.2938 6.11533 86.5746 4.20808 85.7132C3.98999 87.0272 3.67674 88.1943 2.7013 88.5952C1.90033 88.9247 0.409429 89.2105 -0.09415 88.361C-1.10131 86.6699 2.38012 84.5938 0.837662 83.6689C0.0842768 83.2163 -1.62472 82.8114 -2.50895 83.2044C-3.44474 83.6173 -7.13235 87.0351 -8.13951 85.7132C-9.0634 84.4985 -6.34725 81.8825 -5.78815 79.9732C-7.48129 80.3304 -8.67085 81.3824 -10.023 82.3867L-14.0913 85.4155C-14.8605 85.9871 -15.1143 86.92 -14.9755 87.7775C-14.464 90.9571 6.34927 95.5063 18.9863 89.6154C23.4353 87.5432 14.5533 84.9431 12.6936 82.9226C10.941 81.0211 8.94647 78.9014 6.07964 79.9454C5.38177 80.1994 5.31832 82.1207 6.17877 82.3311C8.08999 82.7956 12.4398 83.9984 11.8966 86.2769V86.2809ZM-62.6212 82.5971C-64.6316 80.7314 -68.2954 79.9493 -70.044 82.9147C-68.7752 84.4112 -62.7838 84.697 -62.6212 82.5971ZM-25.2652 89.9052L-25.4436 82.9027C-26.7561 82.6328 -27.9734 82.74 -29.3414 82.8353C-29.6031 85.2567 -29.6467 87.4639 -29.4722 89.9012C-28.0646 90.2347 -26.768 90.1632 -25.2652 89.9012V89.9052ZM-52.7994 113.497L-2.72306 113.528C12.4557 113.536 27.2696 113.596 42.2858 111.611C50.6602 110.504 58.1624 106.84 66.2672 104.859L85.1019 98.0111C81.1367 96.7409 77.0367 95.0458 72.8772 94.4702C65.387 99.2219 60.0974 98.7455 52.9164 100.929C51.2828 101.425 49.7165 100.949 48.3684 100.699C42.1351 102.969 41.6355 105.879 35.5648 103.382C33.9866 102.735 32.2975 102.608 32.1587 100.214C31.9882 97.3522 28.9707 99.3211 27.4837 96.848C26.8889 95.8596 26.6986 94.4464 27.1229 93.3429C29.3355 87.5472 36.1476 86.9518 34.8828 85.4909C34.6012 85.1654 24.2283 84.566 21.528 83.7919C23.1894 85.2091 23.923 86.8406 23.7683 88.7063C23.6137 90.5721 22.3528 92.152 20.4574 93.0491C13.4192 96.3836 5.48884 96.9314 -2.31861 96.0144C-6.9896 95.4666 -11.3196 94.5695 -15.3918 92.4378C-17.3863 91.3938 -18.5085 89.925 -18.6155 87.8449C-18.7226 85.7648 -18.112 84.2921 -16.0025 82.8075C-18.0882 82.4423 -19.7654 82.8353 -21.7837 82.8313L-21.3119 96.3876C-21.2088 99.3648 -22.7036 101.719 -25.6379 102.378C-30.6261 103.497 -42.0458 105.315 -42.3908 97.5944C-42.601 92.9142 -42.827 88.4602 -42.7675 83.6927C-47.1332 83.4585 -51.138 83.2402 -55.5394 83.788C-52.3038 85.0225 -49.2506 86.5469 -47.3116 89.4804C-46.0626 91.37 -46.9587 93.8788 -48.5567 95.3515C-49.9048 96.59 -51.5781 97.4475 -53.3942 98.0667C-64.1795 101.751 -77.5541 103.195 -88.2482 98.7455C-91.4679 97.4038 -93.0381 93.7081 -91.1031 90.7944C-89.5012 88.3808 -86.8961 87.4599 -84.628 85.749C-88.8033 86.5508 -92.3958 88.234 -96.2975 89.532C-101.405 91.235 -102.055 94.367 -110.084 94.4663C-111.92 94.4901 -113.598 96.0859 -115.239 96.7647C-113.53 98.4756 -112.095 101.012 -113.284 103.12C-115.239 106.582 -118.534 108.717 -121.623 111.039L-89.4933 112.675L-68.8862 113.215L-52.7954 113.505L-52.7994 113.497ZM-57.522 90.4569C-59.8575 93.4262 -64.013 85.7013 -66.3168 88.4126C-65.0201 89.6749 -63.4063 91.9972 -64.8615 93.5016C-65.488 94.1487 -66.3524 94.1368 -67.0979 93.8113C-69.4651 92.7831 -70.1828 90.453 -70.1749 88.095C-70.8648 87.0431 -72.4945 85.4632 -73.7435 85.1376C-76.9038 84.312 -79.5406 86.4278 -81.8999 88.0791L-87.2886 91.8503C-87.9349 92.3028 -88.4306 93.0372 -88.268 93.7795C-88.153 94.2916 -87.6415 95.0577 -86.8326 95.3396C-79.0727 98.0469 -70.8093 98.2176 -62.7124 96.59C-60.254 96.0978 -50.8168 94.367 -50.6225 91.8026C-50.4639 89.7146 -56.0945 87.3249 -58.2476 85.7926C-58.7749 85.4155 -59.1754 84.5898 -59.7544 85.0821C-62.415 87.3567 -55.8804 88.3729 -57.522 90.4609V90.4569ZM39.1096 96.8163C39.8273 97.9397 37.9478 99.7538 38.6854 100.564C41.4967 100.079 43.6379 99.2378 46.1994 97.765C43.8719 94.7561 41.4452 91.6756 37.9677 89.8178C36.3935 88.9763 31.3141 92.1956 31.0762 93.3349C32.5036 93.4818 33.598 92.5529 34.6369 93.1325C36.6076 94.2281 32.4957 97.9159 34.8788 98.1541C35.8859 98.2533 38.0351 95.1292 39.1136 96.8203L39.1096 96.8163ZM-119.898 105.216C-121.131 104.025 -123.059 103.247 -121.932 101.762C-120.743 100.19 -117.127 102.596 -116.579 101.667C-115.612 100.032 -119.684 98.0072 -121.155 98.027C-124.28 98.0667 -127.087 98.8964 -130.271 99.1107L-130.172 110.432C-127.96 110.011 -126.338 109.92 -124.601 109.265C-125.081 108.483 -125.43 107.915 -125.454 107.34C-125.584 104.212 -121.96 108.209 -119.898 105.216ZM80.3516 111.675C84.1463 110.357 84.4238 105.935 84.9234 102.294L78.5395 104.454C66.5884 108.495 54.9228 112.576 42.5237 115.7C41.7941 118.606 40.9773 121.408 40.8345 124.703C45.1804 123.695 49.0861 122.539 53.2337 121.099L80.3516 111.679V111.675ZM37.0676 125.14C37.4126 121.853 38.047 119.161 38.7647 116.152C20.5209 117.359 2.56648 117.915 -15.7686 117.839L-47.498 117.712L-81.9237 116.879L-93.4505 116.533L-101.381 116.152L-130.263 114.235C-131.485 114.156 -133.38 114.354 -134.141 115.14C-134.451 117.546 -134.205 120.503 -132.983 122.547C-132.385 123.417 -130.493 123.488 -129.466 123.512L-100.576 124.127L-72.7998 124.401L-36.8832 124.758L-3.50818 125.06C10.1003 125.183 23.2212 125.568 37.0676 125.148V125.14ZM-128.574 152.121L-129.363 140.804C-129.68 136.262 -129.538 131.785 -130.184 127.323C-132.896 127.053 -135.628 126.35 -136.719 123.901C-137.809 121.452 -137.845 118.629 -138.289 115.672C-145.184 116.859 -155.815 120.086 -161.886 115.553C-161.267 118.939 -159.816 121.948 -157.096 123.996C-148.289 130.63 -137.468 124.143 -135.66 134.369L-132.472 152.391C-130.953 152.363 -130.01 152.514 -128.57 152.121H-128.574ZM74.3919 155.797C74.5703 157.19 75.6488 157.96 76.5846 157.714C77.223 157.548 78.3055 156.754 78.3095 155.694L78.4602 116.359L72.4569 118.443L73.4601 140.78C73.6861 145.833 73.7376 150.688 74.3879 155.797H74.3919ZM-139.649 135.31C-139.348 133.357 -140.751 131.892 -142.591 131.745L-150.985 130.649C-154.939 130.133 -158.392 128.319 -160.863 125.489C-164.721 126.723 -168.381 126.223 -172.092 125.1C-172.861 126.481 -173.349 128.264 -172.814 129.859C-171.926 132.499 -164.578 133.456 -161.953 133.702C-154.514 134.397 -147.353 135.342 -139.653 135.31H-139.649ZM-119.058 168.75L-119.581 147.167L-119.997 127.502L-126.425 127.271C-126.04 140.458 -124.803 153.157 -123.57 166.15C-123.392 168.02 -123.455 169.941 -122.444 171.386C-121.905 172.156 -120.382 171.703 -119.882 171.279C-119.383 170.854 -119.034 169.901 -119.062 168.754L-119.058 168.75ZM-108.788 148.128L-111.885 127.672C-113.673 127.839 -115.096 127.418 -116.496 127.938L-115.822 150.811C-113.871 149.076 -111.536 148.537 -108.784 148.128H-108.788ZM35.9732 170.616C36.4173 163.705 36.3697 157.147 36.4768 150.339L36.8099 128.931L30.077 129.165L30.4894 141.618L30.8819 159.461C30.985 164.062 30.7431 168.623 31.7106 173.053C31.9525 174.168 34.0302 173.799 34.6528 173.343C35.307 172.858 35.8899 171.902 35.9732 170.616ZM-157.576 145.278L-157.425 138.243L-166.315 136.866L-167.651 144.492L-157.576 145.278ZM9.63244 154.388L13.895 149.406C6.80131 145.448 -0.383619 147.262 -6.01815 152.141C-10.027 155.614 6.95991 157.508 9.63244 154.388ZM27.1863 158.83L26.9088 147.56C22.2893 146.826 13.4787 153.332 12.531 157.286C11.845 160.152 24.2878 160.533 27.1863 158.83ZM-67.4746 155.293C-71.9632 149.545 -79.3265 147.604 -86.3132 150.271C-86.3885 153.562 -84.3742 156.345 -80.9681 157.397C-75.9522 158.949 -64.7783 158.75 -67.4746 155.293ZM44.5301 153.634C44.7244 151.208 41.9765 149.739 40.1089 150.478L40.097 157.099C42.139 156.873 44.3477 155.9 44.5301 153.634ZM-95.2467 159.326C-94.8938 158.095 -94.9771 157.377 -95.5203 156.778C-99.4498 152.463 -105.56 150.041 -111.591 152.518L-103.252 160.418C-101.317 162.248 -97.2888 160.052 -95.2428 159.326H-95.2467ZM-107.467 161.664C-109.525 158.675 -112.031 156.218 -115.62 154.92C-115.743 158.357 -115.644 161.204 -115.374 164.348C-114.105 164.995 -105.366 164.713 -107.467 161.664ZM-127.702 161.648C-127.864 159.429 -127.841 157.806 -128.277 155.92C-129.803 155.813 -131.056 155.769 -132.492 155.9C-132.825 157.591 -132.853 159.521 -131.592 160.727C-130.612 161.664 -129.026 161.787 -127.702 161.644V161.648Z" fill="black"/>
<path d="M36.6397 38.8398C35.232 39.1177 32.155 38.1968 32.1868 36.339C32.1987 35.7197 32.5159 34.7987 33.3565 34.636C35.1289 34.2906 36.8538 34.8623 38.198 35.9579C38.7729 37.1686 38.1623 38.5381 36.6397 38.8398Z" fill="black"/>
<path d="M26.2588 33.7108C26.9051 34.6794 26.2865 35.5924 25.8226 35.9378C24.637 36.823 21.7504 36.4221 21.0287 34.7985C20.7234 34.1157 20.7472 32.9566 21.7623 32.4326C23.1025 31.7458 25.3428 32.3413 26.2548 33.7068L26.2588 33.7108Z" fill="black"/>
</g>
<defs>
<clipPath id="clip0_862_4210">
<rect width="72" height="62" rx="16.1364" fill="white"/>
</clipPath>
</defs>
</svg>
