<svg width="59" height="62" viewBox="0 0 59 62" fill="none" xmlns="http://www.w3.org/2000/svg">
<g clip-path="url(#clip0_862_4238)">
<path d="M46.8677 28.5503C46.8621 30.1345 46.7528 31.4324 46.3029 32.9244C46.216 33.2134 46.1137 33.4969 46.0071 33.7791C45.9006 34.0612 45.9973 33.8218 45.9076 34.0117C45.8319 34.1713 45.7548 34.3296 45.6721 34.4838C45.5292 34.7494 45.375 35.0096 45.2054 35.26C45.1227 35.3839 45.0358 35.505 44.9461 35.6234C44.8522 35.7487 44.9517 35.6179 44.9685 35.5973C44.9027 35.6798 44.834 35.7597 44.7639 35.8395C43.9019 36.8236 43.2039 37.3149 41.9761 37.904C41.4141 38.1738 40.9333 38.3472 40.2017 38.5606C39.47 38.7739 38.6907 38.9446 37.9227 39.0712C34.4537 39.6479 30.6329 39.5254 27.0854 39.1276C23.6655 38.745 20.1279 37.9687 17.0709 36.3887C15.6988 35.6798 14.5691 34.9173 13.5347 33.8149C12.6349 32.8569 11.9817 31.7008 11.6621 30.3974C10.9655 27.5635 11.8878 24.1556 13.4856 21.5859C17.2672 15.5038 25.1008 12.7745 32.0906 13.7806C38.9038 14.7619 45.354 19.3727 46.6687 26.2642C46.8089 27.0019 46.8635 27.7672 46.8691 28.5503C46.8803 30.3052 49.6583 30.3093 49.6471 28.5503C49.5966 20.4835 43.3595 14.0352 35.7558 11.7945C27.8017 9.45058 18.3072 11.5509 12.8241 17.8753C10.2956 20.7918 8.74961 24.4295 8.67672 28.2805C8.61085 31.7669 10.2465 34.8981 13.0161 37.0424C16.0239 39.3726 19.7803 40.6168 23.5029 41.3257C27.555 42.0964 31.7808 42.3648 35.8973 42.0372C39.2121 41.7744 42.6517 41.0931 45.3358 39.0464C47.8699 37.114 49.0851 34.2209 49.4817 31.1626C49.5938 30.2955 49.6415 29.4243 49.6457 28.5503C49.6527 26.7941 46.8747 26.7927 46.8677 28.5503Z" fill="black" stroke="black" stroke-width="0.645455"/>
<path d="M9.116 19.7828C9.16283 12.3198 14.9135 6.27454 21.9458 4.07627C29.4776 1.72253 38.3268 3.41433 43.8855 9.11628C46.7078 12.0119 48.3671 15.7927 48.3921 19.7813C48.4046 21.7394 51.4922 21.744 51.4797 19.7813C51.4235 10.9312 44.7581 3.79764 36.4864 1.17142C27.8619 -1.56564 17.5922 0.520252 11.2998 7.1089C8.01394 10.5495 6.05802 15.0399 6.02836 19.7843C6.01587 21.744 9.10351 21.7471 9.116 19.7843V19.7828Z" fill="black" stroke="black" stroke-width="0.645455"/>
<path d="M0.554688 21.8237C0.832005 19.1601 3.35415 17.2395 6.02832 17.6499H6.0293C8.41337 18.0165 9.99124 20.0733 10.0361 22.3657C10.0908 25.171 10.0361 27.9923 10.0361 30.7866C10.0361 31.7375 10.0597 32.7189 10.0361 33.687C9.97352 36.2492 8.00067 38.2369 5.43945 38.3882C5.41348 38.3909 5.38704 38.3907 5.36035 38.3921L5.29199 38.396C5.28914 38.3961 5.28605 38.3949 5.2832 38.395L5.28027 38.396C5.26298 38.396 5.24575 38.3942 5.22852 38.394C5.1961 38.3937 5.16422 38.3944 5.13281 38.3921C2.50485 38.313 0.570592 36.1316 0.526367 33.6138C0.502894 32.2928 0.526365 30.9614 0.526367 29.6519V24.6685C0.526359 23.7732 0.455635 22.7706 0.554688 21.8237ZM7.33203 22.3481C7.30318 20.9607 5.97968 19.8998 4.62598 20.3618C4.09062 20.5448 3.75128 20.8675 3.53906 21.2681C3.32224 21.6773 3.23047 22.1843 3.23047 22.7339V30.5103C3.23047 30.7548 3.22097 31.0258 3.21094 31.3062C3.20084 31.5885 3.19054 31.8825 3.18652 32.1821C3.17847 32.7832 3.19805 33.3888 3.30371 33.9282C3.40975 34.4694 3.59673 34.914 3.89648 35.2212C4.18606 35.5178 4.61284 35.7177 5.27441 35.7192C6.2249 35.6884 7.05398 35.0805 7.27344 34.1812L7.31348 33.9556C7.33984 33.7283 7.33203 33.4897 7.33203 33.2104V29.2788C7.33204 26.9588 7.38033 24.6546 7.33203 22.3481Z" fill="black" stroke="black" stroke-width="0.645455"/>
<path d="M26.3192 27.4119C25.2343 28.0015 23.9917 28.1508 22.8631 27.8121C22.0889 27.5797 21.3958 26.5314 21.8828 25.8017C22.7742 24.4639 24.6489 24.1437 26.0928 24.7056C26.6189 24.9104 26.9873 25.4415 27.0435 25.8987C27.1059 26.4113 26.8765 27.1102 26.3192 27.4119Z" fill="black" stroke="black" stroke-width="0.645455"/>
<path d="M36.0491 27.1981C35.2921 27.5599 34.3258 27.7554 33.4938 27.5553C32.4214 27.2982 31.9406 25.7188 32.7071 24.9229C33.4236 24.1778 34.6567 23.9839 35.6136 24.1532C36.3598 24.2856 36.8484 24.8906 36.9514 25.4263C37.095 26.1729 36.8218 26.8287 36.0476 27.1981H36.0491Z" fill="black" stroke="black" stroke-width="0.645455"/>
<path d="M9.49206 21.2868C9.49206 20.2598 8.64781 19.4272 7.60638 19.4272C6.56495 19.4272 5.7207 20.2598 5.7207 21.2868V34.6935C5.7207 35.7205 6.56495 36.5531 7.60638 36.5531C8.64781 36.5531 9.49206 35.7205 9.49206 34.6935V21.2868Z" fill="black"/>
<path d="M7.6065 37.2985C9.28456 37.2985 10.2477 35.893 10.2477 34.3767C10.2477 33.216 10.2477 32.0553 10.2477 30.8945C10.2477 27.8973 10.2477 24.9016 10.2477 21.9044C10.2477 20.5744 9.86057 19.252 8.40104 18.8025C6.59498 18.2468 4.99028 19.6646 4.9653 21.4288C4.92472 24.1212 4.9653 26.8182 4.9653 29.5122C4.9653 31.0208 4.9653 32.5294 4.9653 34.038C4.9653 34.3551 4.94969 34.6769 4.99028 34.9924C5.15731 36.3333 6.27654 37.2246 7.6065 37.2969C8.57743 37.3493 8.57587 35.8591 7.6065 35.8068C6.40922 35.7421 6.47634 34.6615 6.47634 33.8102C6.47634 32.6726 6.47634 31.5349 6.47634 30.3958C6.47634 27.7234 6.47634 25.0525 6.47634 22.3801C6.47634 21.6812 6.31556 20.7422 7.0383 20.3235C7.82036 19.8709 8.67109 20.4712 8.73666 21.2948C8.75227 21.4842 8.73666 21.6812 8.73666 21.8706C8.73666 24.3921 8.73666 26.9152 8.73666 29.4367C8.73666 30.8237 8.73666 32.2107 8.73666 33.5977C8.73666 34.4506 8.88963 35.8068 7.6065 35.8068C6.634 35.8068 6.63244 37.2969 7.6065 37.2969V37.2985Z" fill="black"/>
<path d="M47.6113 21.2539C48.3474 18.7174 50.9769 17.1463 53.582 17.623C56.0614 18.0778 57.7381 20.2665 57.793 22.6768L57.8105 23.6963C57.8405 26.0754 57.793 28.464 57.793 30.8281C57.793 31.7329 57.8526 32.7247 57.7764 33.6709C57.5634 36.3114 55.3244 38.4503 52.6045 38.4512V38.4521H52.6025V38.4512C52.5997 38.4511 52.5966 38.4522 52.5938 38.4521C49.7123 38.372 47.469 36.1425 47.4141 33.291C47.389 32.0251 47.4141 30.7493 47.4141 29.4961V24.5225C47.4141 24.0381 47.388 23.4504 47.3975 22.917C47.4072 22.3649 47.4539 21.7954 47.6113 21.2539ZM54.9775 22.6816C54.9485 21.2117 53.6005 20.0546 52.1211 20.3594L52.1221 20.3604C50.8997 20.6129 50.2352 21.6728 50.2295 22.8984C50.2186 25.3837 50.2295 27.8673 50.2295 30.3555C50.2295 31.306 50.2217 32.2462 50.2295 33.1914C50.2406 34.5549 51.212 35.6249 52.6084 35.666C54.0502 35.6638 54.9718 34.4784 54.9775 33.082C54.9822 31.8635 54.9775 30.6448 54.9775 29.4238C54.9775 27.7305 55.0022 26.0468 54.9961 24.3643L54.9775 22.6816Z" fill="black" stroke="black" stroke-width="0.645455"/>
<path d="M50.1101 19.4272H50.1085C48.9516 19.4272 48.0137 20.3522 48.0137 21.4931V34.4872C48.0137 35.6282 48.9516 36.5531 50.1085 36.5531H50.1101C51.267 36.5531 52.2049 35.6282 52.2049 34.4872V21.4931C52.2049 20.3522 51.267 19.4272 50.1101 19.4272Z" fill="black"/>
<path d="M50.1097 35.8081C48.8766 35.8081 48.7704 34.6828 48.7704 33.7776C48.7704 32.6739 48.7704 31.5686 48.7704 30.4648C48.7704 27.834 48.7704 25.2032 48.7704 22.5723C48.7704 21.7918 48.6237 20.8574 49.4089 20.3725C50.3174 19.8106 51.3851 20.5018 51.4506 21.4932C51.46 21.6379 51.4506 21.7872 51.4506 21.9319C51.4506 24.3842 51.4506 26.8349 51.4506 29.2872C51.4506 30.6465 51.4506 32.0042 51.4506 33.3635C51.4506 34.3857 51.5615 35.7358 50.1113 35.8096C49.1435 35.8589 49.1373 37.3491 50.1113 37.2998C51.9064 37.209 52.9617 35.8574 52.9617 34.1625C52.9617 33.0249 52.9617 31.8872 52.9617 30.7512C52.9617 27.8325 52.9617 24.9153 52.9617 21.9966C52.9617 20.5218 52.3435 19.1133 50.7326 18.7531C48.8563 18.3343 47.2906 19.8306 47.2594 21.6271C47.2141 24.3042 47.2594 26.9858 47.2594 29.6644C47.2594 31.1052 47.2594 32.5477 47.2594 33.9885C47.2594 34.4319 47.25 34.8691 47.3811 35.3001C47.7339 36.467 48.8781 37.3013 50.1097 37.3013C51.0822 37.3013 51.0838 35.8112 50.1097 35.8112V35.8081Z" fill="black"/>
<path d="M18.0946 39.8595C15.903 41.6945 14.047 44.0297 12.4142 46.3419C8.79112 51.4743 6.42466 57.4195 5.75031 63.6479C5.26172 68.1707 5.78309 72.7719 7.06467 77.1331C7.64692 79.1127 10.7892 78.2707 10.2038 76.2802C8.18234 69.4006 8.43053 62.3255 11.0171 55.6676C11.487 54.4577 12.0614 53.2308 12.7514 51.95C13.3711 50.8016 14.0501 49.6855 14.7822 48.6033C15.1178 48.1061 15.4659 47.6181 15.8249 47.1363C15.9795 46.9284 16.1387 46.7206 16.2964 46.5159C16.4868 46.268 16.159 46.6868 16.351 46.4466C16.4525 46.3204 16.5524 46.1941 16.6554 46.0694C17.2205 45.3767 17.8074 44.704 18.4193 44.0528C19.0312 43.4017 19.6915 42.7213 20.3955 42.1317C21.0995 41.5421 20.9809 40.4399 20.3955 39.8626C19.7305 39.2068 18.7659 39.3007 18.0946 39.8626V39.8595Z" fill="black" stroke="black" stroke-width="0.645455"/>
<path d="M35.8382 42.1301C36.4002 42.5997 36.92 43.1231 37.4289 43.648C38.0065 44.2437 38.5622 44.858 39.0976 45.4907C39.2599 45.6815 39.4207 45.8755 39.5784 46.0695C39.6549 46.1634 39.7298 46.2573 39.8063 46.3512C39.8453 46.3989 39.8828 46.4482 39.9218 46.4959C40.0654 46.676 39.7563 46.2804 39.8999 46.4666C40.2387 46.9023 40.5696 47.3456 40.8896 47.7936C44.2863 52.5504 46.6075 57.9044 47.2288 63.6495C47.6893 67.9151 47.2397 72.167 46.0315 76.2803C45.4477 78.2676 48.5869 79.1174 49.1707 77.1331C51.317 69.8286 51.1375 62.0223 48.3902 54.8964C46.5435 50.1058 43.7556 45.6908 40.2434 41.9146C39.5799 41.2003 38.8931 40.4876 38.1423 39.8595C37.4726 39.2992 36.4985 39.2114 35.8414 39.8595C35.2591 40.4337 35.1686 41.5667 35.8414 42.1286L35.8382 42.1301Z" fill="black" stroke="black" stroke-width="0.645455"/>
</g>
<defs>
<clipPath id="clip0_862_4238">
<rect width="59" height="62" fill="white"/>
</clipPath>
</defs>
</svg>
