<svg width="50" height="62" viewBox="0 0 50 62" fill="none" xmlns="http://www.w3.org/2000/svg">
<path d="M40.2431 38.9338C40.2339 41.1505 40.0541 42.9698 39.2256 45.0879C39.3563 44.7536 39.1564 45.2373 39.1088 45.3359C39.0243 45.5099 38.9366 45.684 38.8429 45.8535C38.6262 46.2494 38.3818 46.6268 38.1159 46.9903C37.9868 47.1674 38.1697 46.9194 38.182 46.904C38.1174 46.9811 38.0544 47.0627 37.9868 47.1382C37.853 47.2876 37.7208 47.437 37.581 47.5803C37.3043 47.8622 37.0092 48.1225 36.7033 48.3721C36.9954 48.1333 36.7033 48.3674 36.565 48.4645C36.4267 48.5615 36.2822 48.657 36.1377 48.7479C35.8057 48.9574 35.4614 49.1484 35.1094 49.3241C34.9311 49.4134 34.7513 49.492 34.5714 49.5782C34.261 49.7261 34.865 49.4704 34.4101 49.6429C34.0304 49.7862 33.6492 49.9248 33.2619 50.0465C31.6956 50.5395 30.0787 50.8429 28.4602 51.1033C27.6256 51.2373 26.7894 51.359 25.9548 51.4837C25.8764 51.4961 25.798 51.5068 25.7196 51.5192C25.4384 51.5623 26.0701 51.4791 25.7857 51.5099C25.6105 51.53 25.4353 51.5515 25.2601 51.5685C24.8527 51.6085 24.4454 51.6378 24.0366 51.6547C23.2281 51.6886 22.4165 51.6794 21.6096 51.627C21.213 51.6008 20.818 51.5592 20.423 51.5176C20.0741 51.4807 20.6797 51.5638 20.2247 51.4899C19.988 51.4514 19.7513 51.4129 19.5161 51.3682C18.7046 51.2157 17.9007 51.0139 17.1137 50.7628C16.7341 50.6411 16.3575 50.5086 15.9856 50.3623C15.9118 50.333 15.838 50.3022 15.7642 50.273C15.4952 50.1667 16.047 50.4008 15.7842 50.2807C15.5675 50.1821 15.3492 50.0835 15.1356 49.9787C14.4239 49.6291 13.7369 49.2285 13.0852 48.7757C12.9115 48.6555 12.7409 48.5307 12.5733 48.4029C12.8684 48.6278 12.5088 48.3443 12.4073 48.2581C12.083 47.9839 11.771 47.6943 11.4743 47.3908C11.1562 47.0658 10.8564 46.7223 10.5706 46.368C10.8303 46.6899 10.3953 46.12 10.34 46.0383C10.2001 45.835 10.0664 45.627 9.9373 45.4144C9.68984 45.0047 9.47311 44.5811 9.26408 44.1513C9.22719 44.0743 9.19337 43.9957 9.15802 43.9171C9.32709 44.2915 9.10115 43.7708 9.08732 43.7354C9.00278 43.5151 8.92439 43.2917 8.85061 43.0668C8.68922 42.5723 8.55704 42.0686 8.44944 41.5587C8.3895 41.2784 8.34185 40.9965 8.2942 40.713C8.28652 40.6637 8.24502 40.3372 8.28344 40.6437C8.26807 40.5112 8.2527 40.3788 8.24041 40.2463C8.11591 38.9539 8.1405 37.6553 8.25731 36.3644C8.35107 35.3231 7.30281 34.4312 6.32833 34.4312C5.20629 34.4312 4.4931 35.32 4.39934 36.3644C3.99049 40.8917 4.93577 45.4329 7.79313 49.036C10.1356 51.9905 13.6293 53.9038 17.2429 54.8203C20.8564 55.7369 24.5469 55.5798 28.2788 55.019C31.7218 54.5014 35.3753 53.9022 38.3341 51.9289C42.7101 49.0098 44.0796 43.968 44.1026 38.9354C44.1134 36.4476 40.2554 36.4445 40.2447 38.9354L40.2431 38.9338Z" fill="black"/>
<path d="M21.8858 38.3777C22.5944 39.6671 22.7742 41.1428 22.3669 42.483C22.0872 43.4042 20.8283 44.2252 19.9507 43.646C18.3429 42.5862 17.9571 40.3618 18.6334 38.6458C18.8794 38.0204 19.5172 37.5829 20.0675 37.5182C20.6838 37.4442 21.5231 37.7154 21.8858 38.3777Z" fill="black"/>
<path d="M32.0932 38.6032C32.5282 39.5028 32.7634 40.6489 32.5236 41.6378C32.2147 42.9118 30.3164 43.4833 29.3588 42.5729C28.4627 41.721 28.2307 40.2561 28.4335 39.1192C28.5919 38.2335 29.3189 37.6512 29.9629 37.5295C30.8605 37.3601 31.649 37.6835 32.0932 38.6032Z" fill="black"/>
<path d="M44.5511 17.7406C44.5511 19.0069 44.4604 19.8125 44.2145 20.9108C44.0946 21.45 43.9471 21.983 43.7734 22.5083C43.6765 22.8009 43.572 23.0906 43.4598 23.3786C43.4506 23.4033 43.32 23.7175 43.4199 23.4849C43.3538 23.642 43.2815 23.7961 43.2093 23.9501C42.1841 26.1298 40.9975 27.678 39.1884 29.2323C36.411 31.6184 32.8112 32.7506 29.0516 32.7506H20.103C19.7033 32.7506 19.3037 32.7521 18.9056 32.7506C18.6674 32.7506 18.4276 32.7475 18.1893 32.7383C17.905 32.7275 17.6206 32.709 17.3378 32.6844C17.1964 32.672 17.0565 32.6566 16.9167 32.6412C16.2481 32.5673 17.2548 32.7059 16.5954 32.5935C14.1761 32.1791 12.3501 31.4551 10.3535 30.0964C6.37872 27.3914 3.85797 22.6284 3.85797 17.7406C3.85797 15.2528 0 15.2482 0 17.7406C0 23.0659 2.34245 28.3157 6.34029 31.834C9.91545 34.9812 14.4174 36.6171 19.1638 36.6171H28.5536C32.8066 36.6171 36.9182 35.682 40.418 33.145C45.3427 29.5742 48.4091 23.8716 48.4091 17.7406C48.4091 15.2528 44.5511 15.2482 44.5511 17.7406Z" fill="black"/>
<path d="M39.6407 27.0173V15.193C39.6407 10.3375 39.3794 4.31905 35.0234 1.2351C31.9863 -0.915341 28.0376 0.0890211 24.982 1.62175C24.0321 2.09774 22.8885 2.04075 21.8264 2.12085C21.4821 2.14704 21.1394 2.15782 20.7951 2.17323C20.4123 2.19017 20.9549 2.23176 20.729 2.16398C20.503 2.0962 20.2479 2.07926 20.0142 2.04537C19.1105 1.91135 18.2005 1.81122 17.286 1.85436C14.215 1.99916 11.4468 3.53343 10.1172 6.39093C8.99059 8.81249 8.76465 11.4667 8.76465 14.107C8.76465 18.2877 8.76465 22.4684 8.76465 26.6492V27.0189C8.76465 28.0633 9.64845 28.9521 10.6936 28.9521H19.8221C24.6715 28.9521 29.5208 28.9521 34.3702 28.9521H37.7087C40.191 28.9521 40.1956 25.0856 37.7087 25.0856H28.5802C23.7308 25.0856 18.8815 25.0856 14.0321 25.0856H10.6936C11.3361 25.7295 11.9801 26.375 12.6226 27.0189V15.6274C12.6226 15.0066 12.6226 14.3842 12.6226 13.7634C12.6226 13.4261 12.6257 13.0887 12.6365 12.7514C12.6503 12.3401 12.6733 11.9272 12.7102 11.5175C12.7271 11.3219 12.7471 11.1262 12.7717 10.9321C12.7256 11.3064 12.8301 10.584 12.8424 10.5162C12.9654 9.83534 13.1606 9.18836 13.3712 8.53213C13.5295 8.03765 13.1898 8.86641 13.4157 8.41198C13.4834 8.27642 13.5448 8.13624 13.6155 8.00222C13.7523 7.74189 13.923 7.50466 14.072 7.25203C14.3041 6.85922 13.7954 7.51236 14.1166 7.19504C14.215 7.09799 14.3011 6.98554 14.3979 6.88695C14.4947 6.78836 14.6069 6.70364 14.6992 6.60351C14.9958 6.28002 14.3641 6.79144 14.7407 6.565C14.9789 6.42174 15.2095 6.27078 15.4538 6.13676C15.5507 6.08284 15.9734 5.94883 15.5138 6.10287C15.6998 6.04125 15.8827 5.97193 16.0717 5.91956C16.2178 5.87951 17.0954 5.71776 16.6235 5.77784C16.9571 5.73625 17.2937 5.71622 17.6288 5.7116C17.993 5.70698 18.3589 5.72392 18.7216 5.75473C18.7339 5.75473 19.361 5.82405 18.9875 5.77476C19.2626 5.81019 19.5332 5.86564 19.8052 5.9134C20.9918 6.12135 22.1692 5.95961 23.3619 5.87026C24.1289 5.81327 24.9128 5.77014 25.6475 5.53291C26.6896 5.19709 27.5411 4.61327 28.5387 4.28516C28.9275 4.1573 29.3226 4.04639 29.7237 3.96321C29.6915 3.96937 30.3078 3.85846 30.0235 3.90159C29.7391 3.94472 30.3216 3.87386 30.3032 3.8754C30.6398 3.85076 30.9703 3.8677 31.3069 3.87078C31.811 3.8754 30.9395 3.75987 31.4145 3.88003C31.6081 3.92932 31.8049 3.96167 31.9986 4.01866C32.1384 4.06026 32.2752 4.11109 32.412 4.16038C31.9509 3.99402 32.3813 4.1496 32.472 4.20352C32.5995 4.279 33.3035 4.75807 32.9085 4.44228C33.1314 4.62097 33.3404 4.81353 33.5356 5.02149C33.6355 5.12778 33.7262 5.23869 33.8215 5.34806C33.4926 4.97527 33.8999 5.46359 33.9583 5.55139C34.1274 5.80557 34.2811 6.06898 34.4225 6.3401C34.4947 6.47873 34.5593 6.622 34.63 6.76217C34.8667 7.23047 34.5009 6.39093 34.6868 6.89003C34.922 7.51853 35.1249 8.15319 35.2817 8.80787C35.3631 9.14676 35.4323 9.48874 35.4938 9.83226C35.5245 10.0063 35.5507 10.1819 35.5799 10.356C35.6767 10.9352 35.5445 9.96319 35.606 10.5501C35.689 11.3311 35.7505 12.1106 35.7705 12.8946C35.7843 13.4153 35.7797 13.9375 35.7797 14.4597V27.0173C35.7797 29.5051 39.6376 29.5097 39.6376 27.0173H39.6407Z" fill="black"/>
<path d="M11.9562 20.575C19.1019 20.575 26.2476 20.575 33.3933 20.575C34.4124 20.575 35.4299 20.575 36.449 20.575C38.9313 20.575 38.9359 16.7085 36.449 16.7085H11.9562C9.47392 16.7085 9.46931 20.575 11.9562 20.575Z" fill="black"/>
<path d="M10.4891 49.478C8.47203 49.8836 2.4209 58.4814 2.4209 68.5391" stroke="black" stroke-width="3.5"/>
<path d="M37.9201 49.4775C39.9371 49.8831 45.9883 58.4809 45.9883 68.5387" stroke="black" stroke-width="3.5"/>
</svg>
