<svg width="59" height="62" viewBox="0 0 59 62" fill="none" xmlns="http://www.w3.org/2000/svg">
<g clip-path="url(#clip0_862_4193)">
<path d="M88.0895 36.0565C88.2868 36.0007 88.6044 36.005 88.9262 35.6441C102.126 36.0007 114.771 29.6986 123.753 19.9942C126.375 17.1589 129.735 16.3384 133.558 17.3049C131.571 14.9121 130.824 12.6138 130.773 9.71409C130.631 2.31225 131.863 -5.08529 134.257 -12.0575C134.987 -14.1883 136.836 -14.8456 138.797 -14.1969C142.771 -12.8866 147.118 -12.6074 150.752 -10.2146C153.692 -8.28143 149.461 6.07546 147.714 10.0234C145.792 14.3708 142.501 17.1503 137.84 18.757C141.432 20.2648 143.346 22.3827 143.239 25.8538C143.131 29.3249 141.359 32.0528 138.75 34.4112C140.934 36.4647 143.29 39.1281 141.393 41.6455C139.995 43.5013 129.559 41.2503 127.04 39.4804C121.333 47.8831 108.468 53.9189 99.2291 57.5231L99.8599 74.5993L108.704 74.1483C112.025 69.3541 118.033 68.4992 122.457 72.0991C123.028 72.5631 123.851 73.4309 124.607 73.3278L130.074 72.5889H141.488C141.595 69.513 141.449 66.6262 141.797 63.6448C142.35 58.9451 146.59 59.2888 146.714 53.5838L146.946 43.076C147.015 39.983 149.293 38.0284 152.396 38.2131C154.794 38.3548 156.575 39.8885 156.79 42.3758L157.73 53.3647C158.3 60.0491 163.214 59.4864 163.771 66.304L164.231 71.88C167.728 72.0819 170.899 72.0304 174.229 71.8371C175.851 71.7426 174.941 67.5498 178.507 68.4304C182.665 69.4614 182.785 64.8434 188.398 64.7188C190.561 64.6715 192.38 66.0763 193.41 67.9192C195.165 71.0509 197.306 65.2772 203.928 72.1593C205.043 73.3192 207.777 72.2237 209.158 72.5373L209.502 63.3827C199.628 61.9436 186.549 53.7771 180.747 45.1638C176.834 46.9509 167.745 48.3986 167.294 43.2135C167.11 41.13 168.084 40.0088 170.324 38.4751C166.338 37.8651 163.677 35.7215 163.158 32.3578C161.918 24.333 171.538 23.9722 169.324 23.1731C167.406 22.4815 165.355 22.5674 163.694 21.2829C161.557 19.6247 159.691 17.5455 158.472 15.0711C156.095 10.2468 154.477 5.39671 152.546 0.344728C152.113 -0.793685 151.357 -3.10917 152.666 -3.95117C156.485 -6.40842 160.896 -7.75304 165.235 -8.93011C167.264 -9.48429 168.745 -8.63799 169.637 -6.80794C172.98 0.0311305 174.937 7.42867 175.233 15.0582C175.34 17.8763 173.967 19.6548 172.418 22.7564C177.979 22.6362 181.919 24.8571 185.853 27.9674C191.08 32.0957 203.696 39.7897 210.875 39.068C206.631 37.0618 202.49 35.1372 200.533 30.7855C198.122 25.4242 200.28 19.4572 204.751 15.6081C201.314 14.1303 194.663 11.948 195.749 7.68212C196.693 3.97047 210.188 4.8812 213.75 4.94564C218.135 -2.93304 227.271 -9.54872 236.458 -6.76498C244.461 -4.34209 245.641 6.67259 243.925 13.8167C248.559 16.7465 250.293 15.651 255.228 20.2605C257.317 22.2109 257.764 25.5015 255.794 27.628C254.279 29.2647 252.086 29.6127 249.821 29.6986C251.336 33.522 253 35.7043 251.971 40.0775C256.133 43.6732 258.828 48.0034 261.514 53.2015C266.414 53.2358 271.109 54.1723 275.366 56.2344C290.17 63.4085 284.072 79.9349 283.879 88.5009C283.725 95.2712 284.677 102.269 280.575 108.296C279.811 109.418 278.095 109.74 276.743 110.53L276.679 154.099C276.679 156.969 275.211 159.327 272.808 160.247C270.534 161.114 267.264 160.844 265.792 158.73C264.32 156.617 264.295 154.078 264.179 151.56L262.51 115.818L249.671 120.183L249.34 130.601C253.03 129.866 256.15 128.234 259.416 126.567C260.038 126.249 261.235 125.97 261.656 126.7C264.041 130.871 251.563 134.192 249.035 135.515C248.847 143.643 248.817 151.294 248.224 159.108C248.139 160.26 246.371 160.315 245.693 160.075C244.907 159.796 244.405 158.73 244.453 157.54L245.779 121.545L231.657 125.471L231.365 145.039C233.969 145.001 236.604 145.482 238.308 147.501C240.942 150.624 240.226 155.281 237.196 157.88C235.523 159.31 233.583 160.002 231.257 160.204C230.532 166.884 233.334 178.62 223.564 178.182C220.118 178.027 217.736 176.051 217.663 172.503L217.444 162.141C212.368 163.98 200.181 164.787 197.641 158.318C192.929 160.015 177.795 159.216 176.834 153.446C175.825 147.38 185.248 143.183 190.346 142.092C191.252 138.17 191.406 134.411 191.779 130.493C191.887 129.385 192.144 128.363 193.02 128.105C193.676 127.911 195.44 127.851 195.538 128.947C195.925 133.183 195.002 137.285 194.363 141.607C198.825 141.723 202.541 142.908 206.167 144.958C207.043 145.452 208.927 143.909 208.961 142.943C209.111 138.759 208.716 134.45 209.287 130.377C209.45 129.213 210.386 128.337 211.33 128.414C212.274 128.491 213.05 129.552 213.007 130.712L212.548 142.414C214.029 142.427 215.243 142.101 216.741 141.86L216.346 126.129L196.98 126.142L170.367 125.751L114.501 125.377L116.823 141.787C121.461 143.003 127.181 144.859 129.541 149.473C130.576 151.492 130.245 153.665 128.529 155.139C125.941 157.36 122.397 158.288 119.08 157.695C118.329 158.842 117.496 159.839 116.175 160.298C107.64 163.275 93.7408 162.266 91.149 152.398L84.8239 128.302C84.4892 127.022 85.0857 126.159 86.2014 125.944C87.3171 125.729 88.1195 126.313 88.4671 127.572L93.3074 145.039C97.5342 143.858 101.731 143.299 106.022 143.978C108.043 144.3 109.609 145.469 111.381 146.311C114.887 147.982 117.501 150.839 119.324 154.065C121.337 154.391 124.349 153.743 125.546 152.226C126.405 151.139 124.821 149.679 124.002 149.069C118.32 144.85 113.549 147.191 113.072 143.785L110.485 125.274L90.2436 124.921L70.9852 124.419C71.6503 131.7 72.9977 138.849 74.3708 146.418C80.0737 147.063 84.884 150.018 88.2139 154.297C90.1406 157.519 89.1022 160.603 86.2057 162.523C83.026 164.628 79.2884 163.868 75.9886 164.805C72.2038 168.009 68.4405 168.675 63.2998 168.211C62.9179 170.432 62.8922 172.353 61.5061 173.933C59.6309 176.068 56.1037 176.661 53.5633 175.398C49.9888 173.628 50.8127 167.786 50.036 164.818C46.3242 165.617 43.166 164.379 41.4796 161.359C40.0464 158.799 40.8874 156.294 40.7372 153.631C40.5871 150.968 38.4201 136.954 37.5919 136.134C37.3644 135.91 36.6478 136.422 36.635 137.032C36.4976 144.356 36.8324 151.47 37.0126 158.829L37.2357 168.014C37.2615 169.053 35.781 169.195 35.1889 169.126C34.5967 169.058 33.4295 168.753 33.3651 167.704C32.7215 157.283 32.5842 147.041 32.5498 136.499C28.7007 136.516 25.3923 136.357 21.3458 135.958C20.9639 143.299 21.32 150.499 21.8951 157.845C21.998 159.143 21.1742 160.109 20.1829 160.144C19.0501 160.182 18.1489 159.701 17.9987 158.339C17.5954 154.653 17.4152 151.165 17.368 147.406L6.05234 146.461C5.23703 152.596 5.00961 158.253 4.63628 164.07C4.54188 165.548 3.88534 166.613 2.56797 166.592C1.25061 166.57 0.491083 165.522 0.555449 163.954C0.98885 153.713 2.25043 143.738 4.11706 133.668C2.95846 132.959 1.96722 132.749 0.941649 132.272C-4.24199 129.857 -3.52538 124.496 -1.88618 119.801C-5.32335 116.188 -7.52468 112.051 -9.21966 107.394C-13.6137 95.327 -15.5061 78.2208 -9.02227 66.725C-6.46076 62.1046 5.84323 62.8012 8.93596 57.2998L14.7633 44.992C14.7461 42.9085 12.386 41.2331 11.0815 39.91C9.31786 38.1186 8.06057 35.3778 9.42514 33.3072C10.3778 31.8637 10.3134 31.0819 9.88858 29.5053C8.74714 25.2566 10.189 21.0381 12.5233 17.2405C9.96153 15.9689 8.88017 13.8253 9.2492 11.1532C9.99156 5.77475 17.5868 -0.299656 23.766 3.16713C25.8514 4.33562 27.2074 6.22581 28.4261 8.32221C35.3734 7.73367 41.7285 10.3413 46.6976 14.852C49.8902 17.7517 53.16 21.124 51.8083 25.8839C55.9234 32.7229 58.4165 38.4236 55.0352 46.3581C54.4859 47.6469 53.4646 48.4201 52.5592 49.6015C59.4164 55.1561 64.7631 62.1283 67.8655 70.6299C70.4702 69.4357 72.4913 68.4476 75.3106 67.8161C76.9197 58.3737 73.0964 61.6042 73.4182 57.0936C73.5598 55.1303 72.9204 48.5705 75.8641 49.0302C78.9451 49.507 76.1431 54.1509 77.1343 56.3289C78.1684 55.0788 77.8724 49.7261 79.7819 49.5714C82.215 49.3738 81.4683 54.4945 81.7601 56.3375C83.7898 53.6912 81.1508 51.118 83.0474 49.6788C85.798 47.5953 87.4029 55.242 84.6394 59.5981C83.4465 61.4754 81.7687 62.326 79.533 62.3689C79.6918 64.156 79.1211 66.1063 79.7175 67.6915C80.5758 68.1211 82.1549 67.9751 82.7985 68.6581C85.4118 71.4161 82.2321 75.2824 82.687 78.8179C83.5323 79.196 84.4334 78.775 85.2616 78.4313C88.6988 77.0008 92.0115 75.7721 95.7791 75.1277C95.8606 71.8672 95.4616 68.903 95.4401 65.6939L95.3843 57.5274C95.3714 55.8349 96.3713 54.559 97.8088 53.9103L107.828 49.3738C112.167 47.4106 121.693 41.4694 123.671 37.1348C121.109 35.4293 119.535 33.0881 117.711 30.6609C109.039 36.4646 98.9416 39.9787 88.5658 39.4503C87.2527 39.3816 87.6046 36.8856 88.1195 36.0436L88.0895 36.0565ZM147.083 -1.86336C147.624 -4.0285 147.899 -5.66523 147.607 -7.4738L137.583 -10.1587C136.746 -6.77787 135.909 -3.79652 135.515 -0.200849L147.083 -1.86336ZM158.257 4.79958C162.004 3.95329 165.376 3.76426 169.234 3.39911C168.457 0.447831 167.539 -2.19414 166.076 -4.93493L157.781 -2.18985C154.91 -1.24045 157.275 1.59913 158.257 4.79528V4.79958ZM237.437 18.5679L245.452 18.8085C244.139 17.8978 242.599 17.8376 241.067 17.2405C238.252 16.1493 241.668 11.5098 240.376 3.88884C239.552 -0.948338 235.72 -3.89103 230.88 -3.26812C226.666 -2.72684 223.031 -0.849531 220.354 2.48409L215.093 9.03963C209.995 9.09118 205.412 8.69596 200.241 9.30168C205.85 12.0253 211.557 13.5374 217.539 15.1355C224.066 16.8796 230.412 18.3703 237.441 18.5593L237.437 18.5679ZM137.119 14.6071C142.101 13.8854 145.637 6.1399 146.161 2.07168L134.901 3.99624C134.691 5.62868 133.893 15.0711 137.119 14.6028V14.6071ZM24.5813 9.01385C23.2768 7.82389 21.8951 6.57808 20.1228 6.32892C16.4668 5.8177 13.0726 9.13844 13.1326 12.6911C13.1455 13.4257 13.7892 14.0229 14.1925 14.156C14.6474 14.3064 21.496 9.41337 24.5813 9.01385ZM169.44 18.9546C172.315 17.9665 170.963 9.87733 170.264 7.23106C166.745 7.36852 163.643 8.06446 159.884 8.61004C160.858 12.0811 165.445 20.325 169.44 18.9546ZM25.3365 23.2805L33.5153 20.1188C36.3818 18.5336 39.2311 17.4596 42.355 16.0505C34.9958 11.2821 25.5897 10.9642 18.7797 16.072C14.9263 18.9632 12.858 23.6457 13.6862 28.3411C17.6083 26.0858 21.3329 24.8271 25.3365 23.2805ZM243.968 28.165C243.56 27.6323 243.667 26.6915 243.925 26.2662C244.543 25.2438 249.263 27.3659 253.082 24.986C252.31 22.8552 250.233 22.5159 248.306 22.5975C240.127 22.9498 232.171 22.4686 224.134 20.935C219.075 19.9684 214.488 17.945 209.206 17.3651C206.21 18.3789 203.511 22.8595 203.516 26.1373C203.52 29.4151 205.798 32.0656 208.613 33.5391C217.234 38.0455 227.323 36.2627 234.836 30.1712C235.956 29.2647 238.17 28.586 238.767 30.154C239.363 31.722 237.625 32.7788 236.746 33.9C238.87 36.5506 244.83 40.9968 247.761 39.1109C250.336 37.457 245.5 30.1626 243.968 28.1564V28.165ZM45.3802 19.1436C44.6336 18.641 42.518 19.4787 42.93 20.3851C43.7324 22.1507 44.8352 23.6199 45.9037 25.1364C46.2899 25.6862 47.4314 24.9473 47.8176 24.6166C49.225 23.4266 46.8821 20.1531 45.3802 19.1436ZM130.146 27.2628C128.67 27.7998 128.082 29.123 126.825 28.5129C125.709 27.9717 125.74 26.3478 126.057 25.3855C126.817 23.07 129.477 25.828 130.52 21.1369C127.284 20.0758 124.066 26.3822 120.865 28.6633L126.911 34.9482C130.387 30.2399 127.525 32.3191 130.151 27.2671L130.146 27.2628ZM42.591 26.3908C41.1621 24.9817 40.6858 23.3579 39.776 21.7082C38.4887 22.344 37.5747 22.7521 36.2488 22.8939L38.7676 28.3239C40.2781 27.9759 41.5011 27.6838 42.5953 26.3951L42.591 26.3908ZM134.858 32.8432C137.102 31.3611 141.106 26.017 138.591 23.4996C137.93 22.8381 136.047 22.2624 134.961 22.6748L132.713 31.7392C132.961 32.1859 134.339 33.1869 134.854 32.8475L134.858 32.8432ZM35.5922 29.4623L33.2965 24.2471C32.5284 24.6337 31.1939 25.0762 31.1896 25.8022C31.1767 27.6151 32.0349 29.0843 32.4297 30.9616C33.5411 30.6437 34.601 30.5707 35.5965 29.458L35.5922 29.4623ZM26.8556 33.5305C28.0056 33.247 28.2974 32.7014 28.8123 32.1086C28.499 30.2356 28.1386 28.5001 27.3919 26.7516C26.5423 27.0824 25.1863 27.585 25.2679 28.311C25.4738 30.1368 26.2977 31.6747 26.8513 33.5305H26.8556ZM184.214 37.7534L188.312 34.8795L180.884 29.4151C179.481 28.3841 178.014 27.4819 176.486 27.2027C176.688 28.2423 176.709 28.9597 176.949 29.3292C177.447 30.0938 180.541 29.4752 180.138 31.5115C179.777 33.3243 177.868 33.0322 178.009 34.132C178.267 36.1339 180.661 34.5787 184.219 37.7534H184.214ZM173.16 30.4805C172.375 29.7587 172.697 28.3755 172.161 27.8127C171.015 26.6142 166.501 28.616 166.891 31.6017C167.256 34.394 170.573 34.2866 173.208 36.4303C174.731 34.8365 175.07 32.2375 173.165 30.4805H173.16ZM24.3925 49.0302C31.2668 53.0855 39.4843 53.5752 46.2771 49.6617C50.8385 47.0326 53.3616 42.1524 52.4906 36.963C51.9456 33.7196 50.6754 30.7769 48.7487 28.2208L33.2665 34.858L24.0706 39.3945C22.2469 40.2966 20.17 40.3911 18.3549 41.5596C19.0372 45.0049 21.4187 47.2731 24.3925 49.0302ZM22.6589 35.0771C22.6975 32.8174 22.3413 31.185 21.8908 29.2432C20.8523 29.3549 18.9642 29.5783 18.6167 30.5277C18.8999 32.4265 19.6251 34.5616 20.2473 36.2456C20.8309 36.572 22.6503 35.8331 22.6589 35.0771ZM16.3123 37.5257C16.6299 35.9749 15.8489 33.8441 15.1108 32.7487C13.7677 32.5726 13.2313 34.5573 13.2099 35.6699C13.1884 36.7267 13.5103 37.3754 14.1711 37.8007C14.6474 38.1057 16.0892 38.6384 16.3166 37.5257H16.3123ZM194.612 52.8707C199.216 55.9251 204.078 57.9184 209.626 59.263L211.27 43.3596C202.666 42.5519 195.56 39.4116 188.359 34.8752C189.119 36.4002 190.063 37.4828 188.964 38.9391C187.793 40.6746 185.845 41.6971 183.965 43.0717C186.905 47.024 190.587 49.8507 194.607 52.8664L194.612 52.8707ZM137.574 38.2861C134.867 36.1897 131.678 35.3735 128.327 36.31C131.215 37.4312 134.034 38.6255 137.574 38.2861ZM247.341 73.186C247.74 75.5273 246.075 76.743 244.324 77.0652C239.951 77.8728 235.776 78.122 231.3 78.616C231.618 80.5492 233.047 81.5845 234.506 82.6413C237.754 84.9954 240.243 88.0154 242.354 91.5896C248.332 90.6875 253.987 89.5405 259.527 87.6503C262.75 86.5505 264.955 84.2565 265.217 80.678C265.947 70.7373 259.463 56.578 253.829 48.1967C248.439 40.1806 248.079 45.3829 243.238 43.381C239.475 41.8259 236.252 39.5104 233.733 36.005C230.472 37.8608 227.237 38.8618 223.396 39.6393C224.302 43.7161 225.023 47.7586 225.216 51.9557C225.271 53.1284 224.044 53.6568 223.323 53.6311C222.602 53.6053 221.504 53.4721 221.354 52.4282L219.611 40.2064C218.217 39.9959 216.985 39.8455 215.552 40.1548L213.887 57.3814L212.797 73.1774C224.662 74.3201 231.309 75.3082 243.26 73.0228L238.96 56.3117C238.621 54.9886 239.376 53.8287 240.496 53.6912C241.243 53.5967 242.462 53.949 242.758 55.1088C244.294 61.0801 246.276 66.9483 247.341 73.1774V73.186ZM181.035 40.5715C179.588 39.0723 178.396 39.0035 177.318 38.7243C175.267 40.0474 173.019 40.825 171.392 42.9515C174.997 43.2092 177.996 41.9677 181.035 40.5715ZM150.954 45.3142C152.782 45.0865 153.357 44.7128 153.13 43.7118C152.962 42.9815 152.58 42.2727 151.499 42.5691C150.684 43.2651 150.216 44.571 150.954 45.3142ZM29.383 87.0574C29.8293 89.1796 30.9364 90.3395 33.2364 90.3911C39.2354 90.5285 45.1528 89.9744 51.1775 88.9047C60.9651 87.1669 63.1838 83.2531 63.1925 83.174C64.0488 75.5146 61.8366 62.7317 49.7829 52.2864C39.3512 58.7518 26.332 57.201 17.3379 48.592C14.2955 54.0392 12.4289 59.3059 10.4807 64.9207C7.11653 76.0986 6.20253 92.6035 10.9356 103.403C14.1925 110.835 22.852 110.47 29.752 109.044L43.0802 106.29L42.9257 94.1801C37.21 94.3304 27.2246 96.6502 25.7527 89.0465C24.4525 82.3191 24.2809 75.4972 25.491 68.787C25.697 67.6486 27.0529 67.0514 27.8339 67.1588C30.9536 67.5884 27.1946 76.6098 29.383 87.0532V87.0574ZM152.224 85.498C151.945 81.6145 152.031 77.7955 152.353 73.8862C152.658 70.2132 157.588 72.4557 160.167 71.8156C160.012 68.8901 160.394 65.3932 158.378 63.2152C153.34 57.7723 154.52 56.3289 153.267 49.2535C147.641 48.2827 153.988 55.9251 147.165 61.7976C146.092 62.7212 145.509 64.229 145.504 65.7111C145.47 74.3588 145.594 82.7186 146.049 91.3061C146.122 92.6808 147.268 93.8063 148.693 93.8621C152.464 94.0125 156.472 94.0855 160.008 92.728C160.948 91.4092 160.781 88.8102 160.334 87.5257C157.541 87.4484 152.503 89.3944 152.224 85.5023V85.498ZM279.442 87.7061C281.163 79.342 284.149 67.2018 275.859 61.3852C272.177 58.8033 267.951 57.6735 263.393 57.2482C266.586 63.0477 271.242 78.2251 268.534 84.4498L279.438 87.7061H279.442ZM10.9699 118.327C9.27495 114.586 8.13781 111.493 8.97887 107.682C1.38363 96.2893 2.92842 74.2084 7.28388 61.2219C1.61106 60.947 -3.49105 64.3622 -6.0228 69.4486C-11.4939 80.4375 -9.40847 96.9423 -4.78267 108.013C-1.46136 115.965 1.43083 119.466 10.9742 118.332L10.9699 118.327ZM189.969 72.185C190.943 71.386 189.587 68.8428 188.286 68.7741C186.557 68.6839 184.527 70.2089 185.064 72.0347C186.54 72.0003 188.621 72.9583 189.964 72.185H189.969ZM75.3535 75.5616C74.8901 74.5521 75.3921 73.1087 76.4134 73.1731C77.6149 73.2461 78.6662 73.8991 79.8119 73.6328C80.2239 73.534 80.1681 72.7006 79.9879 72.46C78.147 70.0027 70.6762 73.9421 68.0329 74.9774C69.3417 78.0275 69.8566 81.1678 70.157 84.4584C72.9033 83.9472 75.4779 83.1997 77.8767 81.7563C78.3015 80.5792 78.4946 79.4365 78.7392 78.0833C77.469 77.4604 76.0744 77.121 75.3621 75.5659L75.3535 75.5616ZM200.778 79.6556C199.997 82.9162 194.521 79.9735 192.457 79.0413C192.221 80.4632 191.882 81.7262 190.827 82.1601C189.96 82.5167 188.347 82.826 187.802 81.9067C186.712 80.0766 190.479 77.8299 188.81 76.8289C187.995 76.3392 186.145 75.901 185.188 76.3263C184.176 76.7731 180.185 80.4718 179.095 79.0413C178.095 77.7268 181.035 74.8958 181.64 72.8294C179.807 73.2161 178.52 74.3545 177.057 75.4413L172.654 78.7191C171.822 79.3377 171.547 80.3473 171.697 81.2752C172.251 84.7162 194.775 89.6393 208.45 83.2642C213.265 81.0217 203.653 78.2079 201.64 76.0213C199.744 73.9635 197.585 71.6695 194.483 72.7994C193.728 73.0743 193.659 75.1535 194.59 75.3812C196.658 75.8838 201.366 77.1855 200.778 79.6513V79.6556ZM120.135 75.669C117.96 73.6499 113.995 72.8037 112.102 76.0127C113.476 77.6322 119.959 77.9415 120.135 75.669ZM160.562 83.5778L160.369 75.9998C158.948 75.7077 157.631 75.8237 156.15 75.9268C155.867 78.5473 155.82 80.9358 156.009 83.5735C157.532 83.9343 158.935 83.857 160.562 83.5735V83.5778ZM130.764 109.108L184.957 109.143C201.383 109.151 217.414 109.216 233.665 107.068C242.728 105.869 250.846 101.904 259.617 99.7604L280 92.35C275.709 90.9753 271.272 89.1409 266.771 88.518C258.665 93.6602 252.94 93.1447 245.169 95.5075C243.401 96.0445 241.706 95.529 240.247 95.2583C233.502 97.7156 232.961 100.864 226.391 98.1623C224.684 97.4621 222.856 97.3246 222.705 94.7342C222.521 91.6369 219.255 93.7676 217.646 91.0913C217.002 90.0216 216.797 88.4923 217.256 87.298C219.65 81.026 227.022 80.3816 225.653 78.8007C225.349 78.4485 214.123 77.7998 211.201 76.9621C212.999 78.4957 213.793 80.2613 213.625 82.2804C213.458 84.2995 212.093 86.0093 210.042 86.9801C202.426 90.5887 193.843 91.1815 185.394 90.1892C180.339 89.5963 175.654 88.6254 171.247 86.3185C169.088 85.1887 167.874 83.5992 167.758 81.3482C167.642 79.0971 168.303 77.5034 170.586 75.8967C168.329 75.5015 166.513 75.9268 164.329 75.9225L164.84 90.593C164.952 93.8149 163.334 96.3624 160.158 97.0755C154.76 98.2869 142.402 100.254 142.028 91.8989C141.801 86.8341 141.556 82.0141 141.621 76.8547C136.896 76.6012 132.562 76.3649 127.799 76.9578C131.301 78.2938 134.605 79.9434 136.703 83.1181C138.055 85.163 137.085 87.878 135.356 89.4717C133.897 90.8121 132.086 91.74 130.121 92.4101C118.449 96.3967 103.975 97.9604 92.402 93.1447C88.9176 91.6927 87.2184 87.6932 89.3124 84.5401C91.046 81.9281 93.8653 80.9315 96.3198 79.08C91.8013 79.9477 87.9135 81.7692 83.6911 83.174C78.1642 85.0169 77.4604 88.4064 68.771 88.5138C66.7842 88.5395 64.9691 90.2665 63.1925 91.0011C65.042 92.8526 66.5954 95.5977 65.308 97.8788C63.1925 101.625 59.6266 103.936 56.2839 106.449L91.0546 108.219L113.355 108.803L130.769 109.117L130.764 109.108ZM125.654 84.1749C123.126 87.3882 118.629 79.0284 116.136 81.9625C117.539 83.3286 119.286 85.8417 117.711 87.4698C117.033 88.1701 116.097 88.1572 115.291 87.8049C112.729 86.6923 111.952 84.1706 111.961 81.6188C111.214 80.4804 109.451 78.7707 108.099 78.4184C104.679 77.5248 101.825 79.8146 99.272 81.6017L93.4405 85.6828C92.741 86.1725 92.2046 86.9672 92.3806 87.7706C92.505 88.3247 93.0585 89.1538 93.9339 89.4588C102.332 92.3887 111.274 92.5734 120.037 90.8121C122.697 90.2794 132.91 88.4064 133.12 85.6312C133.292 83.3716 127.198 80.7854 124.868 79.1272C124.298 78.7191 123.864 77.8256 123.238 78.3582C120.358 80.8198 127.43 81.9196 125.654 84.1792V84.1749ZM230.228 91.0569C231.004 92.2727 228.97 94.2359 229.768 95.1123C232.811 94.5882 235.128 93.6774 237.9 92.0837C235.381 88.8274 232.755 85.4937 228.992 83.4833C227.288 82.5725 221.791 86.0565 221.534 87.2894C223.079 87.4484 224.263 86.4431 225.387 87.0703C227.52 88.256 223.07 92.2469 225.649 92.5046C226.739 92.612 229.065 89.2312 230.232 91.0612L230.228 91.0569ZM58.1505 100.147C56.816 98.8583 54.7305 98.0163 55.9492 96.4096C57.2365 94.7085 61.15 97.3118 61.7422 96.3065C62.7892 94.5366 58.3822 92.3457 56.7902 92.3672C53.4088 92.4101 50.3708 93.308 46.925 93.54L47.0323 105.792C49.4267 105.337 51.1818 105.238 53.0613 104.529C52.542 103.683 52.1644 103.068 52.1387 102.445C51.9971 99.0602 55.9191 103.386 58.1505 100.147ZM274.859 107.136C278.966 105.71 279.266 100.925 279.807 96.9853L272.898 99.3222C259.965 103.695 247.341 108.112 233.922 111.493C233.133 114.637 232.249 117.67 232.094 121.236C236.797 120.144 241.024 118.894 245.512 117.335L274.859 107.141V107.136ZM228.018 121.708C228.391 118.151 229.078 115.239 229.854 111.982C210.111 113.288 190.681 113.89 170.839 113.808L136.502 113.671L99.2463 112.768L86.7721 112.395L78.1899 111.982L46.9336 109.907C45.6119 109.821 43.5608 110.036 42.7369 110.887C42.4022 113.49 42.6682 116.691 43.9899 118.903C44.6379 119.844 46.6847 119.921 47.7961 119.947L79.061 120.613L109.12 120.909L147.989 121.296L184.107 121.622C198.834 121.755 213.033 122.172 228.018 121.717V121.708ZM48.7616 150.907L47.9077 138.66C47.5644 133.745 47.7189 128.9 47.0194 124.071C44.0843 123.779 41.1277 123.018 39.9477 120.368C38.7676 117.717 38.729 114.663 38.2484 111.462C30.7862 112.747 19.2818 116.239 12.7121 111.334C13.3815 114.998 14.9521 118.254 17.8958 120.471C27.4263 127.649 39.1367 120.63 41.0934 131.696L44.5434 151.2C46.1869 151.169 47.2082 151.333 48.7659 150.907H48.7616ZM268.41 154.885C268.603 156.393 269.77 157.227 270.783 156.96C271.474 156.78 272.645 155.921 272.649 154.774L272.812 112.206L266.316 114.461L267.401 138.634C267.646 144.103 267.702 149.357 268.405 154.885H268.41ZM36.7766 132.714C37.1027 130.601 35.5836 129.016 33.5926 128.857L24.5083 127.671C20.2301 127.112 16.4926 125.149 13.8192 122.086C9.64399 123.422 5.6833 122.881 1.66684 121.665C0.83437 123.16 0.306567 125.089 0.885864 126.816C1.84707 129.673 9.79846 130.708 12.6392 130.974C20.6893 131.726 28.439 132.749 36.7723 132.714H36.7766ZM59.0602 168.903L58.4938 145.546L58.0432 124.264L51.0874 124.015C51.5036 138.286 52.8424 152.029 54.177 166.089C54.37 168.112 54.3014 170.192 55.3956 171.755C55.9792 172.589 57.627 172.099 58.1677 171.639C58.7083 171.18 59.086 170.149 59.0559 168.907L59.0602 168.903ZM70.1741 146.586L66.8228 124.449C64.8875 124.629 63.347 124.174 61.8323 124.737L62.5617 149.49C64.673 147.612 67.2004 147.028 70.1784 146.586H70.1741ZM226.833 170.922C227.314 163.443 227.262 156.346 227.378 148.979L227.739 125.811L220.453 126.064L220.899 139.54L221.324 158.851C221.435 163.829 221.173 168.765 222.22 173.56C222.482 174.767 224.731 174.367 225.404 173.873C226.112 173.349 226.743 172.314 226.833 170.922ZM17.3765 143.501L17.5396 135.889L7.91896 134.398L6.47287 142.651L17.3765 143.501ZM198.328 153.36L202.941 147.969C195.264 143.686 187.488 145.649 181.391 150.929C177.052 154.688 195.435 156.737 198.328 153.36ZM217.324 158.167L217.024 145.971C212.025 145.177 202.49 152.218 201.464 156.496C200.722 159.598 214.188 160.01 217.324 158.167ZM114.883 154.34C110.026 148.119 102.057 146.019 94.4961 148.905C94.4145 152.467 96.5944 155.478 100.28 156.617C105.709 158.296 117.801 158.082 114.883 154.34ZM236.094 152.544C236.304 149.919 233.33 148.33 231.309 149.129L231.296 156.294C233.506 156.05 235.896 154.997 236.094 152.544ZM84.8282 158.704C85.2101 157.373 85.12 156.595 84.5321 155.946C80.2797 151.277 73.6671 148.656 67.1403 151.337L76.1645 159.886C78.2586 161.866 82.6183 159.491 84.8325 158.704H84.8282ZM71.6031 161.235C69.376 158 66.664 155.341 62.7806 153.936C62.6476 157.656 62.7549 160.736 63.0466 164.139C64.4198 164.839 73.8774 164.534 71.6031 161.235ZM49.7056 161.218C49.5297 158.816 49.5554 157.059 49.0834 155.019C47.4313 154.903 46.0754 154.855 44.522 154.997C44.1615 156.827 44.1315 158.915 45.4961 160.221C46.556 161.235 48.2724 161.368 49.7056 161.213V161.218Z" fill="black"/>
<path d="M38.9557 38.278C40.0242 40.3271 37.943 41.7834 36.1923 41.9853C34.7805 42.1486 33.6906 41.7447 33.3601 40.413C33.107 39.382 33.6262 38.308 34.9049 37.7539C36.0635 37.2512 38.1576 36.7486 38.9557 38.278Z" fill="black"/>
<path d="M46.5816 38.9222C45.2599 39.2788 44.2344 38.6687 43.7323 37.7967C43.0672 36.6454 43.8439 35.7217 45.011 35.0688C45.9079 34.5704 46.7747 34.433 47.5342 34.8239C48.4353 35.2922 48.71 36.1127 48.5855 37.1394C48.4911 37.9255 47.796 38.5957 46.5816 38.9265V38.9222Z" fill="black"/>
</g>
<defs>
<clipPath id="clip0_862_4193">
<path d="M0 16.1364C0 7.2245 7.2245 0 16.1364 0H42.8636C51.7755 0 59 7.2245 59 16.1364V45.8636C59 54.7755 51.7755 62 42.8636 62H20.1705C9.03062 62 0 52.9694 0 41.8295V16.1364Z" fill="white"/>
</clipPath>
</defs>
</svg>
