<svg width="59" height="62" viewBox="0 0 59 62" fill="none" xmlns="http://www.w3.org/2000/svg">
<g clip-path="url(#clip0_884_3489)">
<rect width="59" height="62" rx="15" fill="url(#paint0_linear_884_3489)"/>
<path d="M88.0893 36.0565C88.2867 36.0007 88.6043 36.005 88.9261 35.6441C102.126 36.0007 114.771 29.6986 123.753 19.9942C126.374 17.1589 129.734 16.3384 133.558 17.3049C131.571 14.9121 130.824 12.6138 130.773 9.71409C130.631 2.31225 131.863 -5.08529 134.257 -12.0575C134.987 -14.1883 136.836 -14.8456 138.797 -14.1969C142.771 -12.8866 147.118 -12.6074 150.752 -10.2146C153.692 -8.28143 149.461 6.07546 147.714 10.0234C145.792 14.3708 142.5 17.1503 137.84 18.757C141.432 20.2648 143.346 22.3827 143.238 25.8538C143.131 29.3249 141.359 32.0528 138.75 34.4112C140.934 36.4647 143.29 39.1281 141.393 41.6455C139.994 43.5013 129.558 41.2503 127.04 39.4804C121.332 47.8831 108.468 53.9189 99.229 57.5231L99.8598 74.5993L108.704 74.1483C112.025 69.3541 118.033 68.4992 122.457 72.0991C123.027 72.5631 123.851 73.4309 124.607 73.3278L130.073 72.5889H141.488C141.595 69.513 141.449 66.6262 141.797 63.6448C142.35 58.9451 146.59 59.2888 146.714 53.5838L146.946 43.076C147.015 39.983 149.293 38.0284 152.396 38.2131C154.794 38.3548 156.575 39.8885 156.79 42.3758L157.729 53.3647C158.3 60.0491 163.214 59.4864 163.771 66.304L164.23 71.88C167.728 72.0819 170.899 72.0304 174.229 71.8371C175.851 71.7426 174.941 67.5498 178.507 68.4304C182.665 69.4614 182.785 64.8434 188.398 64.7188C190.561 64.6715 192.38 66.0763 193.41 67.9192C195.165 71.0509 197.306 65.2772 203.927 72.1593C205.043 73.3192 207.777 72.2237 209.158 72.5373L209.502 63.3827C199.628 61.9436 186.548 53.7771 180.747 45.1638C176.833 46.9509 167.745 48.3986 167.294 43.2135C167.11 41.13 168.084 40.0088 170.324 38.4751C166.337 37.8651 163.677 35.7215 163.158 32.3578C161.918 24.333 171.538 23.9722 169.324 23.1731C167.406 22.4815 165.355 22.5674 163.694 21.2829C161.557 19.6247 159.691 17.5455 158.472 15.0711C156.095 10.2468 154.477 5.39671 152.546 0.344728C152.112 -0.793685 151.357 -3.10917 152.666 -3.95117C156.485 -6.40842 160.896 -7.75304 165.235 -8.93011C167.264 -9.48429 168.745 -8.63799 169.637 -6.80794C172.98 0.0311305 174.937 7.42867 175.233 15.0582C175.34 17.8763 173.967 19.6548 172.418 22.7564C177.979 22.6362 181.918 24.8571 185.853 27.9674C191.08 32.0957 203.696 39.7897 210.875 39.068C206.631 37.0618 202.49 35.1372 200.533 30.7855C198.122 25.4242 200.28 19.4572 204.751 15.6081C201.314 14.1303 194.663 11.948 195.749 7.68212C196.693 3.97047 210.188 4.8812 213.75 4.94564C218.135 -2.93304 227.271 -9.54872 236.458 -6.76498C244.461 -4.34209 245.641 6.67259 243.925 13.8167C248.559 16.7465 250.293 15.651 255.227 20.2605C257.317 22.2109 257.763 25.5015 255.794 27.628C254.279 29.2647 252.086 29.6127 249.821 29.6986C251.335 33.522 253 35.7043 251.97 40.0775C256.133 43.6732 258.828 48.0034 261.514 53.2015C266.414 53.2358 271.109 54.1723 275.365 56.2344C290.17 63.4085 284.072 79.9349 283.879 88.5009C283.725 95.2712 284.677 102.269 280.575 108.296C279.811 109.418 278.095 109.74 276.743 110.53L276.679 154.099C276.679 156.969 275.211 159.327 272.808 160.247C270.534 161.114 267.264 160.844 265.792 158.73C264.32 156.617 264.295 154.078 264.179 151.56L262.509 115.818L249.67 120.183L249.34 130.601C253.03 129.866 256.15 128.234 259.416 126.567C260.038 126.249 261.235 125.97 261.655 126.7C264.041 130.871 251.563 134.192 249.035 135.515C248.847 143.643 248.817 151.294 248.224 159.108C248.139 160.26 246.371 160.315 245.693 160.075C244.907 159.796 244.405 158.73 244.452 157.54L245.778 121.545L231.656 125.471L231.365 145.039C233.969 145.001 236.604 145.482 238.308 147.501C240.942 150.624 240.226 155.281 237.196 157.88C235.523 159.31 233.583 160.002 231.257 160.204C230.532 166.884 233.334 178.62 223.563 178.182C220.118 178.027 217.736 176.051 217.663 172.503L217.444 162.141C212.368 163.98 200.181 164.787 197.641 158.318C192.929 160.015 177.795 159.216 176.833 153.446C175.825 147.38 185.248 143.183 190.346 142.092C191.252 138.17 191.406 134.411 191.779 130.493C191.887 129.385 192.144 128.363 193.019 128.105C193.676 127.911 195.44 127.851 195.538 128.947C195.925 133.183 195.002 137.285 194.363 141.607C198.825 141.723 202.541 142.908 206.167 144.958C207.043 145.452 208.927 143.909 208.961 142.943C209.111 138.759 208.716 134.45 209.287 130.377C209.45 129.213 210.385 128.337 211.33 128.414C212.274 128.491 213.05 129.552 213.007 130.712L212.548 142.414C214.029 142.427 215.243 142.101 216.741 141.86L216.346 126.129L196.98 126.142L170.367 125.751L114.501 125.377L116.823 141.787C121.461 143.003 127.181 144.859 129.541 149.473C130.575 151.492 130.245 153.665 128.529 155.139C125.941 157.36 122.397 158.288 119.08 157.695C118.329 158.842 117.496 159.839 116.175 160.298C107.64 163.275 93.7407 162.266 91.1489 152.398L84.8238 128.302C84.4891 127.022 85.0856 126.159 86.2013 125.944C87.3169 125.729 88.1194 126.313 88.467 127.572L93.3073 145.039C97.5341 143.858 101.731 143.299 106.022 143.978C108.043 144.3 109.609 145.469 111.381 146.311C114.887 147.982 117.5 150.839 119.324 154.065C121.337 154.391 124.349 153.743 125.546 152.226C126.405 151.139 124.821 149.679 124.002 149.069C118.32 144.85 113.548 147.191 113.072 143.785L110.485 125.274L90.2435 124.921L70.9851 124.419C71.6502 131.7 72.9976 138.849 74.3707 146.418C80.0736 147.063 84.8839 150.018 88.2138 154.297C90.1405 157.519 89.102 160.603 86.2056 162.523C83.0259 164.628 79.2883 163.868 75.9885 164.805C72.2037 168.009 68.4404 168.675 63.2997 168.211C62.9178 170.432 62.892 172.353 61.506 173.933C59.6308 176.068 56.1036 176.661 53.5632 175.398C49.9887 173.628 50.8126 167.786 50.0359 164.818C46.3241 165.617 43.1659 164.379 41.4795 161.359C40.0463 158.799 40.8873 156.294 40.7371 153.631C40.587 150.968 38.4199 136.954 37.5918 136.134C37.3643 135.91 36.6477 136.422 36.6349 137.032C36.4975 144.356 36.8322 151.47 37.0125 158.829L37.2356 168.014C37.2614 169.053 35.7809 169.195 35.1888 169.126C34.5966 169.058 33.4294 168.753 33.365 167.704C32.7214 157.283 32.5841 147.041 32.5497 136.499C28.7006 136.516 25.3922 136.357 21.3457 135.958C20.9638 143.299 21.3199 150.499 21.8949 157.845C21.9979 159.143 21.174 160.109 20.1828 160.144C19.05 160.182 18.1488 159.701 17.9986 158.339C17.5953 154.653 17.415 151.165 17.3678 147.406L6.05223 146.461C5.23693 152.596 5.0095 158.253 4.63617 164.07C4.54177 165.548 3.88523 166.613 2.56787 166.592C1.2505 166.57 0.490976 165.522 0.555342 163.954C0.988743 153.713 2.25033 143.738 4.11695 133.668C2.95836 132.959 1.96711 132.749 0.941542 132.272C-4.2421 129.857 -3.52549 124.496 -1.88629 119.801C-5.32346 116.188 -7.52479 112.051 -9.21977 107.394C-13.6138 95.327 -15.5062 78.2208 -9.02238 66.725C-6.46087 62.1046 5.84312 62.8012 8.93585 57.2998L14.7632 44.992C14.746 42.9085 12.3859 41.2331 11.0814 39.91C9.31776 38.1186 8.06046 35.3778 9.42503 33.3072C10.3777 31.8637 10.3133 31.0819 9.88847 29.5053C8.74704 25.2566 10.1888 21.0381 12.5232 17.2405C9.96142 15.9689 8.88006 13.8253 9.2491 11.1532C9.99146 5.77475 17.5867 -0.299656 23.7659 3.16713C25.8513 4.33562 27.2073 6.22581 28.426 8.32221C35.3733 7.73367 41.7284 10.3413 46.6975 14.852C49.89 17.7517 53.1599 21.124 51.8082 25.8839C55.9233 32.7229 58.4164 38.4236 55.0351 46.3581C54.4858 47.6469 53.4645 48.4201 52.5591 49.6015C59.4163 55.1561 64.763 62.1283 67.8654 70.6299C70.4701 69.4357 72.4912 68.4476 75.3105 67.8161C76.9196 58.3737 73.0963 61.6042 73.4181 57.0936C73.5597 55.1303 72.9203 48.5705 75.864 49.0302C78.945 49.507 76.1429 54.1509 77.1342 56.3289C78.1683 55.0788 77.8723 49.7261 79.7818 49.5714C82.2148 49.3738 81.4682 54.4945 81.76 56.3375C83.7897 53.6912 81.1506 51.118 83.0473 49.6788C85.7979 47.5953 87.4028 55.242 84.6393 59.5981C83.4464 61.4754 81.7686 62.326 79.5329 62.3689C79.6917 64.156 79.121 66.1063 79.7174 67.6915C80.5756 68.1211 82.1548 67.9751 82.7984 68.6581C85.4117 71.4161 82.232 75.2824 82.6869 78.8179C83.5322 79.196 84.4333 78.775 85.2615 78.4313C88.6987 77.0008 92.0114 75.7721 95.779 75.1277C95.8605 71.8672 95.4615 68.903 95.44 65.6939L95.3842 57.5274C95.3713 55.8349 96.3712 54.559 97.8087 53.9103L107.828 49.3738C112.167 47.4106 121.693 41.4694 123.671 37.1348C121.109 35.4293 119.534 33.0881 117.711 30.6609C109.038 36.4646 98.9415 39.9787 88.5657 39.4503C87.2526 39.3816 87.6045 36.8856 88.1194 36.0436L88.0893 36.0565ZM147.083 -1.86336C147.624 -4.0285 147.899 -5.66523 147.607 -7.4738L137.583 -10.1587C136.746 -6.77787 135.909 -3.79652 135.515 -0.200849L147.083 -1.86336ZM158.257 4.79958C162.003 3.95329 165.376 3.76426 169.234 3.39911C168.457 0.447831 167.539 -2.19414 166.076 -4.93493L157.781 -2.18985C154.91 -1.24045 157.275 1.59913 158.257 4.79528V4.79958ZM237.437 18.5679L245.452 18.8085C244.139 17.8978 242.599 17.8376 241.067 17.2405C238.252 16.1493 241.668 11.5098 240.376 3.88884C239.552 -0.948338 235.72 -3.89103 230.88 -3.26812C226.666 -2.72684 223.031 -0.849531 220.354 2.48409L215.093 9.03963C209.995 9.09118 205.412 8.69596 200.241 9.30168C205.85 12.0253 211.557 13.5374 217.539 15.1355C224.065 16.8796 230.412 18.3703 237.441 18.5593L237.437 18.5679ZM137.119 14.6071C142.101 13.8854 145.637 6.1399 146.161 2.07168L134.901 3.99624C134.691 5.62868 133.892 15.0711 137.119 14.6028V14.6071ZM24.5812 9.01385C23.2767 7.82389 21.8949 6.57808 20.1227 6.32892C16.4667 5.8177 13.0725 9.13844 13.1325 12.6911C13.1454 13.4257 13.7891 14.0229 14.1924 14.156C14.6473 14.3064 21.4959 9.41337 24.5812 9.01385ZM169.44 18.9546C172.315 17.9665 170.963 9.87733 170.264 7.23106C166.745 7.36852 163.643 8.06446 159.884 8.61004C160.858 12.0811 165.445 20.325 169.44 18.9546ZM25.3364 23.2805L33.5152 20.1188C36.3817 18.5336 39.231 17.4596 42.3549 16.0505C34.9957 11.2821 25.5896 10.9642 18.7796 16.072C14.9262 18.9632 12.8579 23.6457 13.6861 28.3411C17.6081 26.0858 21.3328 24.8271 25.3364 23.2805ZM243.968 28.165C243.56 27.6323 243.667 26.6915 243.925 26.2662C244.543 25.2438 249.263 27.3659 253.082 24.986C252.309 22.8552 250.233 22.5159 248.306 22.5975C240.127 22.9498 232.171 22.4686 224.134 20.935C219.075 19.9684 214.488 17.945 209.205 17.3651C206.21 18.3789 203.511 22.8595 203.515 26.1373C203.52 29.4151 205.798 32.0656 208.613 33.5391C217.234 38.0455 227.322 36.2627 234.836 30.1712C235.956 29.2647 238.17 28.586 238.767 30.154C239.363 31.722 237.625 32.7788 236.746 33.9C238.87 36.5506 244.83 40.9968 247.761 39.1109C250.336 37.457 245.5 30.1626 243.968 28.1564V28.165ZM45.3801 19.1436C44.6334 18.641 42.5179 19.4787 42.9299 20.3851C43.7323 22.1507 44.8351 23.6199 45.9036 25.1364C46.2898 25.6862 47.4312 24.9473 47.8174 24.6166C49.2249 23.4266 46.882 20.1531 45.3801 19.1436ZM130.146 27.2628C128.67 27.7998 128.082 29.123 126.825 28.5129C125.709 27.9717 125.739 26.3478 126.057 25.3855C126.816 23.07 129.477 25.828 130.52 21.1369C127.284 20.0758 124.066 26.3822 120.865 28.6633L126.911 34.9482C130.387 30.2399 127.524 32.3191 130.151 27.2671L130.146 27.2628ZM42.5909 26.3908C41.162 24.9817 40.6856 23.3579 39.7759 21.7082C38.4886 22.344 37.5746 22.7521 36.2487 22.8939L38.7675 28.3239C40.278 27.9759 41.501 27.6838 42.5952 26.3951L42.5909 26.3908ZM134.858 32.8432C137.102 31.3611 141.106 26.017 138.591 23.4996C137.93 22.8381 136.047 22.2624 134.961 22.6748L132.712 31.7392C132.961 32.1859 134.339 33.1869 134.854 32.8475L134.858 32.8432ZM35.5921 29.4623L33.2964 24.2471C32.5283 24.6337 31.1937 25.0762 31.1895 25.8022C31.1766 27.6151 32.0348 29.0843 32.4296 30.9616C33.541 30.6437 34.6009 30.5707 35.5964 29.458L35.5921 29.4623ZM26.8555 33.5305C28.0055 33.247 28.2973 32.7014 28.8122 32.1086C28.4989 30.2356 28.1385 28.5001 27.3918 26.7516C26.5422 27.0824 25.1862 27.585 25.2677 28.311C25.4737 30.1368 26.2976 31.6747 26.8512 33.5305H26.8555ZM184.214 37.7534L188.312 34.8795L180.884 29.4151C179.481 28.3841 178.013 27.4819 176.486 27.2027C176.688 28.2423 176.709 28.9597 176.949 29.3292C177.447 30.0938 180.541 29.4752 180.138 31.5115C179.777 33.3243 177.868 33.0322 178.009 34.132C178.267 36.1339 180.661 34.5787 184.218 37.7534H184.214ZM173.16 30.4805C172.375 29.7587 172.697 28.3755 172.16 27.8127C171.015 26.6142 166.5 28.616 166.891 31.6017C167.256 34.394 170.573 34.2866 173.207 36.4303C174.731 34.8365 175.07 32.2375 173.165 30.4805H173.16ZM24.3924 49.0302C31.2667 53.0855 39.4841 53.5752 46.2769 49.6617C50.8384 47.0326 53.3615 42.1524 52.4904 36.963C51.9455 33.7196 50.6753 30.7769 48.7486 28.2208L33.2663 34.858L24.0705 39.3945C22.2468 40.2966 20.1699 40.3911 18.3548 41.5596C19.0371 45.0049 21.4186 47.2731 24.3924 49.0302ZM22.6588 35.0771C22.6974 32.8174 22.3412 31.185 21.8907 29.2432C20.8522 29.3549 18.9641 29.5783 18.6166 30.5277C18.8998 32.4265 19.625 34.5616 20.2472 36.2456C20.8308 36.572 22.6502 35.8331 22.6588 35.0771ZM16.3122 37.5257C16.6298 35.9749 15.8488 33.8441 15.1107 32.7487C13.7676 32.5726 13.2312 34.5573 13.2098 35.6699C13.1883 36.7267 13.5102 37.3754 14.171 37.8007C14.6473 38.1057 16.0891 38.6384 16.3165 37.5257H16.3122ZM194.611 52.8707C199.216 55.9251 204.078 57.9184 209.626 59.263L211.269 43.3596C202.666 42.5519 195.56 39.4116 188.359 34.8752C189.119 36.4002 190.063 37.4828 188.964 38.9391C187.793 40.6746 185.845 41.6971 183.965 43.0717C186.905 47.024 190.586 49.8507 194.607 52.8664L194.611 52.8707ZM137.574 38.2861C134.867 36.1897 131.678 35.3735 128.327 36.31C131.215 37.4312 134.034 38.6255 137.574 38.2861ZM247.34 73.186C247.739 75.5273 246.075 76.743 244.324 77.0652C239.951 77.8728 235.776 78.122 231.3 78.616C231.618 80.5492 233.047 81.5845 234.506 82.6413C237.754 84.9954 240.243 88.0154 242.354 91.5896C248.332 90.6875 253.987 89.5405 259.527 87.6503C262.75 86.5505 264.955 84.2565 265.217 80.678C265.947 70.7373 259.463 56.578 253.829 48.1967C248.439 40.1806 248.078 45.3829 243.238 43.381C239.475 41.8259 236.252 39.5104 233.733 36.005C230.472 37.8608 227.237 38.8618 223.396 39.6393C224.302 43.7161 225.022 47.7586 225.216 51.9557C225.271 53.1284 224.044 53.6568 223.323 53.6311C222.602 53.6053 221.504 53.4721 221.354 52.4282L219.611 40.2064C218.217 39.9959 216.985 39.8455 215.552 40.1548L213.887 57.3814L212.797 73.1774C224.662 74.3201 231.309 75.3082 243.26 73.0228L238.96 56.3117C238.621 54.9886 239.376 53.8287 240.496 53.6912C241.243 53.5967 242.461 53.949 242.757 55.1088C244.294 61.0801 246.276 66.9483 247.34 73.1774V73.186ZM181.034 40.5715C179.588 39.0723 178.395 39.0035 177.318 38.7243C175.267 40.0474 173.019 40.825 171.392 42.9515C174.997 43.2092 177.996 41.9677 181.034 40.5715ZM150.954 45.3142C152.782 45.0865 153.357 44.7128 153.129 43.7118C152.962 42.9815 152.58 42.2727 151.499 42.5691C150.684 43.2651 150.216 44.571 150.954 45.3142ZM29.3829 87.0574C29.8292 89.1796 30.9363 90.3395 33.2363 90.3911C39.2353 90.5285 45.1527 89.9744 51.1774 88.9047C60.965 87.1669 63.1837 83.2531 63.1924 83.174C64.0487 75.5146 61.8365 62.7317 49.7828 52.2864C39.3511 58.7518 26.3319 57.201 17.3378 48.592C14.2954 54.0392 12.4288 59.3059 10.4806 64.9207C7.11642 76.0986 6.20242 92.6035 10.9355 103.403C14.1924 110.835 22.8519 110.47 29.7519 109.044L43.0801 106.29L42.9256 94.1801C37.2099 94.3304 27.2245 96.6502 25.7526 89.0465C24.4524 82.3191 24.2808 75.4972 25.4909 68.787C25.6969 67.6486 27.0528 67.0514 27.8338 67.1588C30.9534 67.5884 27.1944 76.6098 29.3829 87.0532V87.0574ZM152.224 85.498C151.945 81.6145 152.031 77.7955 152.353 73.8862C152.657 70.2132 157.588 72.4557 160.167 71.8156C160.012 68.8901 160.394 65.3932 158.377 63.2152C153.34 57.7723 154.52 56.3289 153.267 49.2535C147.641 48.2827 153.988 55.9251 147.165 61.7976C146.092 62.7212 145.508 64.229 145.504 65.7111C145.47 74.3588 145.594 82.7186 146.049 91.3061C146.122 92.6808 147.268 93.8063 148.692 93.8621C152.464 94.0125 156.472 94.0855 160.008 92.728C160.948 91.4092 160.78 88.8102 160.334 87.5257C157.541 87.4484 152.503 89.3944 152.224 85.5023V85.498ZM279.442 87.7061C281.163 79.342 284.149 67.2018 275.859 61.3852C272.177 58.8033 267.951 57.6735 263.393 57.2482C266.586 63.0477 271.242 78.2251 268.534 84.4498L279.438 87.7061H279.442ZM10.9698 118.327C9.27485 114.586 8.1377 111.493 8.97876 107.682C1.38352 96.2893 2.92832 74.2084 7.28378 61.2219C1.61095 60.947 -3.49116 64.3622 -6.0229 69.4486C-11.494 80.4375 -9.40857 96.9423 -4.78278 108.013C-1.46147 115.965 1.43073 119.466 10.9741 118.332L10.9698 118.327ZM189.968 72.185C190.943 71.386 189.587 68.8428 188.286 68.7741C186.557 68.6839 184.527 70.2089 185.064 72.0347C186.54 72.0003 188.621 72.9583 189.964 72.185H189.968ZM75.3534 75.5616C74.89 74.5521 75.392 73.1087 76.4133 73.1731C77.6148 73.2461 78.6661 73.8991 79.8118 73.6328C80.2238 73.534 80.168 72.7006 79.9878 72.46C78.1469 70.0027 70.6761 73.9421 68.0328 74.9774C69.3416 78.0275 69.8565 81.1678 70.1569 84.4584C72.9032 83.9472 75.4778 83.1997 77.8766 81.7563C78.3014 80.5792 78.4945 79.4365 78.7391 78.0833C77.4689 77.4604 76.0743 77.121 75.362 75.5659L75.3534 75.5616ZM200.778 79.6556C199.997 82.9162 194.521 79.9735 192.457 79.0413C192.221 80.4632 191.882 81.7262 190.827 82.1601C189.96 82.5167 188.346 82.826 187.801 81.9067C186.712 80.0766 190.479 77.8299 188.81 76.8289C187.995 76.3392 186.145 75.901 185.188 76.3263C184.176 76.7731 180.185 80.4718 179.095 79.0413C178.095 77.7268 181.034 74.8958 181.639 72.8294C179.807 73.2161 178.52 74.3545 177.057 75.4413L172.654 78.7191C171.821 79.3377 171.547 80.3473 171.697 81.2752C172.251 84.7162 194.774 89.6393 208.45 83.2642C213.265 81.0217 203.653 78.2079 201.64 76.0213C199.744 73.9635 197.585 71.6695 194.483 72.7994C193.727 73.0743 193.659 75.1535 194.59 75.3812C196.658 75.8838 201.366 77.1855 200.778 79.6513V79.6556ZM120.135 75.669C117.96 73.6499 113.995 72.8037 112.102 76.0127C113.475 77.6322 119.959 77.9415 120.135 75.669ZM160.562 83.5778L160.369 75.9998C158.948 75.7077 157.631 75.8237 156.15 75.9268C155.867 78.5473 155.82 80.9358 156.009 83.5735C157.532 83.9343 158.935 83.857 160.562 83.5735V83.5778ZM130.764 109.108L184.956 109.143C201.383 109.151 217.414 109.216 233.665 107.068C242.727 105.869 250.846 101.904 259.617 99.7604L280 92.35C275.709 90.9753 271.272 89.1409 266.77 88.518C258.665 93.6602 252.94 93.1447 245.169 95.5075C243.401 96.0445 241.706 95.529 240.247 95.2583C233.502 97.7156 232.961 100.864 226.391 98.1623C224.683 97.4621 222.855 97.3246 222.705 94.7342C222.521 91.6369 219.255 93.7676 217.646 91.0913C217.002 90.0216 216.796 88.4923 217.256 87.298C219.65 81.026 227.022 80.3816 225.653 78.8007C225.349 78.4485 214.123 77.7998 211.201 76.9621C212.999 78.4957 213.793 80.2613 213.625 82.2804C213.458 84.2995 212.093 86.0093 210.042 86.9801C202.426 90.5887 193.843 91.1815 185.394 90.1892C180.339 89.5963 175.653 88.6254 171.246 86.3185C169.088 85.1887 167.874 83.5992 167.758 81.3482C167.642 79.0971 168.303 77.5034 170.586 75.8967C168.328 75.5015 166.513 75.9268 164.329 75.9225L164.84 90.593C164.951 93.8149 163.334 96.3624 160.158 97.0755C154.76 98.2869 142.402 100.254 142.028 91.8989C141.801 86.8341 141.556 82.0141 141.621 76.8547C136.896 76.6012 132.562 76.3649 127.799 76.9578C131.301 78.2938 134.605 79.9434 136.703 83.1181C138.055 85.163 137.085 87.878 135.356 89.4717C133.897 90.8121 132.086 91.74 130.121 92.4101C118.449 96.3967 103.975 97.9604 92.4019 93.1447C88.9175 91.6927 87.2183 87.6932 89.3123 84.5401C91.0459 81.9281 93.8652 80.9315 96.3197 79.08C91.8012 79.9477 87.9134 81.7692 83.691 83.174C78.164 85.0169 77.4603 88.4064 68.7709 88.5138C66.7841 88.5395 64.9689 90.2665 63.1924 91.0011C65.0419 92.8526 66.5953 95.5977 65.3079 97.8788C63.1924 101.625 59.6265 103.936 56.2838 106.449L91.0545 108.219L113.355 108.803L130.769 109.117L130.764 109.108ZM125.654 84.1749C123.126 87.3882 118.629 79.0284 116.136 81.9625C117.539 83.3286 119.286 85.8417 117.711 87.4698C117.033 88.1701 116.097 88.1572 115.291 87.8049C112.729 86.6923 111.952 84.1706 111.961 81.6188C111.214 80.4804 109.45 78.7707 108.099 78.4184C104.679 77.5248 101.825 79.8146 99.2719 81.6017L93.4403 85.6828C92.7409 86.1725 92.2045 86.9672 92.3805 87.7706C92.5049 88.3247 93.0584 89.1538 93.9338 89.4588C102.331 92.3887 111.274 92.5734 120.037 90.8121C122.697 90.2794 132.91 88.4064 133.12 85.6312C133.292 83.3716 127.198 80.7854 124.868 79.1272C124.298 78.7191 123.864 77.8256 123.238 78.3582C120.358 80.8198 127.43 81.9196 125.654 84.1792V84.1749ZM230.227 91.0569C231.004 92.2727 228.97 94.2359 229.768 95.1123C232.811 94.5882 235.128 93.6774 237.9 92.0837C235.381 88.8274 232.755 85.4937 228.992 83.4833C227.288 82.5725 221.791 86.0565 221.534 87.2894C223.079 87.4484 224.263 86.4431 225.387 87.0703C227.52 88.256 223.07 92.2469 225.649 92.5046C226.739 92.612 229.065 89.2312 230.232 91.0612L230.227 91.0569ZM58.1504 100.147C56.8159 98.8583 54.7304 98.0163 55.9491 96.4096C57.2364 94.7085 61.1499 97.3118 61.742 96.3065C62.7891 94.5366 58.3821 92.3457 56.7901 92.3672C53.4087 92.4101 50.3706 93.308 46.9249 93.54L47.0322 105.792C49.4266 105.337 51.1817 105.238 53.0612 104.529C52.5419 103.683 52.1643 103.068 52.1386 102.445C51.997 99.0602 55.919 103.386 58.1504 100.147ZM274.859 107.136C278.966 105.71 279.266 100.925 279.807 96.9853L272.898 99.3222C259.965 103.695 247.34 108.112 233.922 111.493C233.133 114.637 232.249 117.67 232.094 121.236C236.797 120.144 241.024 118.894 245.512 117.335L274.859 107.141V107.136ZM228.018 121.708C228.391 118.151 229.077 115.239 229.854 111.982C210.111 113.288 190.681 113.89 170.839 113.808L136.501 113.671L99.2462 112.768L86.772 112.395L78.1898 111.982L46.9335 109.907C45.6118 109.821 43.5607 110.036 42.7368 110.887C42.4021 113.49 42.6681 116.691 43.9898 118.903C44.6377 119.844 46.6846 119.921 47.796 119.947L79.0609 120.613L109.12 120.909L147.989 121.296L184.107 121.622C198.834 121.755 213.033 122.172 228.018 121.717V121.708ZM48.7615 150.907L47.9075 138.66C47.5643 133.745 47.7187 128.9 47.0193 124.071C44.0842 123.779 41.1276 123.018 39.9476 120.368C38.7675 117.717 38.7289 114.663 38.2483 111.462C30.7861 112.747 19.2817 116.239 12.712 111.334C13.3814 114.998 14.952 118.254 17.8956 120.471C27.4262 127.649 39.1366 120.63 41.0933 131.696L44.5433 151.2C46.1868 151.169 47.2081 151.333 48.7658 150.907H48.7615ZM268.41 154.885C268.603 156.393 269.77 157.227 270.783 156.96C271.473 156.78 272.645 155.921 272.649 154.774L272.812 112.206L266.316 114.461L267.401 138.634C267.646 144.103 267.702 149.357 268.405 154.885H268.41ZM36.7765 132.714C37.1026 130.601 35.5835 129.016 33.5925 128.857L24.5082 127.671C20.23 127.112 16.4925 125.149 13.8191 122.086C9.64388 123.422 5.6832 122.881 1.66673 121.665C0.834263 123.16 0.30646 125.089 0.885758 126.816C1.84696 129.673 9.79836 130.708 12.6391 130.974C20.6892 131.726 28.4389 132.749 36.7722 132.714H36.7765ZM59.0601 168.903L58.4937 145.546L58.0431 124.264L51.0873 124.015C51.5035 138.286 52.8423 152.029 54.1768 166.089C54.3699 168.112 54.3013 170.192 55.3955 171.755C55.9791 172.589 57.6269 172.099 58.1676 171.639C58.7082 171.18 59.0859 170.149 59.0558 168.907L59.0601 168.903ZM70.174 146.586L66.8227 124.449C64.8874 124.629 63.3469 124.174 61.8322 124.737L62.5616 149.49C64.6729 147.612 67.2003 147.028 70.1783 146.586H70.174ZM226.833 170.922C227.314 163.443 227.262 156.346 227.378 148.979L227.739 125.811L220.452 126.064L220.899 139.54L221.323 158.851C221.435 163.829 221.173 168.765 222.22 173.56C222.482 174.767 224.731 174.367 225.404 173.873C226.112 173.349 226.743 172.314 226.833 170.922ZM17.3764 143.501L17.5395 135.889L7.91886 134.398L6.47276 142.651L17.3764 143.501ZM198.328 153.36L202.94 147.969C195.264 143.686 187.488 145.649 181.391 150.929C177.052 154.688 195.435 156.737 198.328 153.36ZM217.324 158.167L217.024 145.971C212.025 145.177 202.49 152.218 201.464 156.496C200.722 159.598 214.187 160.01 217.324 158.167ZM114.883 154.34C110.025 148.119 102.057 146.019 94.496 148.905C94.4144 152.467 96.5943 155.478 100.28 156.617C105.709 158.296 117.801 158.082 114.883 154.34ZM236.093 152.544C236.304 149.919 233.33 148.33 231.309 149.129L231.296 156.294C233.506 156.05 235.896 154.997 236.093 152.544ZM84.8281 158.704C85.21 157.373 85.1199 156.595 84.532 155.946C80.2796 151.277 73.667 148.656 67.1402 151.337L76.1644 159.886C78.2585 161.866 82.6182 159.491 84.8324 158.704H84.8281ZM71.603 161.235C69.3759 158 66.6639 155.341 62.7805 153.936C62.6475 157.656 62.7547 160.736 63.0465 164.139C64.4197 164.839 73.8773 164.534 71.603 161.235ZM49.7055 161.218C49.5296 158.816 49.5553 157.059 49.0833 155.019C47.4312 154.903 46.0753 154.855 44.5219 154.997C44.1614 156.827 44.1314 158.915 45.496 160.221C46.5559 161.235 48.2723 161.368 49.7055 161.213V161.218Z" fill="#FAF0CA"/>
<path d="M38.9557 38.278C40.0242 40.3271 37.943 41.7834 36.1923 41.9853C34.7805 42.1486 33.6906 41.7447 33.3601 40.413C33.107 39.382 33.6262 38.308 34.9049 37.7539C36.0635 37.2512 38.1576 36.7486 38.9557 38.278Z" fill="#FAF0CA"/>
<path d="M46.5816 38.9222C45.26 39.2788 44.2344 38.6687 43.7324 37.7967C43.0672 36.6454 43.8439 35.7217 45.0111 35.0688C45.9079 34.5704 46.7747 34.433 47.5343 34.8239C48.4354 35.2922 48.71 36.1127 48.5856 37.1394C48.4912 37.9255 47.796 38.5957 46.5816 38.9265V38.9222Z" fill="#FAF0CA"/>
</g>
<defs>
<linearGradient id="paint0_linear_884_3489" x1="29.5" y1="0" x2="63" y2="66.5" gradientUnits="userSpaceOnUse">
<stop stop-color="#003C69"/>
<stop offset="1" stop-color="#0076CF"/>
</linearGradient>
<clipPath id="clip0_884_3489">
<rect width="59" height="62" rx="15" fill="white"/>
</clipPath>
</defs>
</svg>
