<svg width="479" height="237" viewBox="0 0 479 237" fill="none" xmlns="http://www.w3.org/2000/svg">
<g clip-path="url(#clip0_933_3025)">
<rect width="479" height="237" rx="20" fill="white"/>
<g filter="url(#filter0_d_933_3025)">
<circle cx="563.5" cy="129.5" r="358.5" fill="url(#paint0_linear_933_3025)"/>
</g>
<rect x="255" y="45" width="118" height="23" rx="4" fill="#FAF0CA" fill-opacity="0.1"/>
<path d="M268.81 60.16C268.11 60.16 267.507 60.0133 267 59.72C266.493 59.42 266.103 58.9933 265.83 58.44C265.563 57.8867 265.43 57.2267 265.43 56.46C265.43 55.6933 265.563 55.0333 265.83 54.48C266.103 53.92 266.493 53.49 267 53.19C267.507 52.89 268.11 52.74 268.81 52.74C269.523 52.74 270.13 52.89 270.63 53.19C271.137 53.49 271.523 53.92 271.79 54.48C272.063 55.0333 272.2 55.6933 272.2 56.46C272.2 57.2267 272.063 57.8867 271.79 58.44C271.523 58.9933 271.137 59.42 270.63 59.72C270.13 60.0133 269.523 60.16 268.81 60.16ZM268.81 59.03C269.243 59.03 269.61 58.93 269.91 58.73C270.217 58.5233 270.45 58.23 270.61 57.85C270.777 57.4633 270.86 57 270.86 56.46C270.86 55.92 270.777 55.4567 270.61 55.07C270.45 54.6833 270.217 54.3867 269.91 54.18C269.61 53.9733 269.243 53.87 268.81 53.87C268.39 53.87 268.027 53.9733 267.72 54.18C267.413 54.3867 267.177 54.6833 267.01 55.07C266.85 55.4567 266.77 55.92 266.77 56.46C266.77 57 266.85 57.4633 267.01 57.85C267.177 58.23 267.413 58.5233 267.72 58.73C268.027 58.93 268.39 59.03 268.81 59.03ZM273.427 61.5V54.66H274.657L274.687 55.8L274.557 55.74C274.69 55.3467 274.907 55.05 275.207 54.85C275.514 54.6433 275.87 54.54 276.277 54.54C276.784 54.54 277.204 54.6667 277.537 54.92C277.877 55.1733 278.13 55.51 278.297 55.93C278.464 56.35 278.547 56.8167 278.547 57.33C278.547 57.8433 278.46 58.31 278.287 58.73C278.12 59.15 277.867 59.4867 277.527 59.74C277.194 59.9933 276.774 60.12 276.267 60.12C276 60.12 275.75 60.0733 275.517 59.98C275.29 59.8867 275.094 59.7533 274.927 59.58C274.767 59.4067 274.654 59.2033 274.587 58.97L274.707 58.87V61.5H273.427ZM275.967 59.08C276.354 59.08 276.657 58.9267 276.877 58.62C277.104 58.3067 277.217 57.8767 277.217 57.33C277.217 56.7833 277.104 56.3567 276.877 56.05C276.657 55.7367 276.354 55.58 275.967 55.58C275.707 55.58 275.484 55.6467 275.297 55.78C275.11 55.9067 274.964 56.1 274.857 56.36C274.757 56.62 274.707 56.9433 274.707 57.33C274.707 57.7167 274.757 58.04 274.857 58.3C274.957 58.56 275.1 58.7567 275.287 58.89C275.48 59.0167 275.707 59.08 275.967 59.08ZM281.95 60.12C281.417 60.12 280.954 60.0067 280.56 59.78C280.167 59.5467 279.864 59.22 279.65 58.8C279.437 58.38 279.33 57.89 279.33 57.33C279.33 56.77 279.437 56.2833 279.65 55.87C279.864 55.45 280.164 55.1233 280.55 54.89C280.944 54.6567 281.4 54.54 281.92 54.54C282.427 54.54 282.87 54.6533 283.25 54.88C283.637 55.1067 283.934 55.4333 284.14 55.86C284.347 56.2867 284.45 56.8 284.45 57.4V57.69H280.66C280.687 58.1567 280.814 58.51 281.04 58.75C281.274 58.9833 281.58 59.1 281.96 59.1C282.247 59.1 282.484 59.0367 282.67 58.91C282.864 58.7767 282.997 58.5933 283.07 58.36L284.38 58.44C284.234 58.96 283.944 59.37 283.51 59.67C283.084 59.97 282.564 60.12 281.95 60.12ZM280.66 56.83H283.13C283.104 56.3967 282.98 56.0767 282.76 55.87C282.54 55.6567 282.26 55.55 281.92 55.55C281.58 55.55 281.297 55.66 281.07 55.88C280.85 56.1 280.714 56.4167 280.66 56.83ZM285.551 60V54.66H286.711L286.761 56.16L286.611 56.1C286.664 55.7267 286.774 55.4267 286.941 55.2C287.107 54.9733 287.311 54.8067 287.551 54.7C287.791 54.5933 288.054 54.54 288.341 54.54C288.734 54.54 289.064 54.6267 289.331 54.8C289.604 54.9733 289.811 55.2133 289.951 55.52C290.091 55.82 290.161 56.17 290.161 56.57V60H288.881V56.98C288.881 56.68 288.851 56.4267 288.791 56.22C288.731 56.0133 288.631 55.8567 288.491 55.75C288.357 55.6367 288.177 55.58 287.951 55.58C287.611 55.58 287.337 55.7 287.131 55.94C286.931 56.18 286.831 56.5267 286.831 56.98V60H285.551ZM296.44 60.12C295.913 60.12 295.45 60.0067 295.05 59.78C294.657 59.5467 294.35 59.22 294.13 58.8C293.917 58.38 293.81 57.89 293.81 57.33C293.81 56.7633 293.917 56.2733 294.13 55.86C294.35 55.44 294.657 55.1167 295.05 54.89C295.45 54.6567 295.913 54.54 296.44 54.54C296.967 54.54 297.427 54.6567 297.82 54.89C298.213 55.1167 298.517 55.44 298.73 55.86C298.95 56.2733 299.06 56.7633 299.06 57.33C299.06 57.89 298.95 58.38 298.73 58.8C298.517 59.22 298.213 59.5467 297.82 59.78C297.427 60.0067 296.967 60.12 296.44 60.12ZM296.44 59.08C296.853 59.08 297.17 58.9267 297.39 58.62C297.617 58.3133 297.73 57.8833 297.73 57.33C297.73 56.7833 297.617 56.3567 297.39 56.05C297.17 55.7367 296.853 55.58 296.44 55.58C296.027 55.58 295.707 55.7367 295.48 56.05C295.253 56.3567 295.14 56.7833 295.14 57.33C295.14 57.8833 295.253 58.3133 295.48 58.62C295.707 58.9267 296.027 59.08 296.44 59.08ZM300.148 60V54.66H301.308L301.358 56.16L301.208 56.1C301.261 55.7267 301.371 55.4267 301.538 55.2C301.704 54.9733 301.908 54.8067 302.148 54.7C302.388 54.5933 302.651 54.54 302.938 54.54C303.331 54.54 303.661 54.6267 303.928 54.8C304.201 54.9733 304.408 55.2133 304.548 55.52C304.688 55.82 304.758 56.17 304.758 56.57V60H303.478V56.98C303.478 56.68 303.448 56.4267 303.388 56.22C303.328 56.0133 303.228 55.8567 303.088 55.75C302.954 55.6367 302.774 55.58 302.548 55.58C302.208 55.58 301.934 55.7 301.728 55.94C301.528 56.18 301.428 56.5267 301.428 56.98V60H300.148ZM309.097 61.5V60.51H309.777C309.95 60.51 310.077 60.4833 310.157 60.43C310.243 60.3767 310.31 60.2867 310.357 60.16L310.507 59.79H310.137L308.227 54.66H309.557L310.897 58.59L312.177 54.66H313.507L311.417 60.56C311.297 60.8933 311.127 61.1333 310.907 61.28C310.693 61.4267 310.393 61.5 310.007 61.5H309.097ZM316.557 60.12C316.03 60.12 315.567 60.0067 315.167 59.78C314.773 59.5467 314.467 59.22 314.247 58.8C314.033 58.38 313.927 57.89 313.927 57.33C313.927 56.7633 314.033 56.2733 314.247 55.86C314.467 55.44 314.773 55.1167 315.167 54.89C315.567 54.6567 316.03 54.54 316.557 54.54C317.083 54.54 317.543 54.6567 317.937 54.89C318.33 55.1167 318.633 55.44 318.847 55.86C319.067 56.2733 319.177 56.7633 319.177 57.33C319.177 57.89 319.067 58.38 318.847 58.8C318.633 59.22 318.33 59.5467 317.937 59.78C317.543 60.0067 317.083 60.12 316.557 60.12ZM316.557 59.08C316.97 59.08 317.287 58.9267 317.507 58.62C317.733 58.3133 317.847 57.8833 317.847 57.33C317.847 56.7833 317.733 56.3567 317.507 56.05C317.287 55.7367 316.97 55.58 316.557 55.58C316.143 55.58 315.823 55.7367 315.597 56.05C315.37 56.3567 315.257 56.7833 315.257 57.33C315.257 57.8833 315.37 58.3133 315.597 58.62C315.823 58.9267 316.143 59.08 316.557 59.08ZM322.024 60.12C321.484 60.12 321.054 59.9433 320.734 59.59C320.421 59.23 320.264 58.7333 320.264 58.1V54.66H321.544V57.78C321.544 58.2267 321.618 58.5567 321.764 58.77C321.918 58.9767 322.148 59.08 322.454 59.08C322.801 59.08 323.068 58.9667 323.254 58.74C323.448 58.5067 323.544 58.17 323.544 57.73V54.66H324.824V60H323.654L323.624 58.53L323.784 58.58C323.704 59.0867 323.514 59.47 323.214 59.73C322.914 59.99 322.518 60.12 322.024 60.12ZM326.331 60V54.66H327.531L327.581 56.14L327.471 56.12C327.551 55.6067 327.701 55.2367 327.921 55.01C328.148 54.7767 328.455 54.66 328.841 54.66H329.331V55.76H328.831C328.558 55.76 328.331 55.8 328.151 55.88C327.971 55.96 327.835 56.0867 327.741 56.26C327.655 56.4267 327.611 56.6467 327.611 56.92V60H326.331ZM332.986 61.5V54.66H334.216L334.246 55.8L334.116 55.74C334.25 55.3467 334.466 55.05 334.766 54.85C335.073 54.6433 335.43 54.54 335.836 54.54C336.343 54.54 336.763 54.6667 337.096 54.92C337.436 55.1733 337.69 55.51 337.856 55.93C338.023 56.35 338.106 56.8167 338.106 57.33C338.106 57.8433 338.02 58.31 337.846 58.73C337.68 59.15 337.426 59.4867 337.086 59.74C336.753 59.9933 336.333 60.12 335.826 60.12C335.56 60.12 335.31 60.0733 335.076 59.98C334.85 59.8867 334.653 59.7533 334.486 59.58C334.326 59.4067 334.213 59.2033 334.146 58.97L334.266 58.87V61.5H332.986ZM335.526 59.08C335.913 59.08 336.216 58.9267 336.436 58.62C336.663 58.3067 336.776 57.8767 336.776 57.33C336.776 56.7833 336.663 56.3567 336.436 56.05C336.216 55.7367 335.913 55.58 335.526 55.58C335.266 55.58 335.043 55.6467 334.856 55.78C334.67 55.9067 334.523 56.1 334.416 56.36C334.316 56.62 334.266 56.9433 334.266 57.33C334.266 57.7167 334.316 58.04 334.416 58.3C334.516 58.56 334.66 58.7567 334.846 58.89C335.04 59.0167 335.266 59.08 335.526 59.08ZM339.2 60V52.9H340.48V55.88H340.32C340.373 55.5733 340.48 55.3233 340.64 55.13C340.8 54.93 340.996 54.7833 341.23 54.69C341.463 54.59 341.72 54.54 342 54.54C342.393 54.54 342.723 54.6267 342.99 54.8C343.263 54.9667 343.466 55.2033 343.6 55.51C343.74 55.8167 343.81 56.17 343.81 56.57V60H342.53V56.88C342.53 56.4467 342.456 56.1233 342.31 55.91C342.163 55.69 341.933 55.58 341.62 55.58C341.273 55.58 340.996 55.6933 340.79 55.92C340.583 56.1467 340.48 56.4767 340.48 56.91V60H339.2ZM347.499 60.12C346.972 60.12 346.509 60.0067 346.109 59.78C345.715 59.5467 345.409 59.22 345.189 58.8C344.975 58.38 344.869 57.89 344.869 57.33C344.869 56.7633 344.975 56.2733 345.189 55.86C345.409 55.44 345.715 55.1167 346.109 54.89C346.509 54.6567 346.972 54.54 347.499 54.54C348.025 54.54 348.485 54.6567 348.879 54.89C349.272 55.1167 349.575 55.44 349.789 55.86C350.009 56.2733 350.119 56.7633 350.119 57.33C350.119 57.89 350.009 58.38 349.789 58.8C349.575 59.22 349.272 59.5467 348.879 59.78C348.485 60.0067 348.025 60.12 347.499 60.12ZM347.499 59.08C347.912 59.08 348.229 58.9267 348.449 58.62C348.675 58.3133 348.789 57.8833 348.789 57.33C348.789 56.7833 348.675 56.3567 348.449 56.05C348.229 55.7367 347.912 55.58 347.499 55.58C347.085 55.58 346.765 55.7367 346.539 56.05C346.312 56.3567 346.199 56.7833 346.199 57.33C346.199 57.8833 346.312 58.3133 346.539 58.62C346.765 58.9267 347.085 59.08 347.499 59.08ZM351.206 60V54.66H352.366L352.416 56.16L352.266 56.1C352.32 55.7267 352.43 55.4267 352.596 55.2C352.763 54.9733 352.966 54.8067 353.206 54.7C353.446 54.5933 353.71 54.54 353.996 54.54C354.39 54.54 354.72 54.6267 354.986 54.8C355.26 54.9733 355.466 55.2133 355.606 55.52C355.746 55.82 355.816 56.17 355.816 56.57V60H354.536V56.98C354.536 56.68 354.506 56.4267 354.446 56.22C354.386 56.0133 354.286 55.8567 354.146 55.75C354.013 55.6367 353.833 55.58 353.606 55.58C353.266 55.58 352.993 55.7 352.786 55.94C352.586 56.18 352.486 56.5267 352.486 56.98V60H351.206ZM359.495 60.12C358.962 60.12 358.498 60.0067 358.105 59.78C357.712 59.5467 357.408 59.22 357.195 58.8C356.982 58.38 356.875 57.89 356.875 57.33C356.875 56.77 356.982 56.2833 357.195 55.87C357.408 55.45 357.708 55.1233 358.095 54.89C358.488 54.6567 358.945 54.54 359.465 54.54C359.972 54.54 360.415 54.6533 360.795 54.88C361.182 55.1067 361.478 55.4333 361.685 55.86C361.892 56.2867 361.995 56.8 361.995 57.4V57.69H358.205C358.232 58.1567 358.358 58.51 358.585 58.75C358.818 58.9833 359.125 59.1 359.505 59.1C359.792 59.1 360.028 59.0367 360.215 58.91C360.408 58.7767 360.542 58.5933 360.615 58.36L361.925 58.44C361.778 58.96 361.488 59.37 361.055 59.67C360.628 59.97 360.108 60.12 359.495 60.12ZM358.205 56.83H360.675C360.648 56.3967 360.525 56.0767 360.305 55.87C360.085 55.6567 359.805 55.55 359.465 55.55C359.125 55.55 358.842 55.66 358.615 55.88C358.395 56.1 358.258 56.4167 358.205 56.83Z" fill="#FAF0CA"/>
<path d="M256.776 101V83.96H263.4C265.512 83.96 267.128 84.336 268.248 85.088C269.368 85.824 269.928 86.992 269.928 88.592C269.928 89.296 269.784 89.912 269.496 90.44C269.208 90.952 268.784 91.36 268.224 91.664C267.68 91.968 267.016 92.152 266.232 92.216V92.168C267.656 92.264 268.744 92.68 269.496 93.416C270.264 94.136 270.648 95.096 270.648 96.296C270.648 97.88 270.088 99.064 268.968 99.848C267.864 100.616 266.28 101 264.216 101H256.776ZM260.424 98.024H264.048C264.928 98.024 265.632 97.848 266.16 97.496C266.704 97.128 266.976 96.584 266.976 95.864C266.976 95.144 266.704 94.6 266.16 94.232C265.632 93.848 264.928 93.656 264.048 93.656H260.424V98.024ZM260.424 91.016H263.304C264.2 91.016 264.912 90.84 265.44 90.488C265.984 90.136 266.256 89.632 266.256 88.976C266.256 88.272 265.992 87.76 265.464 87.44C264.952 87.104 264.232 86.936 263.304 86.936H260.424V91.016ZM278.647 101.288C277.335 101.288 276.191 101.016 275.215 100.472C274.239 99.912 273.479 99.128 272.935 98.12C272.391 97.112 272.119 95.928 272.119 94.568C272.119 93.208 272.391 92.032 272.935 91.04C273.479 90.032 274.239 89.248 275.215 88.688C276.191 88.128 277.335 87.848 278.647 87.848C279.959 87.848 281.103 88.128 282.079 88.688C283.055 89.248 283.815 90.032 284.359 91.04C284.903 92.032 285.175 93.208 285.175 94.568C285.175 95.928 284.903 97.112 284.359 98.12C283.815 99.128 283.055 99.912 282.079 100.472C281.103 101.016 279.959 101.288 278.647 101.288ZM278.647 98.528C279.543 98.528 280.239 98.184 280.735 97.496C281.231 96.792 281.479 95.816 281.479 94.568C281.479 93.32 281.231 92.352 280.735 91.664C280.239 90.96 279.543 90.608 278.647 90.608C277.751 90.608 277.055 90.96 276.559 91.664C276.063 92.352 275.815 93.32 275.815 94.568C275.815 95.816 276.063 96.792 276.559 97.496C277.055 98.184 277.751 98.528 278.647 98.528ZM291.161 101.288C289.833 101.288 288.793 100.864 288.041 100.016C287.305 99.152 286.937 97.952 286.937 96.416V88.136H290.537V95.576C290.537 96.568 290.689 97.296 290.993 97.76C291.297 98.208 291.777 98.432 292.433 98.432C293.169 98.432 293.737 98.184 294.137 97.688C294.553 97.176 294.761 96.416 294.761 95.408V88.136H298.361V101H295.073L294.977 97.304L295.433 97.4C295.241 98.68 294.785 99.648 294.065 100.304C293.345 100.96 292.377 101.288 291.161 101.288ZM301.035 101V88.136H304.275L304.419 91.904L303.963 91.784C304.091 90.824 304.347 90.056 304.731 89.48C305.131 88.904 305.627 88.488 306.219 88.232C306.811 87.976 307.459 87.848 308.163 87.848C309.091 87.848 309.875 88.048 310.515 88.448C311.171 88.848 311.667 89.416 312.003 90.152C312.355 90.872 312.531 91.728 312.531 92.72V101H308.931V93.92C308.931 93.232 308.875 92.648 308.763 92.168C308.651 91.688 308.451 91.328 308.163 91.088C307.875 90.832 307.475 90.704 306.963 90.704C306.211 90.704 305.635 90.984 305.235 91.544C304.835 92.088 304.635 92.88 304.635 93.92V101H301.035ZM319.711 101C318.383 101 317.407 100.696 316.783 100.088C316.159 99.464 315.847 98.48 315.847 97.136V85.112H319.447V96.704C319.447 97.328 319.575 97.752 319.831 97.976C320.103 98.2 320.503 98.312 321.031 98.312H322.831V101H319.711ZM313.783 90.824V88.136H322.831V90.824H313.783ZM328.495 101C327.167 101 326.191 100.696 325.567 100.088C324.943 99.464 324.631 98.48 324.631 97.136V85.112H328.231V96.704C328.231 97.328 328.359 97.752 328.615 97.976C328.887 98.2 329.287 98.312 329.815 98.312H331.615V101H328.495ZM322.567 90.824V88.136H331.615V90.824H322.567ZM338.337 101V88.136H341.937V101H338.337ZM338.265 86.552V83.672H341.985V86.552H338.265ZM349.868 101.288C348.54 101.288 347.428 101.104 346.532 100.736C345.636 100.352 344.948 99.84 344.468 99.2C344.004 98.544 343.74 97.792 343.676 96.944L347.324 96.824C347.436 97.432 347.692 97.904 348.092 98.24C348.492 98.576 349.084 98.744 349.868 98.744C350.508 98.744 351.004 98.64 351.356 98.432C351.724 98.224 351.908 97.904 351.908 97.472C351.908 97.2 351.844 96.976 351.716 96.8C351.588 96.608 351.332 96.448 350.948 96.32C350.58 96.176 350.028 96.048 349.292 95.936C347.932 95.696 346.868 95.416 346.1 95.096C345.332 94.776 344.788 94.36 344.468 93.848C344.148 93.336 343.988 92.712 343.988 91.976C343.988 90.744 344.46 89.752 345.404 89C346.364 88.232 347.796 87.848 349.7 87.848C350.916 87.848 351.932 88.04 352.748 88.424C353.58 88.808 354.22 89.336 354.668 90.008C355.132 90.664 355.42 91.416 355.532 92.264L351.908 92.408C351.86 91.992 351.732 91.64 351.524 91.352C351.332 91.048 351.084 90.816 350.78 90.656C350.476 90.48 350.108 90.392 349.676 90.392C349.036 90.392 348.54 90.528 348.188 90.8C347.852 91.056 347.684 91.4 347.684 91.832C347.684 92.152 347.756 92.416 347.9 92.624C348.06 92.816 348.316 92.976 348.668 93.104C349.02 93.232 349.492 93.336 350.084 93.416C351.46 93.608 352.548 93.88 353.348 94.232C354.164 94.568 354.748 94.992 355.1 95.504C355.452 96.016 355.628 96.648 355.628 97.4C355.628 98.232 355.388 98.936 354.908 99.512C354.428 100.088 353.756 100.528 352.892 100.832C352.044 101.136 351.036 101.288 349.868 101.288ZM262.416 125.288C261.104 125.288 259.96 125.016 258.984 124.472C258.008 123.912 257.248 123.128 256.704 122.12C256.16 121.112 255.888 119.928 255.888 118.568C255.888 117.208 256.16 116.032 256.704 115.04C257.248 114.032 258.008 113.248 258.984 112.688C259.96 112.128 261.104 111.848 262.416 111.848C263.552 111.848 264.568 112.048 265.464 112.448C266.376 112.848 267.112 113.424 267.672 114.176C268.232 114.928 268.576 115.832 268.704 116.888L264.984 117.056C264.872 116.256 264.584 115.656 264.12 115.256C263.672 114.84 263.104 114.632 262.416 114.632C261.52 114.632 260.824 114.976 260.328 115.664C259.832 116.352 259.584 117.32 259.584 118.568C259.584 119.816 259.832 120.792 260.328 121.496C260.824 122.184 261.52 122.528 262.416 122.528C263.104 122.528 263.68 122.32 264.144 121.904C264.608 121.472 264.888 120.824 264.984 119.96L268.704 120.104C268.592 121.16 268.256 122.08 267.696 122.864C267.152 123.632 266.424 124.232 265.512 124.664C264.616 125.08 263.584 125.288 262.416 125.288ZM274.437 125.288C273.109 125.288 272.069 124.864 271.317 124.016C270.581 123.152 270.213 121.952 270.213 120.416V112.136H273.813V119.576C273.813 120.568 273.965 121.296 274.269 121.76C274.573 122.208 275.053 122.432 275.709 122.432C276.445 122.432 277.013 122.184 277.413 121.688C277.829 121.176 278.037 120.416 278.037 119.408V112.136H281.637V125H278.349L278.253 121.304L278.709 121.4C278.517 122.68 278.061 123.648 277.341 124.304C276.621 124.96 275.653 125.288 274.437 125.288ZM284.312 125V112.136H287.72L287.84 115.88L287.576 115.808C287.784 114.512 288.152 113.576 288.68 113C289.208 112.424 289.936 112.136 290.864 112.136H292.04V115.112H290.864C290.192 115.112 289.64 115.2 289.208 115.376C288.776 115.552 288.448 115.832 288.224 116.216C288.016 116.6 287.912 117.12 287.912 117.776V125H284.312ZM293.347 125V112.136H296.755L296.875 115.88L296.611 115.808C296.819 114.512 297.187 113.576 297.715 113C298.243 112.424 298.971 112.136 299.899 112.136H301.075V115.112H299.899C299.227 115.112 298.675 115.2 298.243 115.376C297.811 115.552 297.483 115.832 297.259 116.216C297.051 116.6 296.947 117.12 296.947 117.776V125H293.347ZM307.886 125.288C306.574 125.288 305.43 125.016 304.454 124.472C303.494 123.912 302.742 123.128 302.198 122.12C301.67 121.112 301.406 119.928 301.406 118.568C301.406 117.208 301.67 116.032 302.198 115.04C302.742 114.032 303.494 113.248 304.454 112.688C305.414 112.128 306.55 111.848 307.862 111.848C309.142 111.848 310.254 112.128 311.198 112.688C312.142 113.248 312.87 114.048 313.382 115.088C313.91 116.128 314.174 117.368 314.174 118.808V119.528H305.126C305.174 120.552 305.446 121.312 305.942 121.808C306.454 122.304 307.126 122.552 307.958 122.552C308.566 122.552 309.07 122.424 309.47 122.168C309.886 121.912 310.182 121.52 310.358 120.992L313.982 121.208C313.646 122.488 312.934 123.488 311.846 124.208C310.758 124.928 309.438 125.288 307.886 125.288ZM305.126 117.32H310.478C310.43 116.376 310.166 115.672 309.686 115.208C309.222 114.744 308.614 114.512 307.862 114.512C307.11 114.512 306.486 114.76 305.99 115.256C305.51 115.736 305.222 116.424 305.126 117.32ZM315.918 125V112.136H319.158L319.302 115.904L318.846 115.784C318.974 114.824 319.23 114.056 319.614 113.48C320.014 112.904 320.51 112.488 321.102 112.232C321.694 111.976 322.342 111.848 323.046 111.848C323.974 111.848 324.758 112.048 325.398 112.448C326.054 112.848 326.55 113.416 326.886 114.152C327.238 114.872 327.414 115.728 327.414 116.72V125H323.814V117.92C323.814 117.232 323.758 116.648 323.646 116.168C323.534 115.688 323.334 115.328 323.046 115.088C322.758 114.832 322.358 114.704 321.846 114.704C321.094 114.704 320.518 114.984 320.118 115.544C319.718 116.088 319.518 116.88 319.518 117.92V125H315.918ZM334.595 125C333.267 125 332.291 124.696 331.667 124.088C331.043 123.464 330.731 122.48 330.731 121.136V109.112H334.331V120.704C334.331 121.328 334.459 121.752 334.715 121.976C334.987 122.2 335.387 122.312 335.915 122.312H337.715V125H334.595ZM328.667 114.824V112.136H337.715V114.824H328.667ZM342.834 125C341.778 125 340.954 124.736 340.362 124.208C339.77 123.68 339.474 122.824 339.474 121.64V107.96H343.074V121.256C343.074 121.64 343.162 121.912 343.338 122.072C343.514 122.232 343.77 122.312 344.106 122.312H344.97V125H342.834ZM346.753 128.6V125.912H348.457C348.873 125.912 349.177 125.848 349.369 125.72C349.577 125.608 349.737 125.4 349.849 125.096L350.113 124.352H349.129L344.617 112.136H348.289L351.241 120.992L354.001 112.136H357.673L352.729 126.224C352.441 127.072 352.025 127.68 351.481 128.048C350.937 128.416 350.177 128.6 349.201 128.6H346.753ZM364.261 125V112.136H367.501L367.621 115.232L367.285 115.088C367.461 114.4 367.725 113.816 368.077 113.336C368.445 112.856 368.885 112.488 369.397 112.232C369.909 111.976 370.469 111.848 371.077 111.848C372.149 111.848 373.013 112.16 373.669 112.784C374.341 113.408 374.773 114.248 374.965 115.304L374.509 115.328C374.653 114.576 374.901 113.944 375.253 113.432C375.621 112.904 376.069 112.512 376.597 112.256C377.125 111.984 377.717 111.848 378.373 111.848C379.269 111.848 380.037 112.032 380.677 112.4C381.317 112.768 381.813 113.32 382.165 114.056C382.517 114.776 382.693 115.664 382.693 116.72V125H379.093V117.728C379.093 116.72 378.941 115.968 378.637 115.472C378.333 114.96 377.837 114.704 377.149 114.704C376.717 114.704 376.349 114.824 376.045 115.064C375.741 115.304 375.501 115.656 375.325 116.12C375.165 116.568 375.085 117.12 375.085 117.776V125H371.845V117.776C371.845 116.784 371.701 116.024 371.413 115.496C371.125 114.968 370.629 114.704 369.925 114.704C369.493 114.704 369.117 114.824 368.797 115.064C368.493 115.304 368.261 115.656 368.101 116.12C367.941 116.584 367.861 117.136 367.861 117.776V125H364.261ZM390.917 125.288C389.605 125.288 388.461 125.016 387.485 124.472C386.509 123.912 385.749 123.128 385.205 122.12C384.661 121.112 384.389 119.928 384.389 118.568C384.389 117.208 384.661 116.032 385.205 115.04C385.749 114.032 386.509 113.248 387.485 112.688C388.461 112.128 389.605 111.848 390.917 111.848C392.229 111.848 393.373 112.128 394.349 112.688C395.325 113.248 396.085 114.032 396.629 115.04C397.173 116.032 397.445 117.208 397.445 118.568C397.445 119.928 397.173 121.112 396.629 122.12C396.085 123.128 395.325 123.912 394.349 124.472C393.373 125.016 392.229 125.288 390.917 125.288ZM390.917 122.528C391.813 122.528 392.509 122.184 393.005 121.496C393.501 120.792 393.749 119.816 393.749 118.568C393.749 117.32 393.501 116.352 393.005 115.664C392.509 114.96 391.813 114.608 390.917 114.608C390.021 114.608 389.325 114.96 388.829 115.664C388.333 116.352 388.085 117.32 388.085 118.568C388.085 119.816 388.333 120.792 388.829 121.496C389.325 122.184 390.021 122.528 390.917 122.528ZM406.599 125.288C405.703 125.288 404.919 125.096 404.247 124.712C403.591 124.328 403.079 123.792 402.711 123.104L402.639 125H399.207V107.96H402.807V113.96C403.143 113.368 403.639 112.872 404.295 112.472C404.951 112.056 405.719 111.848 406.599 111.848C407.687 111.848 408.631 112.128 409.431 112.688C410.231 113.232 410.847 114.008 411.279 115.016C411.727 116.024 411.951 117.208 411.951 118.568C411.951 119.928 411.727 121.112 411.279 122.12C410.847 123.128 410.231 123.912 409.431 124.472C408.631 125.016 407.687 125.288 406.599 125.288ZM405.591 122.528C406.391 122.528 407.031 122.184 407.511 121.496C408.007 120.792 408.255 119.816 408.255 118.568C408.255 117.32 408.015 116.352 407.535 115.664C407.055 114.96 406.415 114.608 405.615 114.608C405.023 114.608 404.511 114.768 404.079 115.088C403.663 115.392 403.343 115.84 403.119 116.432C402.911 117.024 402.807 117.736 402.807 118.568C402.807 119.384 402.911 120.088 403.119 120.68C403.343 121.272 403.663 121.728 404.079 122.048C404.511 122.368 405.015 122.528 405.591 122.528ZM413.703 125V112.136H417.303V125H413.703ZM413.631 110.552V107.672H417.351V110.552H413.631ZM423.216 125C422.16 125 421.336 124.736 420.744 124.208C420.152 123.68 419.856 122.824 419.856 121.64V107.96H423.456V121.256C423.456 121.64 423.544 121.912 423.72 122.072C423.896 122.232 424.152 122.312 424.488 122.312H425.352V125H423.216ZM432.449 125.288C431.137 125.288 429.993 125.016 429.017 124.472C428.057 123.912 427.305 123.128 426.761 122.12C426.233 121.112 425.969 119.928 425.969 118.568C425.969 117.208 426.233 116.032 426.761 115.04C427.305 114.032 428.057 113.248 429.017 112.688C429.977 112.128 431.113 111.848 432.425 111.848C433.705 111.848 434.817 112.128 435.761 112.688C436.705 113.248 437.433 114.048 437.945 115.088C438.473 116.128 438.737 117.368 438.737 118.808V119.528H429.689C429.737 120.552 430.009 121.312 430.505 121.808C431.017 122.304 431.689 122.552 432.521 122.552C433.129 122.552 433.633 122.424 434.033 122.168C434.449 121.912 434.745 121.52 434.921 120.992L438.545 121.208C438.209 122.488 437.497 123.488 436.409 124.208C435.321 124.928 434.001 125.288 432.449 125.288ZM429.689 117.32H435.041C434.993 116.376 434.729 115.672 434.249 115.208C433.785 114.744 433.177 114.512 432.425 114.512C431.673 114.512 431.049 114.76 430.553 115.256C430.073 115.736 429.785 116.424 429.689 117.32ZM262.416 149.288C261.104 149.288 259.96 149.016 258.984 148.472C258.008 147.912 257.248 147.128 256.704 146.12C256.16 145.112 255.888 143.928 255.888 142.568C255.888 141.208 256.16 140.032 256.704 139.04C257.248 138.032 258.008 137.248 258.984 136.688C259.96 136.128 261.104 135.848 262.416 135.848C263.728 135.848 264.872 136.128 265.848 136.688C266.824 137.248 267.584 138.032 268.128 139.04C268.672 140.032 268.944 141.208 268.944 142.568C268.944 143.928 268.672 145.112 268.128 146.12C267.584 147.128 266.824 147.912 265.848 148.472C264.872 149.016 263.728 149.288 262.416 149.288ZM262.416 146.528C263.312 146.528 264.008 146.184 264.504 145.496C265 144.792 265.248 143.816 265.248 142.568C265.248 141.32 265 140.352 264.504 139.664C264.008 138.96 263.312 138.608 262.416 138.608C261.52 138.608 260.824 138.96 260.328 139.664C259.832 140.352 259.584 141.32 259.584 142.568C259.584 143.816 259.832 144.792 260.328 145.496C260.824 146.184 261.52 146.528 262.416 146.528ZM270.706 149V136.136H273.946L274.09 139.904L273.634 139.784C273.762 138.824 274.018 138.056 274.402 137.48C274.802 136.904 275.298 136.488 275.89 136.232C276.482 135.976 277.13 135.848 277.834 135.848C278.762 135.848 279.546 136.048 280.186 136.448C280.842 136.848 281.338 137.416 281.674 138.152C282.026 138.872 282.202 139.728 282.202 140.72V149H278.602V141.92C278.602 141.232 278.546 140.648 278.434 140.168C278.322 139.688 278.122 139.328 277.834 139.088C277.546 138.832 277.146 138.704 276.634 138.704C275.882 138.704 275.306 138.984 274.906 139.544C274.506 140.088 274.306 140.88 274.306 141.92V149H270.706ZM288.07 149C287.014 149 286.19 148.736 285.598 148.208C285.006 147.68 284.71 146.824 284.71 145.64V131.96H288.31V145.256C288.31 145.64 288.398 145.912 288.574 146.072C288.75 146.232 289.006 146.312 289.342 146.312H290.206V149H288.07ZM291.989 152.6V149.912H293.693C294.109 149.912 294.413 149.848 294.605 149.72C294.813 149.608 294.973 149.4 295.085 149.096L295.349 148.352H294.365L289.853 136.136H293.525L296.477 144.992L299.237 136.136H302.909L297.965 150.224C297.677 151.072 297.261 151.68 296.717 152.048C296.173 152.416 295.413 152.6 294.437 152.6H291.989ZM302.601 149V145.328H306.513V149H302.601Z" fill="white"/>
<path d="M259.104 176.192C258.424 176.192 257.832 176.068 257.328 175.82C256.832 175.572 256.44 175.228 256.152 174.788C255.864 174.348 255.696 173.836 255.648 173.252L256.98 173.168C257.036 173.568 257.152 173.908 257.328 174.188C257.504 174.46 257.74 174.668 258.036 174.812C258.34 174.948 258.704 175.016 259.128 175.016C259.496 175.016 259.808 174.972 260.064 174.884C260.328 174.788 260.528 174.648 260.664 174.464C260.8 174.28 260.868 174.056 260.868 173.792C260.868 173.552 260.808 173.34 260.688 173.156C260.576 172.964 260.356 172.792 260.028 172.64C259.708 172.48 259.236 172.324 258.612 172.172C257.932 172.004 257.388 171.82 256.98 171.62C256.572 171.42 256.276 171.172 256.092 170.876C255.916 170.572 255.828 170.2 255.828 169.76C255.828 169.272 255.944 168.844 256.176 168.476C256.416 168.1 256.756 167.808 257.196 167.6C257.636 167.392 258.164 167.288 258.78 167.288C259.428 167.288 259.98 167.408 260.436 167.648C260.9 167.888 261.264 168.216 261.528 168.632C261.8 169.048 261.968 169.524 262.032 170.06L260.7 170.132C260.66 169.804 260.56 169.516 260.4 169.268C260.24 169.012 260.024 168.816 259.752 168.68C259.48 168.536 259.148 168.464 258.756 168.464C258.26 168.464 257.868 168.58 257.58 168.812C257.3 169.036 257.16 169.336 257.16 169.712C257.16 169.952 257.216 170.156 257.328 170.324C257.448 170.484 257.656 170.624 257.952 170.744C258.256 170.864 258.684 170.992 259.236 171.128C259.972 171.296 260.556 171.504 260.988 171.752C261.428 171.992 261.74 172.276 261.924 172.604C262.108 172.932 262.2 173.304 262.2 173.72C262.2 174.224 262.068 174.664 261.804 175.04C261.548 175.408 261.188 175.692 260.724 175.892C260.26 176.092 259.72 176.192 259.104 176.192ZM266.52 176.144C265.912 176.144 265.38 176.008 264.924 175.736C264.468 175.464 264.116 175.076 263.868 174.572C263.62 174.068 263.496 173.48 263.496 172.808C263.496 172.136 263.62 171.552 263.868 171.056C264.116 170.552 264.468 170.164 264.924 169.892C265.38 169.612 265.912 169.472 266.52 169.472C267.04 169.472 267.5 169.564 267.9 169.748C268.308 169.924 268.636 170.184 268.884 170.528C269.14 170.872 269.304 171.292 269.376 171.788L268.044 171.86C267.98 171.444 267.812 171.128 267.54 170.912C267.268 170.688 266.928 170.576 266.52 170.576C265.984 170.576 265.564 170.776 265.26 171.176C264.964 171.568 264.816 172.112 264.816 172.808C264.816 173.504 264.964 174.052 265.26 174.452C265.564 174.844 265.984 175.04 266.52 175.04C266.928 175.04 267.268 174.928 267.54 174.704C267.812 174.472 267.98 174.124 268.044 173.66L269.376 173.732C269.304 174.22 269.14 174.644 268.884 175.004C268.636 175.364 268.308 175.644 267.9 175.844C267.5 176.044 267.04 176.144 266.52 176.144ZM272.454 176.144C271.79 176.144 271.258 175.992 270.858 175.688C270.466 175.384 270.27 174.956 270.27 174.404C270.27 173.852 270.434 173.424 270.762 173.12C271.098 172.808 271.614 172.584 272.31 172.448L274.506 172.028C274.506 171.532 274.39 171.164 274.158 170.924C273.926 170.676 273.582 170.552 273.126 170.552C272.718 170.552 272.398 170.644 272.166 170.828C271.934 171.004 271.774 171.268 271.686 171.62L270.378 171.536C270.498 170.896 270.794 170.392 271.266 170.024C271.746 169.656 272.366 169.472 273.126 169.472C273.99 169.472 274.646 169.704 275.094 170.168C275.55 170.624 275.778 171.268 275.778 172.1V174.584C275.778 174.736 275.802 174.844 275.85 174.908C275.906 174.964 275.994 174.992 276.114 174.992H276.342V176C276.302 176.008 276.238 176.016 276.15 176.024C276.062 176.032 275.97 176.036 275.874 176.036C275.602 176.036 275.366 175.992 275.166 175.904C274.974 175.816 274.83 175.672 274.734 175.472C274.638 175.264 274.59 174.988 274.59 174.644L274.722 174.704C274.658 174.984 274.518 175.232 274.302 175.448C274.094 175.664 273.826 175.836 273.498 175.964C273.178 176.084 272.83 176.144 272.454 176.144ZM272.658 175.136C273.042 175.136 273.37 175.064 273.642 174.92C273.914 174.768 274.126 174.56 274.278 174.296C274.43 174.032 274.506 173.732 274.506 173.396V172.988L272.634 173.348C272.25 173.42 271.978 173.536 271.818 173.696C271.666 173.848 271.59 174.044 271.59 174.284C271.59 174.556 271.682 174.768 271.866 174.92C272.058 175.064 272.322 175.136 272.658 175.136ZM277.416 176V169.616H278.58L278.628 171.32L278.472 171.236C278.544 170.82 278.68 170.484 278.88 170.228C279.08 169.972 279.324 169.784 279.612 169.664C279.9 169.536 280.212 169.472 280.548 169.472C281.028 169.472 281.424 169.58 281.736 169.796C282.056 170.004 282.296 170.292 282.456 170.66C282.624 171.02 282.708 171.432 282.708 171.896V176H281.436V172.28C281.436 171.904 281.396 171.588 281.316 171.332C281.236 171.076 281.104 170.88 280.92 170.744C280.736 170.608 280.496 170.54 280.2 170.54C279.752 170.54 279.388 170.688 279.108 170.984C278.828 171.28 278.688 171.712 278.688 172.28V176H277.416ZM289.871 176C289.263 176 288.815 175.86 288.527 175.58C288.239 175.3 288.095 174.864 288.095 174.272V168.116H289.367V174.176C289.367 174.472 289.431 174.676 289.559 174.788C289.687 174.9 289.883 174.956 290.147 174.956H291.059V176H289.871ZM287.123 170.66V169.616H291.059V170.66H287.123ZM292.275 176V167.48H293.547V171.056L293.391 171.032C293.463 170.672 293.595 170.38 293.787 170.156C293.979 169.924 294.215 169.752 294.495 169.64C294.775 169.528 295.083 169.472 295.419 169.472C295.883 169.472 296.275 169.576 296.595 169.784C296.915 169.984 297.155 170.268 297.315 170.636C297.483 171.004 297.567 171.424 297.567 171.896V176H296.295V172.232C296.295 171.656 296.195 171.232 295.995 170.96C295.803 170.68 295.499 170.54 295.083 170.54C294.619 170.54 294.247 170.688 293.967 170.984C293.687 171.272 293.547 171.696 293.547 172.256V176H292.275ZM301.852 176.144C301.228 176.144 300.688 176.008 300.232 175.736C299.784 175.464 299.436 175.076 299.188 174.572C298.948 174.068 298.828 173.48 298.828 172.808C298.828 172.136 298.948 171.552 299.188 171.056C299.436 170.552 299.784 170.164 300.232 169.892C300.68 169.612 301.208 169.472 301.816 169.472C302.392 169.472 302.9 169.608 303.34 169.88C303.78 170.144 304.12 170.528 304.36 171.032C304.608 171.536 304.732 172.144 304.732 172.856V173.18H300.148C300.18 173.804 300.344 174.272 300.64 174.584C300.944 174.896 301.352 175.052 301.864 175.052C302.24 175.052 302.552 174.964 302.8 174.788C303.048 174.612 303.22 174.376 303.316 174.08L304.636 174.164C304.468 174.756 304.136 175.236 303.64 175.604C303.152 175.964 302.556 176.144 301.852 176.144ZM300.148 172.22H303.388C303.348 171.652 303.184 171.232 302.896 170.96C302.616 170.688 302.256 170.552 301.816 170.552C301.36 170.552 300.984 170.696 300.688 170.984C300.4 171.264 300.22 171.676 300.148 172.22ZM314.804 176.804L314.12 175.916C313.928 175.996 313.704 176.06 313.448 176.108C313.192 176.164 312.916 176.192 312.62 176.192C311.796 176.192 311.092 175.996 310.508 175.604C309.924 175.212 309.472 174.684 309.152 174.02C308.84 173.348 308.684 172.592 308.684 171.752C308.684 170.912 308.836 170.156 309.14 169.484C309.444 168.812 309.888 168.28 310.472 167.888C311.064 167.488 311.78 167.288 312.62 167.288C313.476 167.288 314.196 167.488 314.78 167.888C315.372 168.28 315.816 168.812 316.112 169.484C316.416 170.156 316.568 170.912 316.568 171.752C316.568 172.536 316.428 173.248 316.148 173.888C315.876 174.528 315.48 175.048 314.96 175.448L316.04 176.804H314.804ZM312.62 175.004C312.772 175.004 312.908 174.996 313.028 174.98C313.148 174.964 313.256 174.936 313.352 174.896L312.14 173.372H313.376L314.192 174.452C314.536 174.172 314.792 173.808 314.96 173.36C315.136 172.904 315.224 172.368 315.224 171.752C315.224 171.16 315.128 170.616 314.936 170.12C314.752 169.624 314.468 169.228 314.084 168.932C313.7 168.628 313.212 168.476 312.62 168.476C312.036 168.476 311.552 168.628 311.168 168.932C310.784 169.228 310.496 169.624 310.304 170.12C310.12 170.616 310.028 171.16 310.028 171.752C310.028 172.336 310.12 172.876 310.304 173.372C310.496 173.868 310.784 174.264 311.168 174.56C311.56 174.856 312.044 175.004 312.62 175.004ZM317.954 176V167.48H321.35C321.958 167.48 322.482 167.584 322.922 167.792C323.362 168 323.702 168.296 323.942 168.68C324.182 169.064 324.302 169.52 324.302 170.048C324.302 170.432 324.214 170.776 324.038 171.08C323.87 171.384 323.642 171.628 323.354 171.812C323.074 171.988 322.774 172.088 322.454 172.112L322.394 172.004C322.93 172.004 323.346 172.128 323.642 172.376C323.938 172.616 324.11 172.996 324.158 173.516L324.386 176H323.078L322.874 173.684C322.85 173.34 322.734 173.088 322.526 172.928C322.318 172.76 321.978 172.676 321.506 172.676H319.25V176H317.954ZM319.25 171.488H321.374C321.862 171.488 322.246 171.368 322.526 171.128C322.814 170.88 322.958 170.532 322.958 170.084C322.958 169.628 322.814 169.28 322.526 169.04C322.238 168.792 321.818 168.668 321.266 168.668H319.25V171.488ZM331.524 176.144C330.916 176.144 330.384 176.008 329.928 175.736C329.472 175.464 329.12 175.076 328.872 174.572C328.624 174.068 328.5 173.48 328.5 172.808C328.5 172.136 328.624 171.552 328.872 171.056C329.12 170.552 329.472 170.164 329.928 169.892C330.384 169.612 330.916 169.472 331.524 169.472C332.044 169.472 332.504 169.564 332.904 169.748C333.312 169.924 333.64 170.184 333.888 170.528C334.144 170.872 334.308 171.292 334.38 171.788L333.048 171.86C332.984 171.444 332.816 171.128 332.544 170.912C332.272 170.688 331.932 170.576 331.524 170.576C330.988 170.576 330.568 170.776 330.264 171.176C329.968 171.568 329.82 172.112 329.82 172.808C329.82 173.504 329.968 174.052 330.264 174.452C330.568 174.844 330.988 175.04 331.524 175.04C331.932 175.04 332.272 174.928 332.544 174.704C332.816 174.472 332.984 174.124 333.048 173.66L334.38 173.732C334.308 174.22 334.144 174.644 333.888 175.004C333.64 175.364 333.312 175.644 332.904 175.844C332.504 176.044 332.044 176.144 331.524 176.144ZM338.169 176.144C337.561 176.144 337.029 176.008 336.573 175.736C336.117 175.464 335.765 175.076 335.517 174.572C335.269 174.068 335.145 173.48 335.145 172.808C335.145 172.128 335.269 171.54 335.517 171.044C335.765 170.548 336.117 170.164 336.573 169.892C337.029 169.612 337.561 169.472 338.169 169.472C338.777 169.472 339.309 169.612 339.765 169.892C340.221 170.164 340.573 170.548 340.821 171.044C341.069 171.54 341.193 172.128 341.193 172.808C341.193 173.48 341.069 174.068 340.821 174.572C340.573 175.076 340.221 175.464 339.765 175.736C339.309 176.008 338.777 176.144 338.169 176.144ZM338.169 175.04C338.713 175.04 339.133 174.844 339.429 174.452C339.725 174.052 339.873 173.504 339.873 172.808C339.873 172.112 339.725 171.568 339.429 171.176C339.133 170.776 338.713 170.576 338.169 170.576C337.633 170.576 337.213 170.776 336.909 171.176C336.613 171.568 336.465 172.112 336.465 172.808C336.465 173.504 336.613 174.052 336.909 174.452C337.213 174.844 337.633 175.04 338.169 175.04ZM344.746 176.144C344.202 176.144 343.726 176.008 343.318 175.736C342.918 175.464 342.61 175.08 342.394 174.584C342.186 174.08 342.082 173.488 342.082 172.808C342.082 172.128 342.19 171.54 342.406 171.044C342.622 170.54 342.93 170.152 343.33 169.88C343.73 169.608 344.202 169.472 344.746 169.472C345.186 169.472 345.578 169.564 345.922 169.748C346.266 169.932 346.526 170.188 346.702 170.516V167.48H347.974V176H346.786L346.75 175.04C346.574 175.384 346.306 175.656 345.946 175.856C345.594 176.048 345.194 176.144 344.746 176.144ZM345.082 175.04C345.426 175.04 345.718 174.952 345.958 174.776C346.198 174.6 346.382 174.344 346.51 174.008C346.638 173.672 346.702 173.272 346.702 172.808C346.702 172.328 346.638 171.924 346.51 171.596C346.382 171.26 346.198 171.008 345.958 170.84C345.718 170.664 345.426 170.576 345.082 170.576C344.57 170.576 344.162 170.776 343.858 171.176C343.554 171.568 343.402 172.112 343.402 172.808C343.402 173.496 343.554 174.04 343.858 174.44C344.162 174.84 344.57 175.04 345.082 175.04ZM352.29 176.144C351.666 176.144 351.126 176.008 350.67 175.736C350.222 175.464 349.874 175.076 349.626 174.572C349.386 174.068 349.266 173.48 349.266 172.808C349.266 172.136 349.386 171.552 349.626 171.056C349.874 170.552 350.222 170.164 350.67 169.892C351.118 169.612 351.646 169.472 352.254 169.472C352.83 169.472 353.338 169.608 353.778 169.88C354.218 170.144 354.558 170.528 354.798 171.032C355.046 171.536 355.17 172.144 355.17 172.856V173.18H350.586C350.618 173.804 350.782 174.272 351.078 174.584C351.382 174.896 351.79 175.052 352.302 175.052C352.678 175.052 352.99 174.964 353.238 174.788C353.486 174.612 353.658 174.376 353.754 174.08L355.074 174.164C354.906 174.756 354.574 175.236 354.078 175.604C353.59 175.964 352.994 176.144 352.29 176.144ZM350.586 172.22H353.826C353.786 171.652 353.622 171.232 353.334 170.96C353.054 170.688 352.694 170.552 352.254 170.552C351.798 170.552 351.422 170.696 351.126 170.984C350.838 171.264 350.658 171.676 350.586 172.22ZM362.122 176.144C361.514 176.144 360.982 176.008 360.526 175.736C360.07 175.464 359.718 175.076 359.47 174.572C359.222 174.068 359.098 173.48 359.098 172.808C359.098 172.128 359.222 171.54 359.47 171.044C359.718 170.548 360.07 170.164 360.526 169.892C360.982 169.612 361.514 169.472 362.122 169.472C362.73 169.472 363.262 169.612 363.718 169.892C364.174 170.164 364.526 170.548 364.774 171.044C365.022 171.54 365.146 172.128 365.146 172.808C365.146 173.48 365.022 174.068 364.774 174.572C364.526 175.076 364.174 175.464 363.718 175.736C363.262 176.008 362.73 176.144 362.122 176.144ZM362.122 175.04C362.666 175.04 363.086 174.844 363.382 174.452C363.678 174.052 363.826 173.504 363.826 172.808C363.826 172.112 363.678 171.568 363.382 171.176C363.086 170.776 362.666 170.576 362.122 170.576C361.586 170.576 361.166 170.776 360.862 171.176C360.566 171.568 360.418 172.112 360.418 172.808C360.418 173.504 360.566 174.052 360.862 174.452C361.166 174.844 361.586 175.04 362.122 175.04ZM366.431 176V169.616H367.595L367.643 171.308L367.535 171.272C367.623 170.696 367.799 170.276 368.063 170.012C368.335 169.748 368.699 169.616 369.155 169.616H369.767V170.756H369.155C368.835 170.756 368.567 170.808 368.351 170.912C368.135 171.016 367.971 171.176 367.859 171.392C367.755 171.608 367.703 171.888 367.703 172.232V176H366.431ZM376.7 176.144C376.092 176.144 375.56 176.008 375.104 175.736C374.648 175.464 374.296 175.076 374.048 174.572C373.8 174.068 373.676 173.48 373.676 172.808C373.676 172.128 373.8 171.54 374.048 171.044C374.296 170.548 374.648 170.164 375.104 169.892C375.56 169.612 376.092 169.472 376.7 169.472C377.308 169.472 377.84 169.612 378.296 169.892C378.752 170.164 379.104 170.548 379.352 171.044C379.6 171.54 379.724 172.128 379.724 172.808C379.724 173.48 379.6 174.068 379.352 174.572C379.104 175.076 378.752 175.464 378.296 175.736C377.84 176.008 377.308 176.144 376.7 176.144ZM376.7 175.04C377.244 175.04 377.664 174.844 377.96 174.452C378.256 174.052 378.404 173.504 378.404 172.808C378.404 172.112 378.256 171.568 377.96 171.176C377.664 170.776 377.244 170.576 376.7 170.576C376.164 170.576 375.744 170.776 375.44 171.176C375.144 171.568 374.996 172.112 374.996 172.808C374.996 173.504 375.144 174.052 375.44 174.452C375.744 174.844 376.164 175.04 376.7 175.04ZM381.009 177.8V169.616H382.209L382.245 170.984L382.101 170.912C382.261 170.44 382.525 170.084 382.893 169.844C383.261 169.596 383.685 169.472 384.165 169.472C384.789 169.472 385.301 169.628 385.701 169.94C386.109 170.244 386.409 170.648 386.601 171.152C386.801 171.656 386.901 172.208 386.901 172.808C386.901 173.408 386.801 173.96 386.601 174.464C386.409 174.968 386.109 175.376 385.701 175.688C385.301 175.992 384.789 176.144 384.165 176.144C383.845 176.144 383.545 176.088 383.265 175.976C382.985 175.864 382.745 175.708 382.545 175.508C382.353 175.3 382.217 175.056 382.137 174.776L382.281 174.632V177.8H381.009ZM383.937 175.04C384.449 175.04 384.849 174.844 385.137 174.452C385.433 174.06 385.581 173.512 385.581 172.808C385.581 172.104 385.433 171.556 385.137 171.164C384.849 170.772 384.449 170.576 383.937 170.576C383.601 170.576 383.309 170.66 383.061 170.828C382.813 170.988 382.621 171.236 382.485 171.572C382.349 171.908 382.281 172.32 382.281 172.808C382.281 173.296 382.345 173.708 382.473 174.044C382.609 174.38 382.801 174.632 383.049 174.8C383.305 174.96 383.601 175.04 383.937 175.04ZM390.821 176.144C390.197 176.144 389.657 176.008 389.201 175.736C388.753 175.464 388.405 175.076 388.157 174.572C387.917 174.068 387.797 173.48 387.797 172.808C387.797 172.136 387.917 171.552 388.157 171.056C388.405 170.552 388.753 170.164 389.201 169.892C389.649 169.612 390.177 169.472 390.785 169.472C391.361 169.472 391.869 169.608 392.309 169.88C392.749 170.144 393.089 170.528 393.329 171.032C393.577 171.536 393.701 172.144 393.701 172.856V173.18H389.117C389.149 173.804 389.313 174.272 389.609 174.584C389.913 174.896 390.321 175.052 390.833 175.052C391.209 175.052 391.521 174.964 391.769 174.788C392.017 174.612 392.189 174.376 392.285 174.08L393.605 174.164C393.437 174.756 393.105 175.236 392.609 175.604C392.121 175.964 391.525 176.144 390.821 176.144ZM389.117 172.22H392.357C392.317 171.652 392.153 171.232 391.865 170.96C391.585 170.688 391.225 170.552 390.785 170.552C390.329 170.552 389.953 170.696 389.657 170.984C389.369 171.264 389.189 171.676 389.117 172.22ZM394.99 176V169.616H396.154L396.202 171.32L396.046 171.236C396.118 170.82 396.254 170.484 396.454 170.228C396.654 169.972 396.898 169.784 397.186 169.664C397.474 169.536 397.786 169.472 398.122 169.472C398.602 169.472 398.998 169.58 399.31 169.796C399.63 170.004 399.87 170.292 400.03 170.66C400.198 171.02 400.282 171.432 400.282 171.896V176H399.01V172.28C399.01 171.904 398.97 171.588 398.89 171.332C398.81 171.076 398.678 170.88 398.494 170.744C398.31 170.608 398.07 170.54 397.774 170.54C397.326 170.54 396.962 170.688 396.682 170.984C396.402 171.28 396.262 171.712 396.262 172.28V176H394.99ZM328.548 192.144C327.94 192.144 327.408 192.008 326.952 191.736C326.496 191.464 326.144 191.076 325.896 190.572C325.648 190.068 325.524 189.48 325.524 188.808C325.524 188.128 325.648 187.54 325.896 187.044C326.144 186.548 326.496 186.164 326.952 185.892C327.408 185.612 327.94 185.472 328.548 185.472C329.156 185.472 329.688 185.612 330.144 185.892C330.6 186.164 330.952 186.548 331.2 187.044C331.448 187.54 331.572 188.128 331.572 188.808C331.572 189.48 331.448 190.068 331.2 190.572C330.952 191.076 330.6 191.464 330.144 191.736C329.688 192.008 329.156 192.144 328.548 192.144ZM328.548 191.04C329.092 191.04 329.512 190.844 329.808 190.452C330.104 190.052 330.252 189.504 330.252 188.808C330.252 188.112 330.104 187.568 329.808 187.176C329.512 186.776 329.092 186.576 328.548 186.576C328.012 186.576 327.592 186.776 327.288 187.176C326.992 187.568 326.844 188.112 326.844 188.808C326.844 189.504 326.992 190.052 327.288 190.452C327.592 190.844 328.012 191.04 328.548 191.04ZM332.857 192V185.616H334.021L334.069 187.32L333.913 187.236C333.985 186.82 334.121 186.484 334.321 186.228C334.521 185.972 334.765 185.784 335.053 185.664C335.341 185.536 335.653 185.472 335.989 185.472C336.469 185.472 336.865 185.58 337.177 185.796C337.497 186.004 337.737 186.292 337.897 186.66C338.065 187.02 338.149 187.432 338.149 187.896V192H336.877V188.28C336.877 187.904 336.837 187.588 336.757 187.332C336.677 187.076 336.545 186.88 336.361 186.744C336.177 186.608 335.937 186.54 335.641 186.54C335.193 186.54 334.829 186.688 334.549 186.984C334.269 187.28 334.129 187.712 334.129 188.28V192H332.857ZM342.865 192V185.616H344.029L344.065 187.2L343.921 187.152C343.993 186.8 344.117 186.5 344.293 186.252C344.477 186.004 344.701 185.812 344.965 185.676C345.229 185.54 345.517 185.472 345.829 185.472C346.373 185.472 346.817 185.628 347.161 185.94C347.505 186.244 347.721 186.664 347.809 187.2H347.605C347.677 186.824 347.797 186.512 347.965 186.264C348.141 186.008 348.365 185.812 348.637 185.676C348.909 185.54 349.217 185.472 349.561 185.472C350.009 185.472 350.389 185.568 350.701 185.76C351.021 185.944 351.261 186.216 351.421 186.576C351.589 186.936 351.673 187.376 351.673 187.896V192H350.401V188.208C350.401 187.656 350.301 187.24 350.101 186.96C349.901 186.68 349.597 186.54 349.189 186.54C348.925 186.54 348.693 186.608 348.493 186.744C348.293 186.88 348.137 187.076 348.025 187.332C347.921 187.588 347.869 187.896 347.869 188.256V192H346.657V188.256C346.657 187.712 346.565 187.292 346.381 186.996C346.205 186.692 345.901 186.54 345.469 186.54C345.197 186.54 344.961 186.608 344.761 186.744C344.569 186.88 344.417 187.08 344.305 187.344C344.193 187.6 344.137 187.904 344.137 188.256V192H342.865ZM355.969 192.144C355.361 192.144 354.829 192.008 354.373 191.736C353.917 191.464 353.565 191.076 353.317 190.572C353.069 190.068 352.945 189.48 352.945 188.808C352.945 188.128 353.069 187.54 353.317 187.044C353.565 186.548 353.917 186.164 354.373 185.892C354.829 185.612 355.361 185.472 355.969 185.472C356.577 185.472 357.109 185.612 357.565 185.892C358.021 186.164 358.373 186.548 358.621 187.044C358.869 187.54 358.993 188.128 358.993 188.808C358.993 189.48 358.869 190.068 358.621 190.572C358.373 191.076 358.021 191.464 357.565 191.736C357.109 192.008 356.577 192.144 355.969 192.144ZM355.969 191.04C356.513 191.04 356.933 190.844 357.229 190.452C357.525 190.052 357.673 189.504 357.673 188.808C357.673 188.112 357.525 187.568 357.229 187.176C356.933 186.776 356.513 186.576 355.969 186.576C355.433 186.576 355.013 186.776 354.709 187.176C354.413 187.568 354.265 188.112 354.265 188.808C354.265 189.504 354.413 190.052 354.709 190.452C355.013 190.844 355.433 191.04 355.969 191.04ZM363.459 192.144C363.019 192.144 362.627 192.048 362.283 191.856C361.947 191.656 361.687 191.384 361.503 191.04L361.467 192H360.279V183.48H361.551V186.516C361.719 186.236 361.967 185.992 362.295 185.784C362.631 185.576 363.019 185.472 363.459 185.472C364.011 185.472 364.491 185.608 364.899 185.88C365.307 186.152 365.619 186.54 365.835 187.044C366.059 187.54 366.171 188.128 366.171 188.808C366.171 189.488 366.059 190.08 365.835 190.584C365.619 191.08 365.307 191.464 364.899 191.736C364.491 192.008 364.011 192.144 363.459 192.144ZM363.255 191.04C363.743 191.04 364.131 190.844 364.419 190.452C364.707 190.052 364.851 189.504 364.851 188.808C364.851 188.112 364.707 187.568 364.419 187.176C364.131 186.776 363.747 186.576 363.267 186.576C362.907 186.576 362.599 186.664 362.343 186.84C362.087 187.016 361.891 187.272 361.755 187.608C361.619 187.936 361.551 188.336 361.551 188.808C361.551 189.264 361.619 189.66 361.755 189.996C361.891 190.332 362.087 190.592 362.343 190.776C362.599 190.952 362.903 191.04 363.255 191.04ZM367.463 192V185.616H368.735V192H367.463ZM367.439 184.692V183.42H368.759V184.692H367.439ZM371.831 192C371.415 192 371.079 191.892 370.823 191.676C370.567 191.46 370.439 191.116 370.439 190.644V183.48H371.711V190.524C371.711 190.668 371.747 190.776 371.819 190.848C371.899 190.92 372.011 190.956 372.155 190.956H372.659V192H371.831ZM376.372 192.144C375.748 192.144 375.208 192.008 374.752 191.736C374.304 191.464 373.956 191.076 373.708 190.572C373.468 190.068 373.348 189.48 373.348 188.808C373.348 188.136 373.468 187.552 373.708 187.056C373.956 186.552 374.304 186.164 374.752 185.892C375.2 185.612 375.728 185.472 376.336 185.472C376.912 185.472 377.42 185.608 377.86 185.88C378.3 186.144 378.64 186.528 378.88 187.032C379.128 187.536 379.252 188.144 379.252 188.856V189.18H374.668C374.7 189.804 374.864 190.272 375.16 190.584C375.464 190.896 375.872 191.052 376.384 191.052C376.76 191.052 377.072 190.964 377.32 190.788C377.568 190.612 377.74 190.376 377.836 190.08L379.156 190.164C378.988 190.756 378.656 191.236 378.16 191.604C377.672 191.964 377.076 192.144 376.372 192.144ZM374.668 188.22H377.908C377.868 187.652 377.704 187.232 377.416 186.96C377.136 186.688 376.776 186.552 376.336 186.552C375.88 186.552 375.504 186.696 375.208 186.984C374.92 187.264 374.74 187.676 374.668 188.22ZM380.262 192V190.488H381.81V192H380.262Z" fill="#EEEEEE"/>
<path d="M259.488 192.144C259.04 192.144 258.648 192.048 258.312 191.856C257.984 191.664 257.728 191.396 257.544 191.052L257.508 192H255.792V183.48H257.592V186.48C257.76 186.184 258.008 185.936 258.336 185.736C258.664 185.528 259.048 185.424 259.488 185.424C260.032 185.424 260.504 185.564 260.904 185.844C261.304 186.116 261.612 186.504 261.828 187.008C262.052 187.512 262.164 188.104 262.164 188.784C262.164 189.464 262.052 190.056 261.828 190.56C261.612 191.064 261.304 191.456 260.904 191.736C260.504 192.008 260.032 192.144 259.488 192.144ZM258.984 190.764C259.384 190.764 259.704 190.592 259.944 190.248C260.192 189.896 260.316 189.408 260.316 188.784C260.316 188.16 260.196 187.676 259.956 187.332C259.716 186.98 259.396 186.804 258.996 186.804C258.7 186.804 258.444 186.884 258.228 187.044C258.02 187.196 257.86 187.42 257.748 187.716C257.644 188.012 257.592 188.368 257.592 188.784C257.592 189.192 257.644 189.544 257.748 189.84C257.86 190.136 258.02 190.364 258.228 190.524C258.444 190.684 258.696 190.764 258.984 190.764ZM266.196 192.144C265.54 192.144 264.968 192.008 264.48 191.736C263.992 191.456 263.612 191.064 263.34 190.56C263.068 190.056 262.932 189.464 262.932 188.784C262.932 188.104 263.068 187.516 263.34 187.02C263.612 186.516 263.992 186.124 264.48 185.844C264.968 185.564 265.54 185.424 266.196 185.424C266.852 185.424 267.424 185.564 267.912 185.844C268.4 186.124 268.78 186.516 269.052 187.02C269.324 187.516 269.46 188.104 269.46 188.784C269.46 189.464 269.324 190.056 269.052 190.56C268.78 191.064 268.4 191.456 267.912 191.736C267.424 192.008 266.852 192.144 266.196 192.144ZM266.196 190.764C266.644 190.764 266.992 190.592 267.24 190.248C267.488 189.896 267.612 189.408 267.612 188.784C267.612 188.16 267.488 187.676 267.24 187.332C266.992 186.98 266.644 186.804 266.196 186.804C265.748 186.804 265.4 186.98 265.152 187.332C264.904 187.676 264.78 188.16 264.78 188.784C264.78 189.408 264.904 189.896 265.152 190.248C265.4 190.592 265.748 190.764 266.196 190.764ZM272.693 192.144C272.029 192.144 271.509 191.932 271.133 191.508C270.765 191.076 270.581 190.476 270.581 189.708V185.568H272.381V189.288C272.381 189.784 272.457 190.148 272.609 190.38C272.761 190.604 273.001 190.716 273.329 190.716C273.697 190.716 273.981 190.592 274.181 190.344C274.389 190.088 274.493 189.708 274.493 189.204V185.568H276.293V192H274.649L274.601 190.152L274.829 190.2C274.733 190.84 274.505 191.324 274.145 191.652C273.785 191.98 273.301 192.144 272.693 192.144ZM277.87 192V185.568H279.49L279.562 187.452L279.334 187.392C279.398 186.912 279.526 186.528 279.718 186.24C279.918 185.952 280.166 185.744 280.462 185.616C280.758 185.488 281.082 185.424 281.434 185.424C281.898 185.424 282.29 185.524 282.61 185.724C282.938 185.924 283.186 186.208 283.354 186.576C283.53 186.936 283.618 187.364 283.618 187.86V192H281.818V188.46C281.818 188.116 281.79 187.824 281.734 187.584C281.678 187.344 281.578 187.164 281.434 187.044C281.29 186.916 281.09 186.852 280.834 186.852C280.458 186.852 280.17 186.992 279.97 187.272C279.77 187.544 279.67 187.94 279.67 188.46V192H277.87ZM287.448 192C286.784 192 286.296 191.848 285.984 191.544C285.672 191.232 285.516 190.74 285.516 190.068V184.056H287.316V189.852C287.316 190.164 287.38 190.376 287.508 190.488C287.644 190.6 287.844 190.656 288.108 190.656H289.008V192H287.448ZM284.484 186.912V185.568H289.008V186.912H284.484ZM291.84 192C291.176 192 290.688 191.848 290.376 191.544C290.064 191.232 289.908 190.74 289.908 190.068V184.056H291.708V189.852C291.708 190.164 291.772 190.376 291.9 190.488C292.036 190.6 292.236 190.656 292.5 190.656H293.4V192H291.84ZM288.876 186.912V185.568H293.4V186.912H288.876ZM294.549 192V190.164H296.505V192H294.549ZM300.649 192.144C299.993 192.144 299.421 192.008 298.933 191.736C298.445 191.456 298.065 191.064 297.793 190.56C297.521 190.056 297.385 189.464 297.385 188.784C297.385 188.104 297.521 187.516 297.793 187.02C298.065 186.516 298.445 186.124 298.933 185.844C299.421 185.564 299.993 185.424 300.649 185.424C301.217 185.424 301.725 185.524 302.173 185.724C302.629 185.924 302.997 186.212 303.277 186.588C303.557 186.964 303.729 187.416 303.793 187.944L301.933 188.028C301.877 187.628 301.733 187.328 301.501 187.128C301.277 186.92 300.993 186.816 300.649 186.816C300.201 186.816 299.853 186.988 299.605 187.332C299.357 187.676 299.233 188.16 299.233 188.784C299.233 189.408 299.357 189.896 299.605 190.248C299.853 190.592 300.201 190.764 300.649 190.764C300.993 190.764 301.281 190.66 301.513 190.452C301.745 190.236 301.885 189.912 301.933 189.48L303.793 189.552C303.737 190.08 303.569 190.54 303.289 190.932C303.017 191.316 302.653 191.616 302.197 191.832C301.749 192.04 301.233 192.144 300.649 192.144ZM307.704 192.144C307.048 192.144 306.476 192.008 305.988 191.736C305.5 191.456 305.12 191.064 304.848 190.56C304.576 190.056 304.44 189.464 304.44 188.784C304.44 188.104 304.576 187.516 304.848 187.02C305.12 186.516 305.5 186.124 305.988 185.844C306.476 185.564 307.048 185.424 307.704 185.424C308.36 185.424 308.932 185.564 309.42 185.844C309.908 186.124 310.288 186.516 310.56 187.02C310.832 187.516 310.968 188.104 310.968 188.784C310.968 189.464 310.832 190.056 310.56 190.56C310.288 191.064 309.908 191.456 309.42 191.736C308.932 192.008 308.36 192.144 307.704 192.144ZM307.704 190.764C308.152 190.764 308.5 190.592 308.748 190.248C308.996 189.896 309.12 189.408 309.12 188.784C309.12 188.16 308.996 187.676 308.748 187.332C308.5 186.98 308.152 186.804 307.704 186.804C307.256 186.804 306.908 186.98 306.66 187.332C306.412 187.676 306.288 188.16 306.288 188.784C306.288 189.408 306.412 189.896 306.66 190.248C306.908 190.592 307.256 190.764 307.704 190.764ZM312.089 192V185.568H313.709L313.769 187.116L313.601 187.044C313.689 186.7 313.821 186.408 313.997 186.168C314.181 185.928 314.401 185.744 314.657 185.616C314.913 185.488 315.193 185.424 315.497 185.424C316.033 185.424 316.465 185.58 316.793 185.892C317.129 186.204 317.345 186.624 317.441 187.152L317.213 187.164C317.285 186.788 317.409 186.472 317.585 186.216C317.769 185.952 317.993 185.756 318.257 185.628C318.521 185.492 318.817 185.424 319.145 185.424C319.593 185.424 319.977 185.516 320.297 185.7C320.617 185.884 320.865 186.16 321.041 186.528C321.217 186.888 321.305 187.332 321.305 187.86V192H319.505V188.364C319.505 187.86 319.429 187.484 319.277 187.236C319.125 186.98 318.877 186.852 318.533 186.852C318.317 186.852 318.133 186.912 317.981 187.032C317.829 187.152 317.709 187.328 317.621 187.56C317.541 187.784 317.501 188.06 317.501 188.388V192H315.881V188.388C315.881 187.892 315.809 187.512 315.665 187.248C315.521 186.984 315.273 186.852 314.921 186.852C314.705 186.852 314.517 186.912 314.357 187.032C314.205 187.152 314.089 187.328 314.009 187.56C313.929 187.792 313.889 188.068 313.889 188.388V192H312.089Z" fill="white"/>
<path d="M157.966 182.991H144.316L144.301 173.975H135.431V178.324L139.918 178.368V182.976H135.306L135.262 178.483H126.426L126.382 182.996H99.2244L99.1846 174.005L94.8663 173.955L94.7918 178.468L85.847 178.488L85.7625 182.996L76.6588 182.986L76.6489 178.368L81.1262 178.329L81.1659 173.846L90.1405 173.826L90.1703 169.477L85.6582 169.437L85.6433 155.934L81.156 155.894V151.292L85.7675 151.277L85.8222 155.755L90.2995 155.799L90.3343 164.785L94.8067 164.825L94.8415 169.303L99.1846 169.313L99.2095 160.486L94.7073 160.427L94.6626 151.431L90.22 151.396L90.1504 146.918L85.6632 146.883V142.385L81.32 142.395L81.2802 146.838L76.793 146.958L76.7681 151.401L72.1417 151.391L72.1516 142.251L76.6439 142.231V133.37L72.2908 133.385L72.256 137.868L63.2715 137.887L63.2516 142.226L67.7489 142.261L67.7787 146.898L63.1324 146.888L63.0926 142.39H58.7743L58.6898 146.903H45.0938L45.1038 142.251L58.6053 142.236V128.872L49.7401 128.852L49.7103 137.838L45.074 137.873V119.702L54.1926 119.687L54.2522 124.17L58.7097 124.22L58.7693 128.718H63.0976L63.1324 124.225L67.5948 124.19L67.6296 119.861L63.1373 119.806V115.194L72.1417 115.154L72.1318 106.308H67.7836L67.7588 110.801L63.1224 110.791V106.174L67.6147 106.144L67.6047 101.795H58.7693L58.7296 106.288L49.7302 106.318V110.632L54.2224 110.701V115.308L40.5718 115.323L40.537 110.826L36.0547 110.786V106.179L45.064 106.139L45.1137 101.641H58.5954L58.6501 97.143H76.7632L76.8029 101.75L72.2858 101.835L72.2958 106.134L76.788 106.203L76.8079 110.642L81.2902 110.681V115.318H72.3007L72.2809 124.2H81.1461L81.1858 119.717L85.6483 119.682L85.6781 115.209L90.1554 115.174L90.1952 110.826L85.6781 110.791V106.174L90.1753 106.144L90.2051 101.656L94.6924 101.631V92.7842H90.3393L90.3244 97.2473L85.7079 97.2772L85.6284 92.7643L72.1417 92.7494V74.574L85.6582 74.569V70.2152L76.6836 70.1804L76.624 65.7124L72.1417 65.6478V52.0099H81.2604L81.315 56.4929L85.6582 56.5178V52.0398L90.2796 52L90.3492 56.5078H94.6675L94.7073 52.0199L99.3188 52.0099L99.3536 56.5029H103.702L103.741 52.0149H108.338L108.353 56.652L103.861 56.6768L103.831 61.1598L99.3585 61.1896L99.3238 65.6577L94.8564 65.7024L94.7918 74.7131L85.8172 74.7231V83.5747L90.1703 83.5847L90.1852 79.1116L94.8067 79.0818L94.8464 83.5797H99.1896L99.2244 79.1017H103.846V88.2416L94.8713 88.2515L94.8116 92.5904L99.3287 92.655L99.3436 97.1231L108.224 97.138L108.234 79.1166L112.746 79.0669V70.2152L108.378 70.2252L108.353 74.7032L99.2492 74.7231L99.1995 70.086L108.184 70.0562L108.264 65.5682L117.243 65.5434L117.263 52.0199L121.899 52.0447L121.919 61.0505L126.257 61.0157L126.292 56.5277L130.924 56.5526V74.7181L117.417 74.728L117.392 79.0719L121.904 79.1116L121.869 88.2515H112.895L112.87 97.2324L108.383 97.307L108.343 101.76L103.851 101.835L103.861 106.149L108.348 106.183L108.368 115.184L121.74 115.199L121.76 106.198L126.252 106.154L126.262 97.307L117.273 97.2821L117.243 92.65L126.342 92.6302L126.461 97.1678L130.764 97.1231L130.794 88.1372L144.41 88.1273L144.49 92.6401H153.29L153.34 88.1372H166.986L167.001 97.2622L162.419 97.302L162.315 92.7842L157.976 92.8141V101.641L162.474 101.666L162.498 106.149L166.996 106.193V115.338H157.882L157.832 110.855L153.479 110.811L153.464 115.313L144.48 115.348L144.455 119.687L153.449 119.727L153.494 124.22H157.802L157.892 119.702L167.006 119.742L166.981 124.329L162.508 124.379L162.488 128.718L166.996 128.748L166.971 133.39L157.857 133.375L157.837 128.907L153.484 128.862L153.464 142.221L157.947 142.281L158.011 146.769L166.981 146.789V151.421H157.877L157.827 146.933L153.494 146.908L153.449 151.396L148.982 151.436L148.967 155.78L153.449 155.814L153.484 160.307H157.812L157.892 155.799H167.001V164.954H162.389L162.344 160.466H157.986V169.298L162.488 169.358V178.468L158.006 178.513L157.976 183.006L157.966 182.991ZM81.1461 56.6569H76.7681V61.0405H81.1461V56.6569ZM81.161 83.5648L81.1312 79.2309L76.8029 79.221L76.793 83.5946L81.1659 83.5648H81.161ZM117.238 79.2259H112.87V83.5996H117.238V79.2259ZM85.6483 83.7437H81.2802V88.1124H85.6483V83.7437ZM144.306 92.7544H139.928V101.636H144.306V92.7544ZM99.1995 101.785H94.8216V106.154H99.1995V101.785ZM157.847 101.785H153.469V106.154H157.847V101.785ZM139.794 106.298H135.416V110.666H139.794V106.298ZM148.813 106.298H144.445V110.666H148.813V106.298ZM144.306 110.806H139.928V115.184H144.306V110.806ZM103.702 133.206L103.717 128.723H108.204L108.219 115.318H94.8216V128.708L99.3188 128.728L99.3536 133.221L103.707 133.206H103.702ZM130.794 124.324L130.735 119.841L126.272 119.801L126.228 115.313L121.889 115.348V128.728L139.779 128.723V124.354L130.794 124.324ZM135.287 115.318H130.909V119.697H135.287V115.318ZM90.1653 119.826H85.7973V124.21H90.1653V119.826ZM144.306 119.826H139.928V124.21H144.306V119.826ZM85.6483 124.339H81.2802V128.723H85.6483V124.339ZM148.813 124.339H144.445V128.723H148.813V124.339ZM67.6097 128.857H63.2417V133.23H67.6097V128.857ZM94.6973 142.276L99.1995 142.211L99.1796 137.902L94.6973 137.858L94.6526 133.36L85.7973 133.409L85.8172 142.231L90.2647 142.261L90.3591 146.774L94.6526 146.764L94.7023 142.281L94.6973 142.276ZM117.243 142.231L117.213 137.887L108.244 137.873L108.169 133.36L103.841 133.404V151.262L108.209 151.237L108.234 142.251L117.248 142.226L117.243 142.231ZM126.257 133.37H117.377V137.743H126.257V133.37ZM135.287 133.37H130.909V142.251H135.287V133.37ZM144.306 133.37H139.928V137.738H144.306V133.37ZM126.262 151.262L126.228 146.908L121.79 146.898L121.715 142.395H117.407L117.332 146.898L112.875 146.913L112.905 151.287L126.262 151.262ZM153.32 142.39H148.952V146.769H153.32V142.39ZM130.904 146.898V160.297H144.301V146.898H130.904ZM103.707 151.411H99.3287V155.79H103.707V151.411ZM117.238 155.924H112.87V160.302H117.238V155.924ZM108.219 160.442H103.841V164.81H108.219V160.442ZM126.257 160.442H121.884V164.815H126.257V160.442ZM117.243 178.319V173.881L121.745 173.801L121.73 169.477L117.253 169.447L117.213 164.954L108.363 164.964L108.318 169.462L99.3387 169.472L99.3585 173.836H112.83L112.91 178.359L117.243 178.319ZM139.794 164.954H135.416V169.323H139.794V164.954ZM148.813 164.954H144.445V169.328H148.813V164.954ZM153.32 169.462H148.952V173.841H153.32V169.462ZM126.257 173.975H121.884V178.354H126.257V173.975ZM157.847 173.975H153.469V178.354H157.847V173.975Z" fill="#003C69"/>
<path d="M49.5414 92.7594L45.1982 92.7842L45.1783 97.2523L40.5569 97.2672L40.542 92.655L45.0342 92.5954L45.0939 88.1124L58.6998 88.1074L58.7346 92.7147L54.2225 92.819L54.1877 97.2473L49.6209 97.2772L49.5414 92.7594Z" fill="#003C69"/>
<path d="M76.773 169.492L76.7531 173.975L72.1267 173.96L72.1317 160.302H81.2752L81.2802 169.447L76.773 169.492Z" fill="#003C69"/>
<path d="M40.686 128.723H36V146.898H40.686V128.723Z" fill="#003C69"/>
<path d="M117.407 101.636H112.711V110.806H117.407V101.636Z" fill="#003C69"/>
<path d="M130.904 79.0818H126.257V83.7437H130.904V79.0818Z" fill="#003C69"/>
<path d="M67.7589 88.1124H63.0977V92.7544H67.7589V88.1124Z" fill="#003C69"/>
<path d="M166.996 137.738H162.354V142.39H166.996V137.738Z" fill="#003C69"/>
<path d="M67.6097 151.282V182.866H36.0298V151.282H67.6097ZM63.0975 155.79H40.5419V178.354H63.0975V155.79Z" fill="#003C69"/>
<path d="M58.5904 160.297H45.064V173.846H58.5904V160.297Z" fill="#003C69"/>
<path d="M166.866 52.0099V83.5946H135.287V52.0099H166.866ZM162.354 56.5228H139.799V79.0868H162.354V56.5228Z" fill="#003C69"/>
<path d="M157.847 61.0405H144.306V74.574H157.847V61.0405Z" fill="#003C69"/>
<path d="M67.6097 52.0099V83.5946H36.0298V52.0099H67.6097ZM63.0975 56.5228H40.5419V79.0868H63.0975V56.5228Z" fill="#003C69"/>
<path d="M58.5904 61.0405H45.064V74.574H58.5904V61.0405Z" fill="#003C69"/>
<path d="M103.841 119.697H99.1995V124.339H103.841V119.697Z" fill="#003C69"/>
<path d="M139.928 151.282H135.287V155.924H139.928V151.282Z" fill="#003C69"/>
<g clip-path="url(#clip1_933_3025)">
<rect x="75" y="92" width="53" height="53" rx="26.5" fill="#003C69"/>
<g clip-path="url(#clip2_933_3025)">
<path d="M138.223 120.733C138.347 120.698 138.546 120.701 138.748 120.48C147.025 120.698 154.955 116.834 160.587 110.884C162.231 109.146 164.338 108.643 166.735 109.235C165.489 107.768 165.021 106.359 164.989 104.581C164.9 100.043 165.672 95.5072 167.174 91.2323C167.631 89.9258 168.791 89.5228 170.021 89.9206C172.512 90.7239 175.238 90.8951 177.517 92.3622C179.361 93.5475 176.707 102.35 175.612 104.771C174.407 107.436 172.343 109.141 169.421 110.126C171.673 111.05 172.873 112.349 172.806 114.477C172.738 116.605 171.627 118.278 169.991 119.724C171.361 120.983 172.838 122.616 171.649 124.159C170.771 125.297 164.227 123.917 162.648 122.832C159.069 127.984 151.002 131.685 145.209 133.895L145.604 144.365L151.15 144.088C153.233 141.148 157 140.624 159.774 142.832C160.132 143.116 160.649 143.648 161.122 143.585L164.55 143.132H171.708C171.775 141.246 171.684 139.476 171.902 137.648C172.249 134.766 174.907 134.977 174.985 131.479L175.131 125.037C175.174 123.14 176.602 121.942 178.548 122.055C180.052 122.142 181.169 123.082 181.303 124.607L181.893 131.345C182.25 135.443 185.331 135.098 185.681 139.278L185.969 142.697C188.162 142.821 190.151 142.789 192.239 142.671C193.256 142.613 192.685 140.042 194.922 140.582C197.529 141.214 197.604 138.383 201.124 138.306C202.48 138.277 203.621 139.139 204.267 140.269C205.367 142.189 206.71 138.649 210.862 142.868C211.562 143.58 213.276 142.908 214.142 143.1L214.357 137.487C208.166 136.605 199.964 131.598 196.326 126.317C193.872 127.412 188.173 128.3 187.89 125.121C187.775 123.843 188.386 123.156 189.79 122.216C187.29 121.842 185.622 120.527 185.296 118.465C184.519 113.545 190.552 113.323 189.163 112.833C187.96 112.409 186.674 112.462 185.633 111.674C184.293 110.658 183.122 109.383 182.358 107.866C180.867 104.908 179.853 101.934 178.642 98.8365C178.37 98.1385 177.897 96.7188 178.717 96.2026C181.112 94.6959 183.878 93.8715 186.599 93.1498C187.872 92.81 188.8 93.3289 189.36 94.451C191.456 98.6442 192.683 103.18 192.868 107.858C192.936 109.586 192.075 110.676 191.103 112.578C194.591 112.504 197.061 113.866 199.528 115.773C202.806 118.304 210.717 123.022 215.218 122.579C212.557 121.349 209.96 120.169 208.733 117.501C207.221 114.214 208.575 110.555 211.379 108.195C209.223 107.289 205.052 105.951 205.733 103.335C206.325 101.06 214.788 101.618 217.021 101.657C219.771 96.8268 225.5 92.7705 231.261 94.4773C236.279 95.9629 237.019 102.716 235.943 107.097C238.849 108.893 239.936 108.221 243.031 111.048C244.341 112.243 244.621 114.261 243.386 115.565C242.436 116.568 241.061 116.782 239.64 116.834C240.59 119.179 241.634 120.517 240.988 123.198C243.598 125.403 245.288 128.058 246.973 131.245C250.045 131.266 252.989 131.84 255.658 133.104C264.942 137.503 261.118 147.636 260.997 152.888C260.9 157.039 261.498 161.33 258.925 165.025C258.446 165.713 257.37 165.91 256.522 166.395L256.482 193.109C256.482 194.868 255.562 196.314 254.055 196.878C252.629 197.41 250.578 197.244 249.655 195.948C248.732 194.652 248.716 193.095 248.644 191.552L247.597 169.637L239.546 172.314L239.339 178.701C241.653 178.25 243.609 177.25 245.657 176.228C246.047 176.033 246.798 175.861 247.061 176.309C248.557 178.867 240.733 180.903 239.148 181.714C239.029 186.698 239.01 191.389 238.639 196.18C238.585 196.886 237.477 196.92 237.052 196.772C236.559 196.601 236.244 195.948 236.274 195.218L237.105 173.148L228.25 175.556L228.067 187.554C229.7 187.53 231.352 187.825 232.421 189.063C234.073 190.978 233.623 193.833 231.724 195.427C230.674 196.304 229.458 196.728 228 196.852C227.545 200.947 229.302 208.143 223.175 207.875C221.014 207.78 219.521 206.568 219.475 204.393L219.338 198.039C216.155 199.167 208.513 199.662 206.92 195.695C203.965 196.736 194.475 196.246 193.872 192.708C193.24 188.989 199.149 186.416 202.345 185.747C202.913 183.342 203.01 181.037 203.244 178.635C203.311 177.955 203.473 177.329 204.022 177.171C204.434 177.052 205.539 177.015 205.601 177.687C205.844 180.284 205.265 182.799 204.864 185.449C207.663 185.52 209.993 186.247 212.266 187.504C212.815 187.806 213.997 186.861 214.018 186.268C214.112 183.703 213.865 181.061 214.223 178.564C214.325 177.85 214.912 177.313 215.504 177.36C216.096 177.408 216.583 178.058 216.556 178.769L216.268 185.944C217.196 185.952 217.958 185.752 218.897 185.604L218.649 175.959L206.505 175.967L189.817 175.727L154.785 175.498L156.241 185.56C159.15 186.305 162.737 187.443 164.217 190.272C164.865 191.51 164.658 192.843 163.582 193.746C161.959 195.108 159.736 195.677 157.656 195.313C157.186 196.017 156.664 196.628 155.835 196.909C150.483 198.735 141.767 198.116 140.142 192.066L136.176 177.292C135.966 176.507 136.34 175.977 137.039 175.846C137.739 175.714 138.242 176.072 138.46 176.844L141.495 187.554C144.146 186.829 146.778 186.487 149.468 186.903C150.736 187.101 151.718 187.817 152.829 188.333C155.028 189.358 156.666 191.109 157.81 193.088C159.072 193.288 160.961 192.89 161.712 191.96C162.25 191.294 161.257 190.398 160.743 190.024C157.18 187.438 154.188 188.873 153.889 186.785L152.267 175.435L139.574 175.219L127.498 174.911C127.915 179.375 128.76 183.758 129.621 188.399C133.197 188.794 136.213 190.606 138.301 193.23C139.51 195.205 138.858 197.096 137.042 198.274C135.048 199.564 132.705 199.098 130.635 199.672C128.262 201.637 125.902 202.046 122.679 201.761C122.439 203.123 122.423 204.3 121.554 205.27C120.378 206.579 118.166 206.942 116.573 206.168C114.332 205.083 114.848 201.5 114.361 199.68C112.034 200.17 110.053 199.412 108.996 197.56C108.097 195.99 108.625 194.455 108.53 192.822C108.436 191.188 107.077 182.596 106.558 182.093C106.415 181.956 105.966 182.27 105.958 182.644C105.872 187.135 106.082 191.497 106.195 196.009L106.335 201.64C106.351 202.277 105.422 202.364 105.051 202.322C104.68 202.28 103.948 202.093 103.908 201.45C103.504 195.06 103.418 188.781 103.396 182.317C100.983 182.328 98.908 182.23 96.3706 181.985C96.1311 186.487 96.3544 190.901 96.715 195.405C96.7796 196.201 96.2629 196.794 95.6414 196.815C94.931 196.838 94.3659 196.543 94.2717 195.708C94.0188 193.448 93.9058 191.31 93.8762 189.005L86.7805 188.425C86.2693 192.187 86.1266 195.656 85.8925 199.222C85.8334 200.128 85.4217 200.781 84.5956 200.768C83.7695 200.755 83.2932 200.112 83.3336 199.151C83.6054 192.872 84.3965 186.756 85.567 180.582C84.8404 180.147 84.2189 180.018 83.5758 179.725C80.3253 178.245 80.7746 174.958 81.8025 172.079C79.6472 169.864 78.2668 167.327 77.2039 164.472C74.4485 157.073 79.2678 152.472 83.3336 145.423C84.9398 142.59 86.6494 137.131 88.5887 133.758L92.2429 126.211C92.2321 124.934 90.7522 123.907 89.9341 123.095C88.8282 121.997 88.0398 120.316 88.8955 119.047C89.4929 118.162 89.4525 117.683 89.1861 116.716C88.4703 114.111 89.3745 111.524 90.8383 109.196C89.2318 108.416 88.5538 107.102 88.7852 105.464C89.2507 102.166 94.0134 98.4414 97.8882 100.567C99.1959 101.283 100.046 102.442 100.81 103.728C105.167 103.367 109.152 104.966 112.268 107.731C114.27 109.509 116.32 111.577 115.473 114.495C118.053 118.689 119.616 122.184 117.496 127.049C117.152 127.839 116.511 128.313 115.944 129.038C120.243 132.443 123.596 136.718 125.542 141.931C127.175 141.199 128.442 140.593 130.21 140.206C131.219 134.416 128.822 136.397 129.024 133.631C129.112 132.427 128.711 128.405 130.557 128.687C132.489 128.98 130.732 131.827 131.354 133.162C132.002 132.396 131.817 129.114 133.014 129.019C134.54 128.898 134.072 132.038 134.254 133.168C135.527 131.545 133.872 129.967 135.062 129.085C136.787 127.807 137.793 132.496 136.06 135.167C135.312 136.318 134.26 136.839 132.858 136.866C132.958 137.961 132.6 139.157 132.974 140.129C133.512 140.393 134.502 140.303 134.906 140.722C136.544 142.413 134.55 144.783 134.836 146.951C135.366 147.183 135.931 146.925 136.45 146.714C138.606 145.837 140.683 145.084 143.045 144.689C143.097 142.689 142.846 140.872 142.833 138.904L142.798 133.897C142.79 132.859 143.417 132.077 144.318 131.679L150.601 128.898C153.322 127.694 159.295 124.051 160.536 121.394C158.929 120.348 157.942 118.913 156.798 117.424C151.36 120.983 145.028 123.137 138.522 122.813C137.699 122.771 137.919 121.241 138.242 120.725L138.223 120.733ZM175.217 97.4827C175.556 96.1551 175.728 95.1516 175.545 94.0427L169.259 92.3965C168.735 94.4694 168.21 96.2974 167.962 98.502L175.217 97.4827ZM182.224 101.568C184.573 101.049 186.688 100.933 189.107 100.709C188.62 98.8997 188.044 97.2798 187.126 95.5994L181.925 97.2825C180.125 97.8646 181.607 99.6056 182.224 101.565V101.568ZM231.874 110.01L236.901 110.157C236.077 109.599 235.111 109.562 234.151 109.196C232.386 108.527 234.528 105.682 233.718 101.01C233.201 98.0437 230.798 96.2394 227.763 96.6214C225.12 96.9532 222.841 98.1043 221.162 100.148L217.863 104.168C214.667 104.199 211.793 103.957 208.55 104.328C212.067 105.998 215.646 106.925 219.397 107.905C223.49 108.975 227.47 109.889 231.877 110.005L231.874 110.01ZM168.969 107.581C172.093 107.139 174.31 102.39 174.638 99.8954L167.577 101.075C167.446 102.076 166.945 107.866 168.969 107.579V107.581ZM98.3994 104.152C97.5814 103.422 96.715 102.658 95.6037 102.506C93.3111 102.192 91.1827 104.228 91.2204 106.407C91.2284 106.857 91.632 107.223 91.885 107.305C92.1702 107.397 96.4647 104.397 98.3994 104.152ZM189.236 110.247C191.039 109.641 190.191 104.681 189.752 103.059C187.546 103.143 185.601 103.57 183.243 103.904C183.854 106.033 186.731 111.087 189.236 110.247ZM98.873 112.899L104.002 110.961C105.799 109.989 107.586 109.33 109.545 108.466C104.93 105.543 99.0318 105.348 94.7615 108.479C92.3451 110.252 91.0481 113.123 91.5675 116.002C94.0269 114.619 96.3625 113.847 98.873 112.899ZM235.97 115.894C235.714 115.567 235.781 114.991 235.943 114.73C236.33 114.103 239.29 115.404 241.685 113.945C241.201 112.638 239.898 112.43 238.69 112.48C233.562 112.696 228.573 112.401 223.533 111.461C220.36 110.868 217.484 109.628 214.172 109.272C212.293 109.894 210.601 112.641 210.604 114.651C210.606 116.661 212.035 118.286 213.8 119.189C219.206 121.952 225.532 120.859 230.244 117.124C230.946 116.568 232.335 116.152 232.709 117.114C233.083 118.075 231.993 118.723 231.441 119.41C232.773 121.036 236.511 123.762 238.349 122.605C239.963 121.591 236.93 117.119 235.97 115.889V115.894ZM111.442 110.363C110.974 110.055 109.647 110.568 109.905 111.124C110.409 112.207 111.1 113.107 111.77 114.037C112.012 114.374 112.728 113.921 112.97 113.718C113.853 112.989 112.384 110.982 111.442 110.363ZM164.596 115.341C163.67 115.67 163.302 116.481 162.513 116.107C161.814 115.776 161.833 114.78 162.032 114.19C162.508 112.77 164.176 114.461 164.83 111.585C162.801 110.934 160.783 114.801 158.776 116.2L162.567 120.053C164.747 117.166 162.952 118.441 164.599 115.344L164.596 115.341ZM109.693 114.806C108.797 113.942 108.498 112.947 107.928 111.935C107.12 112.325 106.547 112.575 105.716 112.662L107.295 115.992C108.242 115.778 109.009 115.599 109.695 114.809L109.693 114.806ZM167.551 118.762C168.958 117.854 171.468 114.577 169.892 113.034C169.477 112.628 168.296 112.275 167.615 112.528L166.205 118.086C166.361 118.359 167.225 118.973 167.548 118.765L167.551 118.762ZM105.304 116.69L103.864 113.492C103.383 113.729 102.546 114 102.543 114.445C102.535 115.557 103.073 116.458 103.321 117.609C104.018 117.414 104.682 117.369 105.307 116.687L105.304 116.69ZM99.8256 119.184C100.547 119.01 100.73 118.676 101.053 118.312C100.856 117.164 100.63 116.1 100.162 115.027C99.6291 115.23 98.7788 115.538 98.83 115.984C98.9591 117.103 99.4758 118.046 99.8229 119.184H99.8256ZM198.5 121.773L201.07 120.011L196.412 116.661C195.532 116.028 194.612 115.475 193.654 115.304C193.781 115.941 193.794 116.381 193.945 116.608C194.257 117.077 196.197 116.697 195.944 117.946C195.718 119.057 194.521 118.878 194.609 119.553C194.771 120.78 196.272 119.827 198.503 121.773H198.5ZM191.569 117.314C191.076 116.871 191.278 116.023 190.942 115.678C190.223 114.943 187.393 116.171 187.637 118.001C187.866 119.713 189.946 119.647 191.598 120.962C192.554 119.985 192.766 118.391 191.571 117.314H191.569ZM98.281 128.687C102.592 131.174 107.745 131.474 112.004 129.074C114.865 127.462 116.447 124.47 115.9 121.288C115.559 119.3 114.762 117.496 113.554 115.928L103.846 119.998L98.0792 122.779C96.9356 123.332 95.6333 123.39 94.4951 124.107C94.9229 126.219 96.4163 127.61 98.281 128.687ZM97.194 120.132C97.2182 118.747 96.9948 117.746 96.7123 116.555C96.0611 116.624 94.8772 116.761 94.6592 117.343C94.8368 118.507 95.2915 119.816 95.6817 120.849C96.0477 121.049 97.1886 120.596 97.194 120.132ZM93.2142 121.633C93.4134 120.683 92.9236 119.376 92.4608 118.704C91.6186 118.596 91.2822 119.813 91.2688 120.496C91.2553 121.144 91.4571 121.541 91.8715 121.802C92.1702 121.989 93.0743 122.316 93.2169 121.633H93.2142ZM205.02 131.042C207.907 132.915 210.956 134.137 214.435 134.961L215.466 125.21C210.071 124.715 205.615 122.79 201.1 120.008C201.576 120.943 202.168 121.607 201.479 122.5C200.744 123.564 199.523 124.191 198.344 125.034C200.187 127.457 202.496 129.19 205.017 131.039L205.02 131.042ZM169.254 122.1C167.556 120.814 165.557 120.314 163.455 120.888C165.266 121.576 167.034 122.308 169.254 122.1ZM238.085 143.498C238.335 144.933 237.291 145.679 236.193 145.876C233.451 146.372 230.833 146.524 228.027 146.827C228.226 148.013 229.122 148.647 230.037 149.295C232.074 150.739 233.634 152.59 234.958 154.782C238.706 154.229 242.253 153.525 245.727 152.367C247.748 151.692 249.131 150.286 249.295 148.092C249.752 141.997 245.686 133.315 242.153 128.176C238.774 123.261 238.548 126.451 235.512 125.224C233.153 124.27 231.132 122.85 229.552 120.701C227.507 121.839 225.478 122.453 223.07 122.929C223.638 125.429 224.09 127.908 224.211 130.481C224.246 131.2 223.476 131.524 223.024 131.508C222.572 131.492 221.883 131.411 221.789 130.771L220.697 123.277C219.822 123.148 219.05 123.056 218.151 123.245L217.107 133.808L216.424 143.493C223.864 144.193 228.032 144.799 235.526 143.398L232.83 133.152C232.617 132.341 233.091 131.629 233.793 131.545C234.261 131.487 235.025 131.703 235.211 132.414C236.174 136.075 237.418 139.673 238.085 143.493V143.498ZM196.506 123.501C195.6 122.582 194.852 122.54 194.176 122.368C192.89 123.18 191.48 123.656 190.46 124.96C192.72 125.118 194.601 124.357 196.506 123.501ZM177.644 126.409C178.79 126.269 179.151 126.04 179.008 125.426C178.903 124.979 178.664 124.544 177.986 124.726C177.474 125.152 177.181 125.953 177.644 126.409ZM101.41 152.003C101.69 153.304 102.385 154.015 103.827 154.047C107.589 154.131 111.299 153.792 115.077 153.136C121.215 152.07 122.606 149.67 122.611 149.622C123.148 144.926 121.761 137.088 114.203 130.684C107.661 134.648 99.4973 133.697 93.8573 128.419C91.9496 131.758 90.7791 134.988 89.5574 138.43C87.4478 145.284 86.8747 155.403 89.8427 162.025C91.885 166.582 97.315 166.358 101.642 165.484L110 163.795L109.903 156.37C106.318 156.462 100.057 157.885 99.134 153.223C98.3187 149.098 98.2111 144.915 98.9699 140.801C99.099 140.103 99.9493 139.737 100.439 139.803C102.395 140.066 100.038 145.597 101.41 152V152.003ZM178.44 151.047C178.265 148.666 178.319 146.324 178.521 143.927C178.712 141.675 181.804 143.05 183.421 142.658C183.324 140.864 183.564 138.72 182.299 137.385C179.14 134.047 179.88 133.162 179.094 128.824C175.567 128.229 179.546 132.915 175.268 136.515C174.595 137.082 174.229 138.006 174.226 138.915C174.205 144.217 174.283 149.343 174.568 154.608C174.614 155.451 175.332 156.141 176.226 156.175C178.591 156.267 181.104 156.312 183.321 155.48C183.911 154.671 183.806 153.078 183.526 152.29C181.774 152.243 178.615 153.436 178.44 151.05V151.047ZM258.215 152.401C259.294 147.272 261.167 139.829 255.968 136.262C253.659 134.679 251.009 133.987 248.151 133.726C250.153 137.282 253.073 146.588 251.375 150.404L258.212 152.401H258.215ZM89.8642 171.176C88.8013 168.881 88.0882 166.985 88.6156 164.649C83.8529 157.663 80.6024 154.914 83.3336 146.951C79.7763 146.783 81.5738 138.812 79.9862 141.931C76.5554 148.668 77.0855 158.064 79.9862 164.852C82.0689 169.727 83.8825 171.874 89.8669 171.178L89.8642 171.176ZM202.109 142.884C202.719 142.394 201.869 140.835 201.054 140.793C199.969 140.738 198.697 141.673 199.033 142.792C199.959 142.771 201.264 143.358 202.106 142.884H202.109ZM130.237 144.955C129.947 144.336 130.261 143.451 130.902 143.49C131.655 143.535 132.314 143.935 133.033 143.772C133.291 143.711 133.256 143.2 133.143 143.053C131.989 141.546 127.304 143.962 125.647 144.596C126.467 146.466 126.79 148.392 126.979 150.409C128.701 150.096 130.315 149.638 131.819 148.753C132.086 148.031 132.207 147.33 132.36 146.501C131.564 146.119 130.689 145.911 130.242 144.957L130.237 144.955ZM208.887 147.465C208.397 149.464 204.964 147.66 203.669 147.088C203.521 147.96 203.309 148.734 202.647 149C202.103 149.219 201.092 149.409 200.75 148.845C200.066 147.723 202.429 146.345 201.382 145.732C200.871 145.431 199.711 145.163 199.111 145.423C198.476 145.697 195.974 147.965 195.29 147.088C194.663 146.282 196.506 144.546 196.886 143.279C195.737 143.516 194.93 144.214 194.012 144.881L191.251 146.891C190.729 147.27 190.557 147.889 190.651 148.458C190.998 150.568 205.122 153.586 213.698 149.677C216.717 148.302 210.69 146.577 209.428 145.236C208.238 143.975 206.885 142.568 204.939 143.261C204.466 143.429 204.423 144.704 205.007 144.844C206.304 145.152 209.255 145.95 208.887 147.462V147.465ZM158.318 145.02C156.954 143.782 154.468 143.264 153.281 145.231C154.142 146.224 158.208 146.414 158.318 145.02ZM183.669 149.87L183.547 145.223C182.657 145.044 181.831 145.115 180.902 145.178C180.725 146.785 180.695 148.25 180.814 149.867C181.769 150.088 182.649 150.041 183.669 149.867V149.87ZM164.984 165.523L198.966 165.544C209.266 165.55 219.319 165.589 229.509 164.272C235.192 163.537 240.283 161.106 245.783 159.792L258.565 155.248C255.874 154.405 253.091 153.281 250.269 152.899C245.186 156.051 241.596 155.735 236.723 157.184C235.615 157.513 234.552 157.197 233.637 157.031C229.407 158.538 229.068 160.469 224.948 158.812C223.877 158.382 222.731 158.298 222.637 156.71C222.521 154.811 220.473 156.117 219.464 154.476C219.061 153.82 218.932 152.883 219.22 152.151C220.721 148.305 225.344 147.91 224.485 146.941C224.294 146.725 217.255 146.327 215.423 145.813C216.55 146.754 217.048 147.836 216.943 149.074C216.838 150.312 215.983 151.36 214.696 151.956C209.92 154.168 204.538 154.532 199.24 153.923C196.071 153.56 193.132 152.964 190.369 151.55C189.015 150.857 188.254 149.883 188.181 148.502C188.108 147.122 188.523 146.145 189.954 145.16C188.539 144.918 187.401 145.178 186.031 145.176L186.351 154.171C186.421 156.146 185.407 157.708 183.416 158.145C180.031 158.888 172.281 160.095 172.047 154.972C171.904 151.866 171.751 148.911 171.791 145.747C168.829 145.592 166.111 145.447 163.124 145.811C165.32 146.63 167.392 147.641 168.708 149.588C169.555 150.841 168.947 152.506 167.863 153.483C166.948 154.305 165.812 154.874 164.58 155.285C157.261 157.729 148.185 158.688 140.928 155.735C138.743 154.845 137.677 152.393 138.99 150.46C140.077 148.858 141.845 148.247 143.384 147.112C140.551 147.644 138.113 148.761 135.465 149.622C132 150.752 131.558 152.83 126.109 152.896C124.864 152.912 123.725 153.971 122.611 154.421C123.771 155.556 124.745 157.239 123.938 158.638C122.611 160.935 120.375 162.352 118.279 163.893L140.083 164.978L154.067 165.336L164.986 165.528L164.984 165.523ZM161.779 150.236C160.194 152.206 157.374 147.08 155.811 148.879C156.69 149.717 157.786 151.258 156.798 152.256C156.373 152.685 155.786 152.677 155.28 152.461C153.674 151.779 153.187 150.233 153.192 148.668C152.724 147.97 151.618 146.922 150.771 146.706C148.626 146.158 146.837 147.562 145.236 148.658L141.579 151.16C141.14 151.46 140.804 151.948 140.914 152.44C140.992 152.78 141.339 153.288 141.888 153.475C147.154 155.272 152.762 155.385 158.257 154.305C159.925 153.979 166.329 152.83 166.461 151.129C166.568 149.743 162.748 148.157 161.286 147.141C160.929 146.891 160.657 146.343 160.264 146.669C158.458 148.179 162.893 148.853 161.779 150.238V150.236ZM227.354 154.455C227.841 155.201 226.565 156.404 227.066 156.942C228.974 156.62 230.427 156.062 232.165 155.085C230.586 153.088 228.939 151.044 226.579 149.812C225.511 149.253 222.064 151.389 221.902 152.145C222.871 152.243 223.614 151.626 224.319 152.011C225.656 152.738 222.866 155.185 224.483 155.343C225.166 155.409 226.625 153.336 227.357 154.458L227.354 154.455ZM119.45 160.029C118.613 159.239 117.305 158.722 118.069 157.737C118.876 156.694 121.331 158.29 121.702 157.674C122.358 156.589 119.595 155.245 118.597 155.259C116.476 155.285 114.571 155.835 112.41 155.978L112.478 163.49C113.979 163.211 115.08 163.15 116.258 162.715C115.933 162.196 115.696 161.82 115.68 161.438C115.591 159.362 118.05 162.015 119.45 160.029ZM255.341 164.314C257.916 163.44 258.104 160.505 258.443 158.09L254.111 159.523C246.001 162.204 238.085 164.912 229.671 166.985C229.176 168.913 228.621 170.773 228.524 172.959C231.474 172.29 234.124 171.523 236.939 170.567L255.341 164.317V164.314ZM225.968 173.249C226.202 171.068 226.633 169.282 227.12 167.285C214.739 168.086 202.555 168.455 190.113 168.405L168.581 168.32L145.22 167.767L137.397 167.538L132.016 167.285L112.416 166.013C111.587 165.96 110.301 166.092 109.784 166.614C109.574 168.21 109.741 170.172 110.57 171.529C110.976 172.105 112.26 172.153 112.957 172.169L132.562 172.577L151.411 172.759L175.784 172.996L198.433 173.196C207.668 173.278 216.572 173.533 225.968 173.254V173.249ZM113.562 191.152L113.027 183.642C112.811 180.629 112.908 177.658 112.47 174.697C110.629 174.518 108.775 174.052 108.035 172.427C107.295 170.802 107.271 168.929 106.97 166.967C102.29 167.754 95.0763 169.896 90.9567 166.888C91.3764 169.134 92.3613 171.131 94.2071 172.49C100.183 176.891 107.527 172.587 108.754 179.373L110.917 191.331C111.948 191.312 112.588 191.412 113.565 191.152H113.562ZM251.297 193.591C251.418 194.515 252.15 195.026 252.785 194.863C253.218 194.752 253.953 194.225 253.955 193.522L254.057 167.422L249.984 168.805L250.664 183.626C250.818 186.979 250.853 190.201 251.294 193.591H251.297ZM106.047 179.997C106.251 178.701 105.299 177.729 104.05 177.631L98.3537 176.905C95.671 176.562 93.3273 175.358 91.6509 173.48C89.0327 174.3 86.5491 173.968 84.0305 173.222C83.5085 174.139 83.1775 175.322 83.5408 176.38C84.1435 178.132 89.1296 178.767 90.9109 178.93C95.9589 179.391 100.818 180.018 106.044 179.997H106.047ZM120.02 202.185L119.665 187.864L119.382 174.816L115.021 174.663C115.282 183.413 116.121 191.839 116.958 200.46C117.079 201.701 117.036 202.975 117.722 203.934C118.088 204.445 119.121 204.145 119.46 203.863C119.799 203.581 120.036 202.949 120.017 202.188L120.02 202.185ZM126.989 188.502L124.888 174.929C123.674 175.04 122.708 174.76 121.758 175.106L122.216 190.282C123.54 189.131 125.125 188.773 126.992 188.502H126.989ZM225.225 203.423C225.527 198.838 225.495 194.486 225.567 189.969L225.793 175.764L221.224 175.919L221.504 184.182L221.77 196.022C221.84 199.075 221.676 202.101 222.333 205.04C222.497 205.781 223.907 205.536 224.329 205.233C224.773 204.911 225.169 204.277 225.225 203.423ZM93.8816 186.611L93.9838 181.943L87.951 181.029L87.0442 186.089L93.8816 186.611ZM207.35 192.656L210.243 189.35C205.429 186.724 200.553 187.928 196.73 191.165C194.009 193.469 205.537 194.726 207.35 192.656ZM219.263 195.603L219.074 188.125C215.939 187.638 209.96 191.955 209.317 194.578C208.852 196.48 217.296 196.733 219.263 195.603ZM155.025 193.256C151.979 189.442 146.982 188.154 142.241 189.924C142.19 192.108 143.557 193.954 145.868 194.652C149.272 195.682 156.855 195.55 155.025 193.256ZM231.032 192.155C231.164 190.546 229.299 189.571 228.032 190.061L228.024 194.455C229.41 194.304 230.908 193.659 231.032 192.155ZM136.178 195.932C136.418 195.116 136.361 194.639 135.993 194.241C133.326 191.378 129.18 189.771 125.087 191.415L130.746 196.657C132.059 197.871 134.793 196.414 136.181 195.932H136.178ZM127.885 197.484C126.489 195.5 124.788 193.87 122.353 193.009C122.27 195.29 122.337 197.178 122.52 199.264C123.381 199.694 129.311 199.507 127.885 197.484ZM114.154 197.473C114.044 196.001 114.06 194.923 113.764 193.672C112.728 193.601 111.878 193.572 110.904 193.659C110.678 194.781 110.659 196.061 111.514 196.862C112.179 197.484 113.255 197.565 114.154 197.47V197.473Z" fill="white"/>
<path d="M107.414 122.094C108.084 123.351 106.779 124.244 105.681 124.367C104.795 124.468 104.112 124.22 103.905 123.403C103.746 122.771 104.072 122.113 104.873 121.773C105.6 121.465 106.913 121.157 107.414 122.094Z" fill="white"/>
<path d="M112.195 122.489C111.366 122.708 110.723 122.334 110.409 121.799C109.991 121.093 110.478 120.527 111.21 120.127C111.773 119.821 112.316 119.737 112.793 119.977C113.358 120.264 113.53 120.767 113.452 121.396C113.393 121.878 112.957 122.289 112.195 122.492V122.489Z" fill="white"/>
</g>
</g>
<rect x="73" y="90" width="57" height="57" rx="28.5" stroke="white" stroke-width="4"/>
</g>
<defs>
<filter id="filter0_d_933_3025" x="181" y="-237" width="765" height="765" filterUnits="userSpaceOnUse" color-interpolation-filters="sRGB">
<feFlood flood-opacity="0" result="BackgroundImageFix"/>
<feColorMatrix in="SourceAlpha" type="matrix" values="0 0 0 0 0 0 0 0 0 0 0 0 0 0 0 0 0 0 127 0" result="hardAlpha"/>
<feMorphology radius="8" operator="erode" in="SourceAlpha" result="effect1_dropShadow_933_3025"/>
<feOffset dy="16"/>
<feGaussianBlur stdDeviation="16"/>
<feComposite in2="hardAlpha" operator="out"/>
<feColorMatrix type="matrix" values="0 0 0 0 0.0470588 0 0 0 0 0.0470588 0 0 0 0 0.0509804 0 0 0 0.4 0"/>
<feBlend mode="normal" in2="BackgroundImageFix" result="effect1_dropShadow_933_3025"/>
<feBlend mode="normal" in="SourceGraphic" in2="effect1_dropShadow_933_3025" result="shape"/>
</filter>
<linearGradient id="paint0_linear_933_3025" x1="216" y1="124" x2="534.5" y2="231" gradientUnits="userSpaceOnUse">
<stop offset="0.255104" stop-color="#003C69"/>
<stop offset="1" stop-color="#001B2F"/>
</linearGradient>
<clipPath id="clip0_933_3025">
<rect width="479" height="237" rx="20" fill="white"/>
</clipPath>
<clipPath id="clip1_933_3025">
<rect x="75" y="92" width="53" height="53" rx="26.5" fill="white"/>
</clipPath>
<clipPath id="clip2_933_3025">
<path d="M82.7354 108C82.7354 96.9543 91.6897 88 102.735 88H105.981C117.026 88 125.981 96.9543 125.981 108V132.405C125.981 143.02 117.376 151.625 106.761 151.625V151.625C93.4918 151.625 82.7354 140.869 82.7354 127.6V108Z" fill="white"/>
</clipPath>
</defs>
</svg>
