<svg width="78" height="67" viewBox="0 0 78 67" fill="none" xmlns="http://www.w3.org/2000/svg">
<g clip-path="url(#clip0_936_3203)">
<path d="M57.2943 40.2332C57.29 40.6024 57.2667 40.9654 57.237 41.3347C57.2052 41.7288 57.3536 40.7787 57.2285 41.4197C57.1883 41.6209 57.1565 41.8242 57.1119 42.0254C56.9466 42.7825 56.7113 43.5272 56.4123 44.2449C56.5756 43.8508 56.1579 44.7593 56.0943 44.8817C55.9205 45.2157 55.7339 45.5414 55.5368 45.8608C55.3396 46.1802 55.1213 46.508 54.8944 46.8212C54.5955 47.2381 54.657 47.1655 54.233 47.653C51.8395 50.3973 48.7867 52.2849 45.2717 53.3905C41.0593 54.7139 36.408 54.9462 32.0726 54.073C28.3541 53.3241 25.0215 51.7871 22.5347 49.2564C20.313 46.9954 19.0367 44.0396 19.0113 41.0526C18.9859 38.0656 14.218 38.0427 14.2413 41.0526C14.3091 49.5157 21.0677 55.9336 29.0262 58.149C38.4835 60.7813 50.0099 58.8293 56.9423 51.673C59.9379 48.5802 62.0176 44.554 62.06 40.2353C62.0876 37.2317 57.3176 37.2296 57.29 40.2353L57.2943 40.2332Z" fill="#1E1E1E"/>
<path d="M35.7268 28.8281C36.9041 28.76 38.1264 29.1245 38.7073 30.3984C39.1909 31.459 39.0692 32.6612 38.1555 33.5576L38.1545 33.5566C37.0307 34.6602 35.3777 35.2325 33.7043 34.9424V34.9756L33.1965 34.833C32.0518 34.5112 31.4422 33.4472 31.3528 32.6045V32.6035C31.2535 31.6393 31.6147 30.5816 32.5159 29.9521C33.3289 29.3863 34.5561 28.896 35.7268 28.8281Z" fill="#1E1E1E" stroke="#1E1E1E" stroke-width="0.8"/>
<path d="M49.4646 29.0557C50.9694 29.2224 51.6866 30.4723 51.782 31.5801C51.891 32.8554 51.1434 33.9053 49.8708 34.4385L49.865 34.4453L49.7898 34.4756C48.7662 34.8801 47.5872 34.9858 46.6033 34.4219C46.2142 34.1986 45.7593 33.8306 45.4441 33.3564C45.1247 32.876 44.9324 32.2556 45.1521 31.5762C45.4304 30.716 46.1076 30.0426 46.8914 29.6104C47.6761 29.1775 48.6112 28.9615 49.4646 29.0557Z" fill="#1E1E1E" stroke="#1E1E1E" stroke-width="0.8"/>
<path d="M17.5336 23.5247C17.5357 23.1762 17.5569 22.8298 17.5866 22.4813C17.6057 22.2532 17.665 21.9669 17.593 22.3755C17.6375 22.1266 17.6778 21.8756 17.7308 21.6267C17.9067 20.7949 18.1505 19.9797 18.4431 19.1811C18.5173 18.9778 18.5978 18.7766 18.6763 18.5754C18.7166 18.4738 18.759 18.3721 18.8014 18.2705C18.7844 18.312 18.6699 18.5671 18.7823 18.3182C19.0028 17.8328 19.236 17.3537 19.4882 16.8828C19.9568 16.0033 20.4804 15.1507 21.0486 14.3272C22.1573 12.7217 23.5184 11.1992 25.1635 9.75755C26.7344 8.38022 28.5364 7.20409 30.6013 6.26028C34.6081 4.42867 39.3972 4.14449 43.7304 5.51353C47.5804 6.72907 51.2607 9.56049 53.5588 12.6284C54.2329 13.5266 54.8498 14.4641 55.401 15.4391C55.6851 15.9411 55.9501 16.4534 56.1982 16.9741C56.2596 17.1047 56.495 17.6295 56.4462 17.5134C56.3974 17.3972 56.6073 17.9199 56.6561 18.0506C57.0016 18.9571 57.2878 19.8864 57.4956 20.8343C57.5507 21.0874 57.5889 21.3446 57.644 21.5977C57.7309 22.0001 57.6249 21.2637 57.6758 21.8134C57.7161 22.2573 57.7479 22.6971 57.7521 23.143C57.7754 26.1445 62.5454 26.1528 62.5221 23.143C62.4903 18.9716 60.7816 14.8064 58.4581 11.3631C55.7021 7.27669 51.8606 3.796 47.2327 1.85238C42.0111 -0.340156 36.0539 -0.645079 30.6734 1.22802C25.7762 2.93309 21.5277 6.09848 18.3413 10.0977C15.3203 13.8875 12.8081 18.6045 12.7657 23.5206C12.7403 26.5241 17.5103 26.5283 17.5357 23.5206L17.5336 23.5247Z" fill="#1E1E1E"/>
<path d="M17.3089 34.4172C17.3054 34.2098 17.3089 34.0065 17.3124 33.799C17.3124 33.799 17.3668 33.1394 17.3265 33.5024C17.2861 33.8654 17.3774 33.2141 17.3774 33.2141C17.4178 33.017 17.4581 32.82 17.5073 32.6271C17.5407 32.4964 17.5793 32.3698 17.6161 32.2412C17.8005 31.6169 17.4353 32.6395 17.6881 32.0421C17.8479 31.6646 18.0217 31.2974 18.2201 30.9469C18.4501 30.5403 18.7468 30.1192 19.2542 29.5384C19.8617 28.8415 20.1637 28.5676 20.8098 28.0574C23.7997 25.6927 27.3058 24.4564 30.8347 23.6993C34.8395 22.8384 38.9829 22.7741 43.0245 23.2948C46.4779 23.7387 50.1877 24.7177 53.2303 26.4332C54.8017 27.3189 55.9973 28.1673 57.0735 29.4907C57.1789 29.6193 57.2807 29.75 57.379 29.8848C57.4563 29.9906 57.5318 30.0985 57.6055 30.2063C57.4931 30.0342 57.4756 30.0134 57.5581 30.1462C57.7495 30.4781 57.9145 30.8183 58.0796 31.1688C58.134 31.2829 58.2586 31.6895 58.1129 31.2311C58.1796 31.4406 58.2393 31.6521 58.2885 31.8679C58.3236 32.0214 58.3447 32.179 58.3798 32.3325C58.4184 32.6001 58.4166 32.5835 58.3798 32.2807C58.3903 32.4093 58.3973 32.5379 58.4008 32.6665C58.4535 33.9256 59.2699 35.0001 60.376 35.0001C61.4048 35.0001 62.4056 33.9318 62.3511 32.6665C62.1773 28.5469 59.7475 25.4977 56.8892 23.4586C53.4621 21.0151 49.424 19.7228 45.4965 19.0134C40.7439 18.1546 35.9701 18.1069 31.2105 18.9263C27.1144 19.6295 22.9236 21.0255 19.3736 23.6059C16.1308 25.9644 13.2708 29.6608 13.3551 34.4213C13.4078 37.4208 17.3581 37.4311 17.3054 34.4213L17.3089 34.4172Z" fill="#1E1E1E"/>
<path d="M13.7853 45.2118C9.59992 49.6844 6.31817 55.2459 3.71294 60.7005C-1.79482 72.2386 -3.90778 85.3888 -0.885356 97.8351C1.45946 107.491 6.47273 116.208 12.9772 123.745C14.9462 126.027 18.7225 123.153 16.7405 120.854C11.1762 114.407 6.71737 107.105 4.30966 98.9507C2.4982 92.8166 2.05969 86.1751 2.87061 79.8156C3.06207 78.3157 3.3185 76.8217 3.63683 75.3422C3.79116 74.6219 3.95894 73.9061 4.14226 73.1945C4.22321 72.8778 4.30654 72.5629 4.39407 72.2474C4.504 71.8451 4.24254 72.7684 4.43678 72.1055C4.49658 71.9006 4.5561 71.6936 4.618 71.4884C5.39778 68.8888 6.36016 66.3418 7.47477 63.8599C8.45829 61.6722 9.57597 59.5583 10.7659 57.4723C11.0494 56.9773 10.5004 57.9104 10.7918 57.4269C10.8478 57.3355 10.9015 57.2424 10.9575 57.151C11.0936 56.9252 11.23 56.7015 11.3682 56.4754C11.6471 56.025 11.9285 55.5784 12.2166 55.133C12.7115 54.3684 13.2228 53.6142 13.7484 52.8706C14.9308 51.2001 16.1701 49.5239 17.5745 48.0221C18.4465 47.0889 18.0859 45.4632 17.1289 44.7521C16.0267 43.933 14.6628 44.2716 13.7869 45.2074L13.7853 45.2118Z" fill="#1E1E1E"/>
<path d="M58.7653 44.0139C59.8788 45.2661 60.8678 46.6369 61.8185 48.0057C62.8597 49.5047 63.8404 51.0464 64.7579 52.6199C64.8772 52.8242 64.9942 53.0302 65.1132 53.2365C65.1803 53.3525 65.245 53.4701 65.3121 53.5861C65.5816 54.0564 65.1283 53.2495 65.2969 53.5605C65.5801 54.0792 65.8608 54.5997 66.1325 55.1228C66.6854 56.1896 67.2085 57.2684 67.7038 58.3595C68.7969 60.7705 69.7487 63.2448 70.5334 65.7697C70.7422 66.4424 70.9396 67.1195 71.1258 67.7991C71.1634 67.9376 71.2014 68.074 71.237 68.2122C71.2291 68.1815 71.4063 68.8637 71.325 68.5437C71.2437 68.2238 71.4157 68.9115 71.4078 68.8808C71.4593 69.093 71.5087 69.3048 71.5581 69.5167C71.8901 70.9658 72.1665 72.427 72.3792 73.8967C72.5919 75.3665 72.7593 76.957 72.8447 78.4965C72.8903 79.2877 72.9165 80.08 72.9235 80.8713C72.9271 81.2732 72.9264 81.6745 72.9216 82.075C72.9217 82.1276 72.9114 82.5357 72.92 82.1777C72.9125 82.4224 72.9033 82.6647 72.8938 82.909C72.7426 86.3581 72.2255 89.7857 71.3531 93.1262C70.3543 96.9548 68.6556 101.033 66.6225 104.711C64.1944 109.102 61.1396 113.121 57.7564 116.846C55.7174 119.09 59.4166 122.064 61.4453 119.832C67.3775 113.3 72.3066 105.736 75.0376 97.357C77.2691 90.5089 78.1133 83.3287 77.4462 76.1452C76.4655 65.5969 72.3856 55.3803 66.5048 46.5086C65.3159 44.7146 64.0633 42.9165 62.6244 41.3005C61.7759 40.3476 60.403 39.98 59.2949 40.7606C58.3251 41.4439 57.9147 43.0606 58.7667 44.0183L58.7653 44.0139Z" fill="#1E1E1E"/>
<path d="M49 19L47.8491 16.495C46.8704 14.365 44.741 13 42.397 13H38.643C36.0502 13 33.7507 14.6655 32.9422 17.1291L32 20" stroke="#1E1E1E" stroke-width="4" stroke-linecap="round"/>
<path d="M37 19.5981C38.3333 17.7321 40.5 13 38.5 13" stroke="#1E1E1E" stroke-width="3"/>
<path d="M41 19.5C42.3333 17.634 45.5 13.5 43.5 13.5" stroke="#1E1E1E" stroke-width="3"/>
</g>
<defs>
<clipPath id="clip0_936_3203">
<rect width="78" height="67" fill="white"/>
</clipPath>
</defs>
</svg>
